%TF.GenerationSoftware,KiCad,Pcbnew,9.0.6+1*%
%TF.CreationDate,Date%
%TF.ProjectId,solar_smart_station,736f6c61-725f-4736-9d61-72745f737461,1.0.0*%
%TF.SameCoordinates,Original*%
%TF.FileFunction,Copper,L2,Inr*%
%TF.FilePolarity,Positive*%
%FSLAX46Y46*%
G04 Gerber Fmt 4.6, Leading zero omitted, Abs format (unit mm)*
G04 Created by KiCad*
%MOMM*%
%LPD*%
G01*
G04 APERTURE LIST*
G04 Aperture macros list*
%AMRoundRect*
0 Rectangle with rounded corners*
0 $1 Rounding radius*
0 $2 $3 $4 $5 $6 $7 $8 $9 X,Y pos of 4 corners*
0 Add a 4 corners polygon primitive as box body*
4,1,4,$2,$3,$4,$5,$6,$7,$8,$9,$2,$3,0*
0 Add four circle primitives for the rounded corners*
1,1,$1+$1,$2,$3*
1,1,$1+$1,$4,$5*
1,1,$1+$1,$6,$7*
1,1,$1+$1,$8,$9*
0 Add four rect primitives between the rounded corners*
20,1,$1+$1,$2,$3,$4,$5,0*
20,1,$1+$1,$4,$5,$6,$7,0*
20,1,$1+$1,$6,$7,$8,$9,0*
20,1,$1+$1,$8,$9,$2,$3,0*%
G04 Aperture macros list end*
%TA.AperFunction,ComponentPad*%
%ADD10RoundRect,0.250001X-1.099999X-1.099999X1.099999X-1.099999X1.099999X1.099999X-1.099999X1.099999X0*%
%TD*%
%TA.AperFunction,ComponentPad*%
%ADD11C,2.700000*%
%TD*%
%TA.AperFunction,ComponentPad*%
%ADD12R,2.500000X2.500000*%
%TD*%
%TA.AperFunction,ComponentPad*%
%ADD13C,3.600000*%
%TD*%
%TA.AperFunction,ComponentPad*%
%ADD14R,1.700000X1.700000*%
%TD*%
%TA.AperFunction,ComponentPad*%
%ADD15C,1.700000*%
%TD*%
%TA.AperFunction,ComponentPad*%
%ADD16RoundRect,0.250001X1.099999X1.099999X-1.099999X1.099999X-1.099999X-1.099999X1.099999X-1.099999X0*%
%TD*%
%TA.AperFunction,ViaPad*%
%ADD17C,0.550000*%
%TD*%
%TA.AperFunction,Conductor*%
%ADD18C,0.600000*%
%TD*%
%TA.AperFunction,Conductor*%
%ADD19C,1.000000*%
%TD*%
%TA.AperFunction,Conductor*%
%ADD20C,0.500000*%
%TD*%
G04 APERTURE END LIST*
D10*
%TO.N,+21V*%
%TO.C,JST1*%
X32742500Y-179950000D03*
D11*
%TO.N,GND*%
X36702500Y-179950000D03*
%TD*%
D12*
%TO.N,Net-(H4-Pad1)*%
%TO.C,H4*%
X83000000Y-163500000D03*
%TD*%
D13*
%TO.N,unconnected-(H8-Pad1)_2*%
%TO.C,H8*%
X83250000Y-150000000D03*
%TD*%
D12*
%TO.N,Net-(H2-Pad1)*%
%TO.C,H2*%
X83000000Y-171500000D03*
%TD*%
%TO.N,-BATT*%
%TO.C,H6*%
X83000000Y-155500000D03*
%TD*%
D14*
%TO.N,REGN_5V*%
%TO.C,J2*%
X57000000Y-172475000D03*
D15*
%TO.N,LDO_IN*%
X57000000Y-175015000D03*
%TD*%
D12*
%TO.N,BATTERY_PACK*%
%TO.C,H1*%
X83000000Y-175500000D03*
%TD*%
D14*
%TO.N,VCC*%
%TO.C,J3*%
X75080000Y-181000000D03*
D15*
%TO.N,SWDIO*%
X72540000Y-181000000D03*
%TO.N,SWCLK*%
X70000000Y-181000000D03*
%TO.N,RST*%
X67460000Y-181000000D03*
%TO.N,GND*%
X64920000Y-181000000D03*
%TD*%
D12*
%TO.N,Net-(H3-Pad1)*%
%TO.C,H3*%
X83000000Y-167500000D03*
%TD*%
D14*
%TO.N,THERMISTOR_2*%
%TO.C,J5*%
X58225000Y-181000000D03*
D15*
%TO.N,GND*%
X60765000Y-181000000D03*
%TD*%
D16*
%TO.N,SYSTEM_LOAD*%
%TO.C,JST2*%
X61257500Y-151300000D03*
D11*
%TO.N,GND*%
X57297500Y-151300000D03*
%TD*%
D13*
%TO.N,GND*%
%TO.C,H7*%
X34250000Y-150250000D03*
%TD*%
D12*
%TO.N,Net-(H5-Pad1)*%
%TO.C,H5*%
X83000000Y-159500000D03*
%TD*%
D14*
%TO.N,CE_N*%
%TO.C,J1*%
X44210000Y-181000000D03*
D15*
%TO.N,GND*%
X46750000Y-181000000D03*
%TD*%
D13*
%TO.N,GND*%
%TO.C,H9*%
X83250000Y-181250000D03*
%TD*%
D14*
%TO.N,/Project Architecture/SolarCharger/QON*%
%TO.C,TP1*%
X33000000Y-167500000D03*
%TD*%
%TO.N,THERMISTOR*%
%TO.C,J4*%
X51225000Y-181000000D03*
D15*
%TO.N,GND*%
X53765000Y-181000000D03*
%TD*%
D17*
%TO.N,GND*%
X39000000Y-155750000D03*
X53750000Y-163500000D03*
X59250000Y-166250000D03*
X41500000Y-168015000D03*
X55500000Y-155750000D03*
X44000000Y-155750000D03*
X58000000Y-155750000D03*
X36500000Y-173750000D03*
X54750000Y-177750000D03*
X39000000Y-168015000D03*
X53000000Y-155750000D03*
X54750000Y-177000000D03*
X56750000Y-166250000D03*
X53750000Y-161500000D03*
X47750000Y-165250000D03*
X41500000Y-155750000D03*
%TO.N,Net-(U1-SW1)*%
X48050002Y-163250000D03*
X46500000Y-155750000D03*
X45000000Y-165250000D03*
X46500000Y-158000000D03*
X46500000Y-157250000D03*
X48050002Y-163949998D03*
X46500000Y-156500000D03*
%TO.N,Net-(U1-SW2)*%
X48950000Y-163250000D03*
X50500000Y-156500000D03*
X50500000Y-157250000D03*
X50500000Y-158000000D03*
X53750000Y-164500000D03*
X50500000Y-155750000D03*
X48950000Y-163950000D03*
%TO.N,BATTERY_PACK*%
X59750000Y-163000000D03*
X56750000Y-163750000D03*
X58750000Y-163750000D03*
X60750000Y-163750000D03*
X55750000Y-163750000D03*
X57750000Y-163000000D03*
X60750000Y-163000000D03*
X60750000Y-162250000D03*
X56750000Y-163000000D03*
X57750000Y-163750000D03*
X55750000Y-163000000D03*
X58750000Y-163000000D03*
X59750000Y-163750000D03*
%TO.N,+3V3*%
X48499000Y-172000000D03*
X74000000Y-179000000D03*
X43750000Y-169500000D03*
X51250000Y-170750000D03*
%TO.N,REGN_5V*%
X36000000Y-160500000D03*
X53750000Y-167500000D03*
X44000000Y-166250000D03*
%TO.N,/Project Architecture/SolarCharger/QON*%
X47640540Y-167215154D03*
%TO.N,-BATT*%
X78500000Y-161000000D03*
X74750000Y-156000000D03*
X78000000Y-149750000D03*
X64500000Y-155500000D03*
X70750000Y-171000000D03*
X74750000Y-154000000D03*
%TO.N,CE_N*%
X48533841Y-167230993D03*
%TO.N,RST*%
X48500000Y-170500000D03*
%TO.N,SWDIO*%
X45500000Y-178250000D03*
%TO.N,SWCLK*%
X46500000Y-178250000D03*
%TO.N,SCL*%
X49385961Y-167246832D03*
X46500000Y-170500000D03*
%TO.N,INT_N*%
X49250000Y-175000000D03*
X48948814Y-164846338D03*
%TO.N,SDA*%
X50218376Y-167239664D03*
X42750000Y-176000000D03*
%TD*%
D18*
%TO.N,Net-(U1-SW1)*%
X48000000Y-159500000D02*
X46500000Y-158000000D01*
D19*
X46500000Y-158000000D02*
X46500000Y-155250000D01*
D20*
X45000000Y-165250000D02*
X46300002Y-163949998D01*
D18*
X48050002Y-159550002D02*
X48000000Y-159500000D01*
X48050002Y-163949998D02*
X48050002Y-159550002D01*
D20*
X46300002Y-163949998D02*
X48050002Y-163949998D01*
D18*
%TO.N,Net-(U1-SW2)*%
X48950000Y-159550000D02*
X50500000Y-158000000D01*
D20*
X48950000Y-163950000D02*
X53200000Y-163950000D01*
D19*
X50500000Y-158000000D02*
X50500000Y-155250000D01*
D20*
X53200000Y-163950000D02*
X53750000Y-164500000D01*
D18*
X48950000Y-163950000D02*
X48950000Y-159550000D01*
%TD*%
%TA.AperFunction,Conductor*%
%TO.N,-BATT*%
G36*
X86006922Y-147001280D02*
G01*
X86097266Y-147011459D01*
X86124331Y-147017636D01*
X86203540Y-147045352D01*
X86228553Y-147057398D01*
X86299606Y-147102043D01*
X86321313Y-147119355D01*
X86380644Y-147178686D01*
X86397957Y-147200395D01*
X86442600Y-147271444D01*
X86454648Y-147296462D01*
X86482362Y-147375666D01*
X86488540Y-147402735D01*
X86498720Y-147493076D01*
X86499500Y-147506961D01*
X86499500Y-183993038D01*
X86498720Y-184006923D01*
X86488540Y-184097264D01*
X86482362Y-184124333D01*
X86454648Y-184203537D01*
X86442600Y-184228555D01*
X86397957Y-184299604D01*
X86380644Y-184321313D01*
X86321313Y-184380644D01*
X86299604Y-184397957D01*
X86228555Y-184442600D01*
X86203537Y-184454648D01*
X86124333Y-184482362D01*
X86097264Y-184488540D01*
X86017075Y-184497576D01*
X86006921Y-184498720D01*
X85993038Y-184499500D01*
X64124000Y-184499500D01*
X64056961Y-184479815D01*
X64011206Y-184427011D01*
X64000000Y-184375500D01*
X64000000Y-181808425D01*
X64019685Y-181741386D01*
X64072489Y-181695631D01*
X64141647Y-181685687D01*
X64205203Y-181714712D01*
X64211681Y-181720744D01*
X64275840Y-181784903D01*
X64275844Y-181784906D01*
X64441342Y-181895489D01*
X64441346Y-181895491D01*
X64441349Y-181895493D01*
X64625248Y-181971667D01*
X64773655Y-182001187D01*
X64820469Y-182010499D01*
X64820472Y-182010500D01*
X64820474Y-182010500D01*
X65019528Y-182010500D01*
X65019529Y-182010499D01*
X65214752Y-181971667D01*
X65398651Y-181895493D01*
X65564156Y-181784906D01*
X65704906Y-181644156D01*
X65815493Y-181478651D01*
X65891667Y-181294752D01*
X65930500Y-181099526D01*
X65930500Y-180900474D01*
X65930500Y-180900471D01*
X65930499Y-180900469D01*
X66449500Y-180900469D01*
X66449500Y-181099530D01*
X66488331Y-181294744D01*
X66488333Y-181294752D01*
X66564505Y-181478647D01*
X66564510Y-181478657D01*
X66675093Y-181644155D01*
X66675096Y-181644159D01*
X66815840Y-181784903D01*
X66815844Y-181784906D01*
X66981342Y-181895489D01*
X66981346Y-181895491D01*
X66981349Y-181895493D01*
X67165248Y-181971667D01*
X67313655Y-182001187D01*
X67360469Y-182010499D01*
X67360472Y-182010500D01*
X67360474Y-182010500D01*
X67559528Y-182010500D01*
X67559529Y-182010499D01*
X67754752Y-181971667D01*
X67938651Y-181895493D01*
X68104156Y-181784906D01*
X68244906Y-181644156D01*
X68355493Y-181478651D01*
X68431667Y-181294752D01*
X68470500Y-181099526D01*
X68470500Y-180900474D01*
X68470500Y-180900471D01*
X68470499Y-180900469D01*
X68989500Y-180900469D01*
X68989500Y-181099530D01*
X69028331Y-181294744D01*
X69028333Y-181294752D01*
X69104505Y-181478647D01*
X69104510Y-181478657D01*
X69215093Y-181644155D01*
X69215096Y-181644159D01*
X69355840Y-181784903D01*
X69355844Y-181784906D01*
X69521342Y-181895489D01*
X69521346Y-181895491D01*
X69521349Y-181895493D01*
X69705248Y-181971667D01*
X69853655Y-182001187D01*
X69900469Y-182010499D01*
X69900472Y-182010500D01*
X69900474Y-182010500D01*
X70099528Y-182010500D01*
X70099529Y-182010499D01*
X70294752Y-181971667D01*
X70478651Y-181895493D01*
X70644156Y-181784906D01*
X70784906Y-181644156D01*
X70895493Y-181478651D01*
X70971667Y-181294752D01*
X71010500Y-181099526D01*
X71010500Y-180900474D01*
X71010500Y-180900471D01*
X71010499Y-180900469D01*
X71529500Y-180900469D01*
X71529500Y-181099530D01*
X71568331Y-181294744D01*
X71568333Y-181294752D01*
X71644505Y-181478647D01*
X71644510Y-181478657D01*
X71755093Y-181644155D01*
X71755096Y-181644159D01*
X71895840Y-181784903D01*
X71895844Y-181784906D01*
X72061342Y-181895489D01*
X72061346Y-181895491D01*
X72061349Y-181895493D01*
X72245248Y-181971667D01*
X72393655Y-182001187D01*
X72440469Y-182010499D01*
X72440472Y-182010500D01*
X72440474Y-182010500D01*
X72639528Y-182010500D01*
X72639529Y-182010499D01*
X72834752Y-181971667D01*
X73018651Y-181895493D01*
X73063078Y-181865808D01*
X74069499Y-181865808D01*
X74078812Y-181912623D01*
X74078813Y-181912624D01*
X74114286Y-181965714D01*
X74167376Y-182001187D01*
X74214191Y-182010500D01*
X74214194Y-182010500D01*
X75945808Y-182010500D01*
X75977018Y-182004291D01*
X75992624Y-182001187D01*
X76045714Y-181965714D01*
X76081187Y-181912624D01*
X76084291Y-181897018D01*
X76090500Y-181865808D01*
X76090500Y-181121501D01*
X81289500Y-181121501D01*
X81289500Y-181378498D01*
X81323043Y-181633291D01*
X81389561Y-181881538D01*
X81442979Y-182010500D01*
X81487908Y-182118968D01*
X81616406Y-182341533D01*
X81616411Y-182341539D01*
X81616412Y-182341541D01*
X81772853Y-182545419D01*
X81772859Y-182545426D01*
X81954573Y-182727140D01*
X81954579Y-182727145D01*
X82158467Y-182883594D01*
X82381032Y-183012092D01*
X82618466Y-183110440D01*
X82866705Y-183176956D01*
X83057802Y-183202114D01*
X83121501Y-183210500D01*
X83121502Y-183210500D01*
X83378499Y-183210500D01*
X83429457Y-183203791D01*
X83633295Y-183176956D01*
X83881534Y-183110440D01*
X84118968Y-183012092D01*
X84341533Y-182883594D01*
X84545421Y-182727145D01*
X84727145Y-182545421D01*
X84883594Y-182341533D01*
X85012092Y-182118968D01*
X85110440Y-181881534D01*
X85176956Y-181633295D01*
X85210500Y-181378498D01*
X85210500Y-181121502D01*
X85176956Y-180866705D01*
X85110440Y-180618466D01*
X85012092Y-180381032D01*
X84883594Y-180158467D01*
X84829044Y-180087376D01*
X84727146Y-179954580D01*
X84727140Y-179954573D01*
X84545426Y-179772859D01*
X84545419Y-179772853D01*
X84341541Y-179616412D01*
X84341539Y-179616411D01*
X84341533Y-179616406D01*
X84118968Y-179487908D01*
X84118961Y-179487905D01*
X83881538Y-179389561D01*
X83633291Y-179323043D01*
X83378499Y-179289500D01*
X83378498Y-179289500D01*
X83121502Y-179289500D01*
X83121501Y-179289500D01*
X82866708Y-179323043D01*
X82618461Y-179389561D01*
X82381038Y-179487905D01*
X82381029Y-179487909D01*
X82158473Y-179616402D01*
X82158458Y-179616412D01*
X81954580Y-179772853D01*
X81954573Y-179772859D01*
X81772859Y-179954573D01*
X81772853Y-179954580D01*
X81616412Y-180158458D01*
X81616402Y-180158473D01*
X81487909Y-180381029D01*
X81487905Y-180381038D01*
X81389561Y-180618461D01*
X81323043Y-180866708D01*
X81289500Y-181121501D01*
X76090500Y-181121501D01*
X76090500Y-180134191D01*
X76081187Y-180087376D01*
X76045714Y-180034286D01*
X75992624Y-179998813D01*
X75992623Y-179998812D01*
X75945808Y-179989500D01*
X75945806Y-179989500D01*
X74214194Y-179989500D01*
X74214192Y-179989500D01*
X74167376Y-179998812D01*
X74114286Y-180034286D01*
X74078812Y-180087376D01*
X74069500Y-180134191D01*
X74069500Y-180134194D01*
X74069500Y-181865806D01*
X74069500Y-181865808D01*
X74069499Y-181865808D01*
X73063078Y-181865808D01*
X73184156Y-181784906D01*
X73324906Y-181644156D01*
X73435493Y-181478651D01*
X73511667Y-181294752D01*
X73550500Y-181099526D01*
X73550500Y-180900474D01*
X73550500Y-180900471D01*
X73550499Y-180900469D01*
X73511667Y-180705248D01*
X73435493Y-180521349D01*
X73435491Y-180521346D01*
X73435489Y-180521342D01*
X73324906Y-180355844D01*
X73324903Y-180355840D01*
X73184159Y-180215096D01*
X73184155Y-180215093D01*
X73018657Y-180104510D01*
X73018647Y-180104505D01*
X72834752Y-180028333D01*
X72834744Y-180028331D01*
X72639529Y-179989500D01*
X72639526Y-179989500D01*
X72440474Y-179989500D01*
X72440471Y-179989500D01*
X72245255Y-180028331D01*
X72245247Y-180028333D01*
X72061352Y-180104505D01*
X72061342Y-180104510D01*
X71895844Y-180215093D01*
X71895840Y-180215096D01*
X71755096Y-180355840D01*
X71755093Y-180355844D01*
X71644510Y-180521342D01*
X71644505Y-180521352D01*
X71568333Y-180705247D01*
X71568331Y-180705255D01*
X71529500Y-180900469D01*
X71010499Y-180900469D01*
X70971667Y-180705248D01*
X70895493Y-180521349D01*
X70895491Y-180521346D01*
X70895489Y-180521342D01*
X70784906Y-180355844D01*
X70784903Y-180355840D01*
X70644159Y-180215096D01*
X70644155Y-180215093D01*
X70478657Y-180104510D01*
X70478647Y-180104505D01*
X70294752Y-180028333D01*
X70294744Y-180028331D01*
X70099529Y-179989500D01*
X70099526Y-179989500D01*
X69900474Y-179989500D01*
X69900471Y-179989500D01*
X69705255Y-180028331D01*
X69705247Y-180028333D01*
X69521352Y-180104505D01*
X69521342Y-180104510D01*
X69355844Y-180215093D01*
X69355840Y-180215096D01*
X69215096Y-180355840D01*
X69215093Y-180355844D01*
X69104510Y-180521342D01*
X69104505Y-180521352D01*
X69028333Y-180705247D01*
X69028331Y-180705255D01*
X68989500Y-180900469D01*
X68470499Y-180900469D01*
X68431667Y-180705248D01*
X68355493Y-180521349D01*
X68355491Y-180521346D01*
X68355489Y-180521342D01*
X68244906Y-180355844D01*
X68244903Y-180355840D01*
X68104159Y-180215096D01*
X68104155Y-180215093D01*
X67938657Y-180104510D01*
X67938647Y-180104505D01*
X67754752Y-180028333D01*
X67754744Y-180028331D01*
X67559529Y-179989500D01*
X67559526Y-179989500D01*
X67360474Y-179989500D01*
X67360471Y-179989500D01*
X67165255Y-180028331D01*
X67165247Y-180028333D01*
X66981352Y-180104505D01*
X66981342Y-180104510D01*
X66815844Y-180215093D01*
X66815840Y-180215096D01*
X66675096Y-180355840D01*
X66675093Y-180355844D01*
X66564510Y-180521342D01*
X66564505Y-180521352D01*
X66488333Y-180705247D01*
X66488331Y-180705255D01*
X66449500Y-180900469D01*
X65930499Y-180900469D01*
X65891667Y-180705248D01*
X65815493Y-180521349D01*
X65815491Y-180521346D01*
X65815489Y-180521342D01*
X65704906Y-180355844D01*
X65704903Y-180355840D01*
X65564159Y-180215096D01*
X65564155Y-180215093D01*
X65398657Y-180104510D01*
X65398647Y-180104505D01*
X65214752Y-180028333D01*
X65214744Y-180028331D01*
X65019529Y-179989500D01*
X65019526Y-179989500D01*
X64820474Y-179989500D01*
X64820471Y-179989500D01*
X64625255Y-180028331D01*
X64625247Y-180028333D01*
X64441352Y-180104505D01*
X64441342Y-180104510D01*
X64275844Y-180215093D01*
X64275840Y-180215096D01*
X64211681Y-180279256D01*
X64150358Y-180312741D01*
X64080666Y-180307757D01*
X64024733Y-180265885D01*
X64000316Y-180200421D01*
X64000000Y-180191575D01*
X64000000Y-178942665D01*
X73564500Y-178942665D01*
X73564500Y-179057335D01*
X73586759Y-179140406D01*
X73594179Y-179168098D01*
X73594181Y-179168103D01*
X73651508Y-179267396D01*
X73651512Y-179267401D01*
X73651513Y-179267403D01*
X73732597Y-179348487D01*
X73732599Y-179348488D01*
X73732603Y-179348491D01*
X73831896Y-179405818D01*
X73831901Y-179405820D01*
X73831903Y-179405821D01*
X73942665Y-179435500D01*
X73942668Y-179435500D01*
X74057332Y-179435500D01*
X74057335Y-179435500D01*
X74168097Y-179405821D01*
X74168100Y-179405819D01*
X74168103Y-179405818D01*
X74267396Y-179348491D01*
X74267395Y-179348491D01*
X74267403Y-179348487D01*
X74348487Y-179267403D01*
X74405821Y-179168097D01*
X74435500Y-179057335D01*
X74435500Y-178942665D01*
X74405821Y-178831903D01*
X74405820Y-178831901D01*
X74405818Y-178831896D01*
X74348491Y-178732603D01*
X74348485Y-178732595D01*
X74267404Y-178651514D01*
X74267396Y-178651508D01*
X74168103Y-178594181D01*
X74168098Y-178594179D01*
X74140406Y-178586759D01*
X74057335Y-178564500D01*
X73942665Y-178564500D01*
X73876207Y-178582307D01*
X73831901Y-178594179D01*
X73831896Y-178594181D01*
X73732603Y-178651508D01*
X73732595Y-178651514D01*
X73651514Y-178732595D01*
X73651508Y-178732603D01*
X73594181Y-178831896D01*
X73594179Y-178831901D01*
X73579339Y-178887284D01*
X73564500Y-178942665D01*
X64000000Y-178942665D01*
X64000000Y-176765808D01*
X81589499Y-176765808D01*
X81598812Y-176812623D01*
X81598813Y-176812624D01*
X81634286Y-176865714D01*
X81687376Y-176901187D01*
X81734191Y-176910500D01*
X81734194Y-176910500D01*
X84265808Y-176910500D01*
X84297018Y-176904291D01*
X84312624Y-176901187D01*
X84365714Y-176865714D01*
X84401187Y-176812624D01*
X84410500Y-176765806D01*
X84410500Y-174234194D01*
X84410500Y-174234191D01*
X84401187Y-174187376D01*
X84365714Y-174134286D01*
X84312624Y-174098813D01*
X84312623Y-174098812D01*
X84265808Y-174089500D01*
X84265806Y-174089500D01*
X81734194Y-174089500D01*
X81734192Y-174089500D01*
X81687376Y-174098812D01*
X81634286Y-174134286D01*
X81598812Y-174187376D01*
X81589500Y-174234191D01*
X81589500Y-174234194D01*
X81589500Y-176765806D01*
X81589500Y-176765808D01*
X81589499Y-176765808D01*
X64000000Y-176765808D01*
X64000000Y-172765808D01*
X81589499Y-172765808D01*
X81598812Y-172812623D01*
X81598813Y-172812624D01*
X81634286Y-172865714D01*
X81687376Y-172901187D01*
X81734191Y-172910500D01*
X81734194Y-172910500D01*
X84265808Y-172910500D01*
X84297018Y-172904291D01*
X84312624Y-172901187D01*
X84365714Y-172865714D01*
X84401187Y-172812624D01*
X84410500Y-172765806D01*
X84410500Y-170234194D01*
X84410500Y-170234191D01*
X84401187Y-170187376D01*
X84365714Y-170134286D01*
X84312624Y-170098813D01*
X84312623Y-170098812D01*
X84265808Y-170089500D01*
X84265806Y-170089500D01*
X81734194Y-170089500D01*
X81734192Y-170089500D01*
X81687376Y-170098812D01*
X81634286Y-170134286D01*
X81598812Y-170187376D01*
X81589500Y-170234191D01*
X81589500Y-170234194D01*
X81589500Y-172765806D01*
X81589500Y-172765808D01*
X81589499Y-172765808D01*
X64000000Y-172765808D01*
X64000000Y-168765808D01*
X81589499Y-168765808D01*
X81598812Y-168812623D01*
X81598813Y-168812624D01*
X81634286Y-168865714D01*
X81687376Y-168901187D01*
X81734191Y-168910500D01*
X81734194Y-168910500D01*
X84265808Y-168910500D01*
X84297018Y-168904291D01*
X84312624Y-168901187D01*
X84365714Y-168865714D01*
X84401187Y-168812624D01*
X84410500Y-168765806D01*
X84410500Y-166234194D01*
X84410500Y-166234191D01*
X84401187Y-166187376D01*
X84365714Y-166134286D01*
X84312624Y-166098813D01*
X84312623Y-166098812D01*
X84265808Y-166089500D01*
X84265806Y-166089500D01*
X81734194Y-166089500D01*
X81734192Y-166089500D01*
X81687376Y-166098812D01*
X81634286Y-166134286D01*
X81598812Y-166187376D01*
X81589500Y-166234191D01*
X81589500Y-166234194D01*
X81589500Y-168765806D01*
X81589500Y-168765808D01*
X81589499Y-168765808D01*
X64000000Y-168765808D01*
X64000000Y-164765808D01*
X81589499Y-164765808D01*
X81598812Y-164812623D01*
X81598813Y-164812624D01*
X81634286Y-164865714D01*
X81687376Y-164901187D01*
X81734191Y-164910500D01*
X81734194Y-164910500D01*
X84265808Y-164910500D01*
X84297018Y-164904291D01*
X84312624Y-164901187D01*
X84365714Y-164865714D01*
X84401187Y-164812624D01*
X84410500Y-164765806D01*
X84410500Y-162234194D01*
X84410500Y-162234191D01*
X84401187Y-162187376D01*
X84365714Y-162134286D01*
X84312624Y-162098813D01*
X84312623Y-162098812D01*
X84265808Y-162089500D01*
X84265806Y-162089500D01*
X81734194Y-162089500D01*
X81734192Y-162089500D01*
X81687376Y-162098812D01*
X81634286Y-162134286D01*
X81598812Y-162187376D01*
X81589500Y-162234191D01*
X81589500Y-162234194D01*
X81589500Y-164765806D01*
X81589500Y-164765808D01*
X81589499Y-164765808D01*
X64000000Y-164765808D01*
X64000000Y-160765808D01*
X81589499Y-160765808D01*
X81598812Y-160812623D01*
X81598813Y-160812624D01*
X81634286Y-160865714D01*
X81687376Y-160901187D01*
X81734191Y-160910500D01*
X81734194Y-160910500D01*
X84265808Y-160910500D01*
X84297018Y-160904291D01*
X84312624Y-160901187D01*
X84365714Y-160865714D01*
X84401187Y-160812624D01*
X84410500Y-160765806D01*
X84410500Y-158234194D01*
X84410500Y-158234191D01*
X84401187Y-158187376D01*
X84365714Y-158134286D01*
X84312624Y-158098813D01*
X84312623Y-158098812D01*
X84265808Y-158089500D01*
X84265806Y-158089500D01*
X81734194Y-158089500D01*
X81734192Y-158089500D01*
X81687376Y-158098812D01*
X81634286Y-158134286D01*
X81598812Y-158187376D01*
X81589500Y-158234191D01*
X81589500Y-158234194D01*
X81589500Y-160765806D01*
X81589500Y-160765808D01*
X81589499Y-160765808D01*
X64000000Y-160765808D01*
X64000000Y-154874000D01*
X64019685Y-154806961D01*
X64072489Y-154761206D01*
X64124000Y-154750000D01*
X70000000Y-154750000D01*
X70000000Y-149871501D01*
X81289500Y-149871501D01*
X81289500Y-150128498D01*
X81323043Y-150383291D01*
X81389561Y-150631538D01*
X81487905Y-150868961D01*
X81487908Y-150868968D01*
X81616406Y-151091533D01*
X81616411Y-151091539D01*
X81616412Y-151091541D01*
X81772853Y-151295419D01*
X81772859Y-151295426D01*
X81954573Y-151477140D01*
X81954579Y-151477145D01*
X82158467Y-151633594D01*
X82381032Y-151762092D01*
X82618466Y-151860440D01*
X82866705Y-151926956D01*
X83057802Y-151952114D01*
X83121501Y-151960500D01*
X83121502Y-151960500D01*
X83378499Y-151960500D01*
X83429457Y-151953791D01*
X83633295Y-151926956D01*
X83881534Y-151860440D01*
X84118968Y-151762092D01*
X84341533Y-151633594D01*
X84545421Y-151477145D01*
X84727145Y-151295421D01*
X84883594Y-151091533D01*
X85012092Y-150868968D01*
X85110440Y-150631534D01*
X85176956Y-150383295D01*
X85210500Y-150128498D01*
X85210500Y-149871502D01*
X85176956Y-149616705D01*
X85110440Y-149368466D01*
X85012092Y-149131032D01*
X84883594Y-148908467D01*
X84727145Y-148704579D01*
X84727140Y-148704573D01*
X84545426Y-148522859D01*
X84545419Y-148522853D01*
X84341541Y-148366412D01*
X84341539Y-148366411D01*
X84341533Y-148366406D01*
X84118968Y-148237908D01*
X84118961Y-148237905D01*
X83881538Y-148139561D01*
X83633291Y-148073043D01*
X83378499Y-148039500D01*
X83378498Y-148039500D01*
X83121502Y-148039500D01*
X83121501Y-148039500D01*
X82866708Y-148073043D01*
X82618461Y-148139561D01*
X82381038Y-148237905D01*
X82381029Y-148237909D01*
X82158473Y-148366402D01*
X82158458Y-148366412D01*
X81954580Y-148522853D01*
X81954573Y-148522859D01*
X81772859Y-148704573D01*
X81772853Y-148704580D01*
X81616412Y-148908458D01*
X81616402Y-148908473D01*
X81487909Y-149131029D01*
X81487905Y-149131038D01*
X81389561Y-149368461D01*
X81323043Y-149616708D01*
X81289500Y-149871501D01*
X70000000Y-149871501D01*
X70000000Y-147124500D01*
X70019685Y-147057461D01*
X70072489Y-147011706D01*
X70124000Y-147000500D01*
X85907290Y-147000500D01*
X85993038Y-147000500D01*
X86006922Y-147001280D01*
G37*
%TD.AperFunction*%
%TD*%
%TA.AperFunction,Conductor*%
%TO.N,GND*%
G36*
X69737539Y-147020185D02*
G01*
X69783294Y-147072989D01*
X69794500Y-147124500D01*
X69794500Y-154420500D01*
X69774815Y-154487539D01*
X69722011Y-154533294D01*
X69670500Y-154544500D01*
X64123992Y-154544500D01*
X64080313Y-154549197D01*
X64028825Y-154560397D01*
X64018627Y-154562890D01*
X64018624Y-154562891D01*
X63937916Y-154605899D01*
X63937913Y-154605901D01*
X63885104Y-154651660D01*
X63867160Y-154669242D01*
X63867154Y-154669249D01*
X63822511Y-154749059D01*
X63822509Y-154749064D01*
X63802826Y-154816096D01*
X63802825Y-154816101D01*
X63802825Y-154816102D01*
X63800978Y-154828952D01*
X63794500Y-154874003D01*
X63794500Y-180191578D01*
X63794631Y-180198933D01*
X63794918Y-180206973D01*
X63777632Y-180274670D01*
X63771321Y-180284263D01*
X63765380Y-180292441D01*
X63765376Y-180292447D01*
X63668904Y-180481782D01*
X63603242Y-180683869D01*
X63603242Y-180683872D01*
X63570000Y-180893753D01*
X63570000Y-181106246D01*
X63603242Y-181316127D01*
X63603242Y-181316130D01*
X63668904Y-181518217D01*
X63765379Y-181707557D01*
X63772213Y-181716964D01*
X63795693Y-181782770D01*
X63794783Y-181804006D01*
X63794816Y-181804009D01*
X63794735Y-181805138D01*
X63794635Y-181807479D01*
X63794501Y-181808411D01*
X63794500Y-181808426D01*
X63794500Y-184375500D01*
X63774815Y-184442539D01*
X63722011Y-184488294D01*
X63670500Y-184499500D01*
X31256962Y-184499500D01*
X31243078Y-184498720D01*
X31230553Y-184497308D01*
X31152735Y-184488540D01*
X31125666Y-184482362D01*
X31046462Y-184454648D01*
X31021444Y-184442600D01*
X30950395Y-184397957D01*
X30928686Y-184380644D01*
X30869355Y-184321313D01*
X30852042Y-184299604D01*
X30834325Y-184271408D01*
X30807398Y-184228553D01*
X30795351Y-184203537D01*
X30767637Y-184124333D01*
X30761459Y-184097263D01*
X30751280Y-184006922D01*
X30750500Y-183993038D01*
X30750500Y-178795731D01*
X31192000Y-178795731D01*
X31192000Y-181104258D01*
X31194854Y-181134698D01*
X31194854Y-181134699D01*
X31239706Y-181262881D01*
X31239707Y-181262882D01*
X31320350Y-181372150D01*
X31429618Y-181452793D01*
X31557802Y-181497646D01*
X31557801Y-181497646D01*
X31561771Y-181498018D01*
X31588235Y-181500500D01*
X33896764Y-181500499D01*
X33927198Y-181497646D01*
X34055382Y-181452793D01*
X34164650Y-181372150D01*
X34198712Y-181325996D01*
X34216902Y-181301351D01*
X34216902Y-181301350D01*
X34245293Y-181262882D01*
X34290146Y-181134698D01*
X34293000Y-181104265D01*
X34292999Y-179828751D01*
X34852500Y-179828751D01*
X34852500Y-180071248D01*
X34852501Y-180071264D01*
X34884153Y-180311687D01*
X34946921Y-180545939D01*
X35039720Y-180769978D01*
X35039727Y-180769992D01*
X35160981Y-180980010D01*
X35229561Y-181069384D01*
X35948384Y-180350560D01*
X35949240Y-180352626D01*
X36042262Y-180491844D01*
X36160656Y-180610238D01*
X36299874Y-180703260D01*
X36301937Y-180704114D01*
X35583114Y-181422936D01*
X35583114Y-181422937D01*
X35672489Y-181491517D01*
X35672496Y-181491522D01*
X35882507Y-181612772D01*
X35882521Y-181612779D01*
X36106560Y-181705578D01*
X36340812Y-181768346D01*
X36581235Y-181799998D01*
X36581252Y-181800000D01*
X36823748Y-181800000D01*
X36823764Y-181799998D01*
X37064187Y-181768346D01*
X37298439Y-181705578D01*
X37522478Y-181612779D01*
X37522492Y-181612772D01*
X37732516Y-181491515D01*
X37821884Y-181422939D01*
X37821884Y-181422936D01*
X37103062Y-180704114D01*
X37105126Y-180703260D01*
X37244344Y-180610238D01*
X37362738Y-180491844D01*
X37455760Y-180352626D01*
X37456614Y-180350562D01*
X38175436Y-181069384D01*
X38175439Y-181069384D01*
X38244015Y-180980016D01*
X38365272Y-180769992D01*
X38365279Y-180769978D01*
X38458078Y-180545939D01*
X38520846Y-180311687D01*
X38544734Y-180130247D01*
X43159500Y-180130247D01*
X43159500Y-181869752D01*
X43171131Y-181928229D01*
X43171132Y-181928230D01*
X43215447Y-181994552D01*
X43281769Y-182038867D01*
X43281770Y-182038868D01*
X43340247Y-182050499D01*
X43340250Y-182050500D01*
X43340252Y-182050500D01*
X45079750Y-182050500D01*
X45079751Y-182050499D01*
X45094568Y-182047552D01*
X45138229Y-182038868D01*
X45138229Y-182038867D01*
X45138231Y-182038867D01*
X45204552Y-181994552D01*
X45248867Y-181928231D01*
X45248867Y-181928229D01*
X45248868Y-181928229D01*
X45260499Y-181869752D01*
X45260500Y-181869750D01*
X45260500Y-181566048D01*
X45280185Y-181499009D01*
X45332989Y-181453254D01*
X45402147Y-181443310D01*
X45465703Y-181472335D01*
X45495938Y-181514264D01*
X45496694Y-181513879D01*
X45595375Y-181707550D01*
X45634728Y-181761716D01*
X46267037Y-181129408D01*
X46284075Y-181192993D01*
X46349901Y-181307007D01*
X46442993Y-181400099D01*
X46557007Y-181465925D01*
X46620590Y-181482962D01*
X45988282Y-182115269D01*
X45988282Y-182115270D01*
X46042449Y-182154624D01*
X46231782Y-182251095D01*
X46433870Y-182316757D01*
X46643754Y-182350000D01*
X46856246Y-182350000D01*
X47066127Y-182316757D01*
X47066130Y-182316757D01*
X47268217Y-182251095D01*
X47457554Y-182154622D01*
X47511716Y-182115270D01*
X47511717Y-182115270D01*
X46879408Y-181482962D01*
X46942993Y-181465925D01*
X47057007Y-181400099D01*
X47150099Y-181307007D01*
X47215925Y-181192993D01*
X47232962Y-181129408D01*
X47865270Y-181761717D01*
X47865270Y-181761716D01*
X47904622Y-181707554D01*
X48001095Y-181518217D01*
X48066757Y-181316130D01*
X48066757Y-181316127D01*
X48100000Y-181106246D01*
X48100000Y-180893753D01*
X48066757Y-180683872D01*
X48066757Y-180683869D01*
X48001095Y-180481782D01*
X47904624Y-180292449D01*
X47865270Y-180238282D01*
X47865269Y-180238282D01*
X47232962Y-180870590D01*
X47215925Y-180807007D01*
X47150099Y-180692993D01*
X47057007Y-180599901D01*
X46942993Y-180534075D01*
X46879409Y-180517037D01*
X47266198Y-180130247D01*
X50174500Y-180130247D01*
X50174500Y-181869752D01*
X50186131Y-181928229D01*
X50186132Y-181928230D01*
X50230447Y-181994552D01*
X50296769Y-182038867D01*
X50296770Y-182038868D01*
X50355247Y-182050499D01*
X50355250Y-182050500D01*
X50355252Y-182050500D01*
X52094750Y-182050500D01*
X52094751Y-182050499D01*
X52109568Y-182047552D01*
X52153229Y-182038868D01*
X52153229Y-182038867D01*
X52153231Y-182038867D01*
X52219552Y-181994552D01*
X52263867Y-181928231D01*
X52263867Y-181928229D01*
X52263868Y-181928229D01*
X52275499Y-181869752D01*
X52275500Y-181869750D01*
X52275500Y-181566048D01*
X52295185Y-181499009D01*
X52347989Y-181453254D01*
X52417147Y-181443310D01*
X52480703Y-181472335D01*
X52510938Y-181514264D01*
X52511694Y-181513879D01*
X52610375Y-181707550D01*
X52649728Y-181761716D01*
X53282037Y-181129408D01*
X53299075Y-181192993D01*
X53364901Y-181307007D01*
X53457993Y-181400099D01*
X53572007Y-181465925D01*
X53635590Y-181482962D01*
X53003282Y-182115269D01*
X53003282Y-182115270D01*
X53057449Y-182154624D01*
X53246782Y-182251095D01*
X53448870Y-182316757D01*
X53658754Y-182350000D01*
X53871246Y-182350000D01*
X54081127Y-182316757D01*
X54081130Y-182316757D01*
X54283217Y-182251095D01*
X54472554Y-182154622D01*
X54526716Y-182115270D01*
X54526717Y-182115270D01*
X53894408Y-181482962D01*
X53957993Y-181465925D01*
X54072007Y-181400099D01*
X54165099Y-181307007D01*
X54230925Y-181192993D01*
X54247962Y-181129409D01*
X54880270Y-181761717D01*
X54880270Y-181761716D01*
X54919622Y-181707554D01*
X55016095Y-181518217D01*
X55081757Y-181316130D01*
X55081757Y-181316127D01*
X55115000Y-181106246D01*
X55115000Y-180893753D01*
X55081757Y-180683872D01*
X55081757Y-180683869D01*
X55016095Y-180481782D01*
X54919624Y-180292449D01*
X54880270Y-180238282D01*
X54880269Y-180238282D01*
X54247962Y-180870590D01*
X54230925Y-180807007D01*
X54165099Y-180692993D01*
X54072007Y-180599901D01*
X53957993Y-180534075D01*
X53894409Y-180517037D01*
X54281198Y-180130247D01*
X57174500Y-180130247D01*
X57174500Y-181869752D01*
X57186131Y-181928229D01*
X57186132Y-181928230D01*
X57230447Y-181994552D01*
X57296769Y-182038867D01*
X57296770Y-182038868D01*
X57355247Y-182050499D01*
X57355250Y-182050500D01*
X57355252Y-182050500D01*
X59094750Y-182050500D01*
X59094751Y-182050499D01*
X59109568Y-182047552D01*
X59153229Y-182038868D01*
X59153229Y-182038867D01*
X59153231Y-182038867D01*
X59219552Y-181994552D01*
X59263867Y-181928231D01*
X59263867Y-181928229D01*
X59263868Y-181928229D01*
X59275499Y-181869752D01*
X59275500Y-181869750D01*
X59275500Y-181566048D01*
X59295185Y-181499009D01*
X59347989Y-181453254D01*
X59417147Y-181443310D01*
X59480703Y-181472335D01*
X59510938Y-181514264D01*
X59511694Y-181513879D01*
X59610375Y-181707550D01*
X59649728Y-181761716D01*
X60282037Y-181129408D01*
X60299075Y-181192993D01*
X60364901Y-181307007D01*
X60457993Y-181400099D01*
X60572007Y-181465925D01*
X60635590Y-181482962D01*
X60003282Y-182115269D01*
X60003282Y-182115270D01*
X60057449Y-182154624D01*
X60246782Y-182251095D01*
X60448870Y-182316757D01*
X60658754Y-182350000D01*
X60871246Y-182350000D01*
X61081127Y-182316757D01*
X61081130Y-182316757D01*
X61283217Y-182251095D01*
X61472554Y-182154622D01*
X61526716Y-182115270D01*
X61526717Y-182115270D01*
X60894408Y-181482962D01*
X60957993Y-181465925D01*
X61072007Y-181400099D01*
X61165099Y-181307007D01*
X61230925Y-181192993D01*
X61247962Y-181129408D01*
X61880270Y-181761717D01*
X61880270Y-181761716D01*
X61919622Y-181707554D01*
X62016095Y-181518217D01*
X62081757Y-181316130D01*
X62081757Y-181316127D01*
X62115000Y-181106246D01*
X62115000Y-180893753D01*
X62081757Y-180683872D01*
X62081757Y-180683869D01*
X62016095Y-180481782D01*
X61919624Y-180292449D01*
X61880270Y-180238282D01*
X61880269Y-180238282D01*
X61247962Y-180870590D01*
X61230925Y-180807007D01*
X61165099Y-180692993D01*
X61072007Y-180599901D01*
X60957993Y-180534075D01*
X60894409Y-180517037D01*
X61526716Y-179884728D01*
X61472550Y-179845375D01*
X61283217Y-179748904D01*
X61081129Y-179683242D01*
X60871246Y-179650000D01*
X60658754Y-179650000D01*
X60448872Y-179683242D01*
X60448869Y-179683242D01*
X60246782Y-179748904D01*
X60057439Y-179845380D01*
X60003282Y-179884727D01*
X60003282Y-179884728D01*
X60635591Y-180517037D01*
X60572007Y-180534075D01*
X60457993Y-180599901D01*
X60364901Y-180692993D01*
X60299075Y-180807007D01*
X60282037Y-180870591D01*
X59649728Y-180238282D01*
X59649727Y-180238282D01*
X59610380Y-180292439D01*
X59511694Y-180486121D01*
X59510678Y-180485603D01*
X59470212Y-180535813D01*
X59403916Y-180557872D01*
X59336218Y-180540588D01*
X59288612Y-180489447D01*
X59275500Y-180433951D01*
X59275500Y-180130249D01*
X59275499Y-180130247D01*
X59263868Y-180071770D01*
X59263867Y-180071769D01*
X59219552Y-180005447D01*
X59153230Y-179961132D01*
X59153229Y-179961131D01*
X59094752Y-179949500D01*
X59094748Y-179949500D01*
X57355252Y-179949500D01*
X57355247Y-179949500D01*
X57296770Y-179961131D01*
X57296769Y-179961132D01*
X57230447Y-180005447D01*
X57186132Y-180071769D01*
X57186131Y-180071770D01*
X57174500Y-180130247D01*
X54281198Y-180130247D01*
X54526716Y-179884728D01*
X54472550Y-179845375D01*
X54283217Y-179748904D01*
X54081129Y-179683242D01*
X53871246Y-179650000D01*
X53658754Y-179650000D01*
X53448872Y-179683242D01*
X53448869Y-179683242D01*
X53246782Y-179748904D01*
X53057439Y-179845380D01*
X53003282Y-179884727D01*
X53003282Y-179884728D01*
X53635591Y-180517037D01*
X53572007Y-180534075D01*
X53457993Y-180599901D01*
X53364901Y-180692993D01*
X53299075Y-180807007D01*
X53282037Y-180870591D01*
X52649728Y-180238282D01*
X52649727Y-180238282D01*
X52610380Y-180292439D01*
X52511694Y-180486121D01*
X52510678Y-180485603D01*
X52470212Y-180535813D01*
X52403916Y-180557872D01*
X52336218Y-180540588D01*
X52288612Y-180489447D01*
X52275500Y-180433951D01*
X52275500Y-180130249D01*
X52275499Y-180130247D01*
X52263868Y-180071770D01*
X52263867Y-180071769D01*
X52219552Y-180005447D01*
X52153230Y-179961132D01*
X52153229Y-179961131D01*
X52094752Y-179949500D01*
X52094748Y-179949500D01*
X50355252Y-179949500D01*
X50355247Y-179949500D01*
X50296770Y-179961131D01*
X50296769Y-179961132D01*
X50230447Y-180005447D01*
X50186132Y-180071769D01*
X50186131Y-180071770D01*
X50174500Y-180130247D01*
X47266198Y-180130247D01*
X47511716Y-179884728D01*
X47457550Y-179845375D01*
X47268217Y-179748904D01*
X47066129Y-179683242D01*
X46856246Y-179650000D01*
X46643754Y-179650000D01*
X46433872Y-179683242D01*
X46433869Y-179683242D01*
X46231782Y-179748904D01*
X46042439Y-179845380D01*
X45988282Y-179884727D01*
X45988282Y-179884728D01*
X46620591Y-180517037D01*
X46557007Y-180534075D01*
X46442993Y-180599901D01*
X46349901Y-180692993D01*
X46284075Y-180807007D01*
X46267037Y-180870591D01*
X45634728Y-180238282D01*
X45634727Y-180238282D01*
X45595380Y-180292439D01*
X45496694Y-180486121D01*
X45495678Y-180485603D01*
X45455212Y-180535813D01*
X45388916Y-180557872D01*
X45321218Y-180540588D01*
X45273612Y-180489447D01*
X45260500Y-180433951D01*
X45260500Y-180130249D01*
X45260499Y-180130247D01*
X45248868Y-180071770D01*
X45248867Y-180071769D01*
X45204552Y-180005447D01*
X45138230Y-179961132D01*
X45138229Y-179961131D01*
X45079752Y-179949500D01*
X45079748Y-179949500D01*
X43340252Y-179949500D01*
X43340247Y-179949500D01*
X43281770Y-179961131D01*
X43281769Y-179961132D01*
X43215447Y-180005447D01*
X43171132Y-180071769D01*
X43171131Y-180071770D01*
X43159500Y-180130247D01*
X38544734Y-180130247D01*
X38547666Y-180107975D01*
X38552498Y-180071265D01*
X38552500Y-180071248D01*
X38552500Y-179828751D01*
X38552498Y-179828735D01*
X38520846Y-179588312D01*
X38458078Y-179354060D01*
X38365279Y-179130021D01*
X38365272Y-179130007D01*
X38244022Y-178919996D01*
X38244017Y-178919989D01*
X38175437Y-178830614D01*
X38175436Y-178830614D01*
X37456614Y-179549436D01*
X37455760Y-179547374D01*
X37362738Y-179408156D01*
X37244344Y-179289762D01*
X37105126Y-179196740D01*
X37103060Y-179195884D01*
X37821884Y-178477061D01*
X37732510Y-178408481D01*
X37522491Y-178287226D01*
X37522478Y-178287220D01*
X37298439Y-178194421D01*
X37272233Y-178187399D01*
X45024500Y-178187399D01*
X45024500Y-178312601D01*
X45056905Y-178433536D01*
X45119505Y-178541964D01*
X45208036Y-178630495D01*
X45316464Y-178693095D01*
X45437399Y-178725500D01*
X45437401Y-178725500D01*
X45562599Y-178725500D01*
X45562601Y-178725500D01*
X45683536Y-178693095D01*
X45791964Y-178630495D01*
X45880495Y-178541964D01*
X45892612Y-178520975D01*
X45943179Y-178472760D01*
X46011786Y-178459536D01*
X46076651Y-178485504D01*
X46107388Y-178520976D01*
X46119503Y-178541962D01*
X46119505Y-178541964D01*
X46208036Y-178630495D01*
X46316464Y-178693095D01*
X46437399Y-178725500D01*
X46437401Y-178725500D01*
X46562599Y-178725500D01*
X46562601Y-178725500D01*
X46683536Y-178693095D01*
X46791964Y-178630495D01*
X46880495Y-178541964D01*
X46943095Y-178433536D01*
X46975500Y-178312601D01*
X46975500Y-178187399D01*
X46943095Y-178066464D01*
X46880495Y-177958036D01*
X46791964Y-177869505D01*
X46683536Y-177806905D01*
X46683537Y-177806905D01*
X46643224Y-177796103D01*
X46562601Y-177774500D01*
X46437399Y-177774500D01*
X46356775Y-177796103D01*
X46316463Y-177806905D01*
X46208037Y-177869504D01*
X46208034Y-177869506D01*
X46119504Y-177958036D01*
X46107387Y-177979025D01*
X46056820Y-178027240D01*
X45988212Y-178040462D01*
X45923348Y-178014494D01*
X45892613Y-177979025D01*
X45880495Y-177958036D01*
X45791965Y-177869506D01*
X45791964Y-177869505D01*
X45683536Y-177806905D01*
X45683537Y-177806905D01*
X45643224Y-177796103D01*
X45562601Y-177774500D01*
X45437399Y-177774500D01*
X45356775Y-177796103D01*
X45316463Y-177806905D01*
X45208037Y-177869504D01*
X45208034Y-177869506D01*
X45119506Y-177958034D01*
X45119504Y-177958037D01*
X45056905Y-178066463D01*
X45056905Y-178066464D01*
X45024500Y-178187399D01*
X37272233Y-178187399D01*
X37064187Y-178131653D01*
X36823764Y-178100001D01*
X36823748Y-178100000D01*
X36581252Y-178100000D01*
X36581235Y-178100001D01*
X36340812Y-178131653D01*
X36106560Y-178194421D01*
X35882521Y-178287220D01*
X35882506Y-178287227D01*
X35672490Y-178408480D01*
X35583114Y-178477060D01*
X35583114Y-178477061D01*
X36301938Y-179195885D01*
X36299874Y-179196740D01*
X36160656Y-179289762D01*
X36042262Y-179408156D01*
X35949240Y-179547374D01*
X35948385Y-179549438D01*
X35229561Y-178830614D01*
X35229560Y-178830614D01*
X35160980Y-178919990D01*
X35039727Y-179130006D01*
X35039720Y-179130021D01*
X34946921Y-179354060D01*
X34884153Y-179588312D01*
X34852501Y-179828735D01*
X34852500Y-179828751D01*
X34292999Y-179828751D01*
X34292999Y-178795736D01*
X34290146Y-178765302D01*
X34245293Y-178637118D01*
X34164650Y-178527850D01*
X34055382Y-178447207D01*
X34055381Y-178447206D01*
X33927195Y-178402353D01*
X33927198Y-178402353D01*
X33896768Y-178399500D01*
X31588241Y-178399500D01*
X31557801Y-178402354D01*
X31557800Y-178402354D01*
X31429618Y-178447206D01*
X31320350Y-178527850D01*
X31239706Y-178637118D01*
X31194853Y-178765302D01*
X31192000Y-178795731D01*
X30750500Y-178795731D01*
X30750500Y-175937399D01*
X42274500Y-175937399D01*
X42274500Y-176062601D01*
X42306905Y-176183536D01*
X42369505Y-176291964D01*
X42458036Y-176380495D01*
X42566464Y-176443095D01*
X42687399Y-176475500D01*
X42687401Y-176475500D01*
X42812599Y-176475500D01*
X42812601Y-176475500D01*
X42933536Y-176443095D01*
X43041964Y-176380495D01*
X43130495Y-176291964D01*
X43193095Y-176183536D01*
X43225500Y-176062601D01*
X43225500Y-175937399D01*
X43193095Y-175816464D01*
X43130495Y-175708036D01*
X43041964Y-175619505D01*
X42933536Y-175556905D01*
X42933537Y-175556905D01*
X42893224Y-175546103D01*
X42812601Y-175524500D01*
X42687399Y-175524500D01*
X42606775Y-175546103D01*
X42566463Y-175556905D01*
X42458037Y-175619504D01*
X42458034Y-175619506D01*
X42369506Y-175708034D01*
X42369504Y-175708037D01*
X42306905Y-175816463D01*
X42306905Y-175816464D01*
X42274500Y-175937399D01*
X30750500Y-175937399D01*
X30750500Y-174937399D01*
X48774500Y-174937399D01*
X48774500Y-175062601D01*
X48806905Y-175183536D01*
X48869505Y-175291964D01*
X48958036Y-175380495D01*
X49066464Y-175443095D01*
X49187399Y-175475500D01*
X49187401Y-175475500D01*
X49312599Y-175475500D01*
X49312601Y-175475500D01*
X49433536Y-175443095D01*
X49541964Y-175380495D01*
X49630495Y-175291964D01*
X49693095Y-175183536D01*
X49725500Y-175062601D01*
X49725500Y-174937399D01*
X49718568Y-174911530D01*
X55949500Y-174911530D01*
X55949500Y-175118469D01*
X55989868Y-175321412D01*
X55989870Y-175321420D01*
X56069058Y-175512596D01*
X56184024Y-175684657D01*
X56330342Y-175830975D01*
X56330345Y-175830977D01*
X56502402Y-175945941D01*
X56693580Y-176025130D01*
X56881951Y-176062599D01*
X56896530Y-176065499D01*
X56896534Y-176065500D01*
X56896535Y-176065500D01*
X57103466Y-176065500D01*
X57103467Y-176065499D01*
X57306420Y-176025130D01*
X57497598Y-175945941D01*
X57669655Y-175830977D01*
X57815977Y-175684655D01*
X57930941Y-175512598D01*
X58010130Y-175321420D01*
X58050500Y-175118465D01*
X58050500Y-174911535D01*
X58010130Y-174708580D01*
X57930941Y-174517402D01*
X57815977Y-174345345D01*
X57815975Y-174345342D01*
X57669657Y-174199024D01*
X57583626Y-174141541D01*
X57497598Y-174084059D01*
X57306420Y-174004870D01*
X57306412Y-174004868D01*
X57103469Y-173964500D01*
X57103465Y-173964500D01*
X56896535Y-173964500D01*
X56896530Y-173964500D01*
X56693587Y-174004868D01*
X56693579Y-174004870D01*
X56502403Y-174084058D01*
X56330342Y-174199024D01*
X56184024Y-174345342D01*
X56069058Y-174517403D01*
X55989870Y-174708579D01*
X55989868Y-174708587D01*
X55949500Y-174911530D01*
X49718568Y-174911530D01*
X49693095Y-174816464D01*
X49630495Y-174708036D01*
X49541964Y-174619505D01*
X49433536Y-174556905D01*
X49433537Y-174556905D01*
X49393224Y-174546103D01*
X49312601Y-174524500D01*
X49187399Y-174524500D01*
X49106775Y-174546103D01*
X49066463Y-174556905D01*
X48958037Y-174619504D01*
X48958034Y-174619506D01*
X48869506Y-174708034D01*
X48869504Y-174708037D01*
X48806905Y-174816463D01*
X48806905Y-174816464D01*
X48774500Y-174937399D01*
X30750500Y-174937399D01*
X30750500Y-171937399D01*
X48023500Y-171937399D01*
X48023500Y-172062601D01*
X48055905Y-172183536D01*
X48118505Y-172291964D01*
X48207036Y-172380495D01*
X48315464Y-172443095D01*
X48436399Y-172475500D01*
X48436401Y-172475500D01*
X48561599Y-172475500D01*
X48561601Y-172475500D01*
X48682536Y-172443095D01*
X48790964Y-172380495D01*
X48879495Y-172291964D01*
X48942095Y-172183536D01*
X48974500Y-172062601D01*
X48974500Y-171937399D01*
X48942095Y-171816464D01*
X48879495Y-171708036D01*
X48790964Y-171619505D01*
X48766268Y-171605247D01*
X55949500Y-171605247D01*
X55949500Y-173344752D01*
X55961131Y-173403229D01*
X55961132Y-173403230D01*
X56005447Y-173469552D01*
X56071769Y-173513867D01*
X56071770Y-173513868D01*
X56130247Y-173525499D01*
X56130250Y-173525500D01*
X56130252Y-173525500D01*
X57869750Y-173525500D01*
X57869751Y-173525499D01*
X57884568Y-173522552D01*
X57928229Y-173513868D01*
X57928229Y-173513867D01*
X57928231Y-173513867D01*
X57994552Y-173469552D01*
X58038867Y-173403231D01*
X58038867Y-173403229D01*
X58038868Y-173403229D01*
X58050499Y-173344752D01*
X58050500Y-173344750D01*
X58050500Y-171605249D01*
X58050499Y-171605247D01*
X58038868Y-171546770D01*
X58038867Y-171546769D01*
X57994552Y-171480447D01*
X57928230Y-171436132D01*
X57928229Y-171436131D01*
X57869752Y-171424500D01*
X57869748Y-171424500D01*
X56130252Y-171424500D01*
X56130247Y-171424500D01*
X56071770Y-171436131D01*
X56071769Y-171436132D01*
X56005447Y-171480447D01*
X55961132Y-171546769D01*
X55961131Y-171546770D01*
X55949500Y-171605247D01*
X48766268Y-171605247D01*
X48682536Y-171556905D01*
X48682537Y-171556905D01*
X48642224Y-171546103D01*
X48561601Y-171524500D01*
X48436399Y-171524500D01*
X48355775Y-171546103D01*
X48315463Y-171556905D01*
X48207037Y-171619504D01*
X48207034Y-171619506D01*
X48118506Y-171708034D01*
X48118504Y-171708037D01*
X48055905Y-171816463D01*
X48055905Y-171816464D01*
X48023500Y-171937399D01*
X30750500Y-171937399D01*
X30750500Y-170437399D01*
X46024500Y-170437399D01*
X46024500Y-170562601D01*
X46056905Y-170683536D01*
X46119505Y-170791964D01*
X46208036Y-170880495D01*
X46316464Y-170943095D01*
X46437399Y-170975500D01*
X46437401Y-170975500D01*
X46562599Y-170975500D01*
X46562601Y-170975500D01*
X46683536Y-170943095D01*
X46791964Y-170880495D01*
X46880495Y-170791964D01*
X46943095Y-170683536D01*
X46975500Y-170562601D01*
X46975500Y-170437399D01*
X48024500Y-170437399D01*
X48024500Y-170562601D01*
X48056905Y-170683536D01*
X48119505Y-170791964D01*
X48208036Y-170880495D01*
X48316464Y-170943095D01*
X48437399Y-170975500D01*
X48437401Y-170975500D01*
X48562599Y-170975500D01*
X48562601Y-170975500D01*
X48683536Y-170943095D01*
X48791964Y-170880495D01*
X48880495Y-170791964D01*
X48940865Y-170687399D01*
X50774500Y-170687399D01*
X50774500Y-170812601D01*
X50806905Y-170933536D01*
X50869505Y-171041964D01*
X50958036Y-171130495D01*
X51066464Y-171193095D01*
X51187399Y-171225500D01*
X51187401Y-171225500D01*
X51312599Y-171225500D01*
X51312601Y-171225500D01*
X51433536Y-171193095D01*
X51541964Y-171130495D01*
X51630495Y-171041964D01*
X51693095Y-170933536D01*
X51725500Y-170812601D01*
X51725500Y-170687399D01*
X51693095Y-170566464D01*
X51630495Y-170458036D01*
X51541964Y-170369505D01*
X51433536Y-170306905D01*
X51433537Y-170306905D01*
X51389107Y-170295000D01*
X51312601Y-170274500D01*
X51187399Y-170274500D01*
X51110893Y-170295000D01*
X51066463Y-170306905D01*
X50958037Y-170369504D01*
X50958034Y-170369506D01*
X50869506Y-170458034D01*
X50869504Y-170458037D01*
X50806905Y-170566463D01*
X50806905Y-170566464D01*
X50774500Y-170687399D01*
X48940865Y-170687399D01*
X48943095Y-170683536D01*
X48975500Y-170562601D01*
X48975500Y-170437399D01*
X48943095Y-170316464D01*
X48880495Y-170208036D01*
X48791964Y-170119505D01*
X48683536Y-170056905D01*
X48683537Y-170056905D01*
X48643224Y-170046103D01*
X48562601Y-170024500D01*
X48437399Y-170024500D01*
X48356775Y-170046103D01*
X48316463Y-170056905D01*
X48208037Y-170119504D01*
X48208034Y-170119506D01*
X48119506Y-170208034D01*
X48119504Y-170208037D01*
X48056905Y-170316463D01*
X48056905Y-170316464D01*
X48024500Y-170437399D01*
X46975500Y-170437399D01*
X46943095Y-170316464D01*
X46880495Y-170208036D01*
X46791964Y-170119505D01*
X46683536Y-170056905D01*
X46683537Y-170056905D01*
X46643224Y-170046103D01*
X46562601Y-170024500D01*
X46437399Y-170024500D01*
X46356775Y-170046103D01*
X46316463Y-170056905D01*
X46208037Y-170119504D01*
X46208034Y-170119506D01*
X46119506Y-170208034D01*
X46119504Y-170208037D01*
X46056905Y-170316463D01*
X46056905Y-170316464D01*
X46024500Y-170437399D01*
X30750500Y-170437399D01*
X30750500Y-169437399D01*
X43274500Y-169437399D01*
X43274500Y-169562601D01*
X43306905Y-169683536D01*
X43369505Y-169791964D01*
X43458036Y-169880495D01*
X43566464Y-169943095D01*
X43687399Y-169975500D01*
X43687401Y-169975500D01*
X43812599Y-169975500D01*
X43812601Y-169975500D01*
X43933536Y-169943095D01*
X44041964Y-169880495D01*
X44130495Y-169791964D01*
X44193095Y-169683536D01*
X44225500Y-169562601D01*
X44225500Y-169437399D01*
X44193095Y-169316464D01*
X44130495Y-169208036D01*
X44041964Y-169119505D01*
X43933536Y-169056905D01*
X43933537Y-169056905D01*
X43893224Y-169046103D01*
X43812601Y-169024500D01*
X43687399Y-169024500D01*
X43606775Y-169046103D01*
X43566463Y-169056905D01*
X43458037Y-169119504D01*
X43458034Y-169119506D01*
X43369506Y-169208034D01*
X43369504Y-169208037D01*
X43306905Y-169316463D01*
X43306905Y-169316464D01*
X43274500Y-169437399D01*
X30750500Y-169437399D01*
X30750500Y-166630247D01*
X31949500Y-166630247D01*
X31949500Y-168369752D01*
X31961131Y-168428229D01*
X31961132Y-168428230D01*
X32005447Y-168494552D01*
X32071769Y-168538867D01*
X32071770Y-168538868D01*
X32130247Y-168550499D01*
X32130250Y-168550500D01*
X32130252Y-168550500D01*
X33869750Y-168550500D01*
X33869751Y-168550499D01*
X33884568Y-168547552D01*
X33928229Y-168538868D01*
X33928229Y-168538867D01*
X33928231Y-168538867D01*
X33994552Y-168494552D01*
X34038867Y-168428231D01*
X34038867Y-168428229D01*
X34038868Y-168428229D01*
X34050499Y-168369752D01*
X34050500Y-168369750D01*
X34050500Y-167152553D01*
X47165040Y-167152553D01*
X47165040Y-167277755D01*
X47197445Y-167398690D01*
X47260045Y-167507118D01*
X47348576Y-167595649D01*
X47457004Y-167658249D01*
X47577939Y-167690654D01*
X47577941Y-167690654D01*
X47703139Y-167690654D01*
X47703141Y-167690654D01*
X47824076Y-167658249D01*
X47932504Y-167595649D01*
X47991590Y-167536563D01*
X48052913Y-167503078D01*
X48122605Y-167508062D01*
X48166952Y-167536563D01*
X48241877Y-167611488D01*
X48350305Y-167674088D01*
X48471240Y-167706493D01*
X48471242Y-167706493D01*
X48596440Y-167706493D01*
X48596442Y-167706493D01*
X48717377Y-167674088D01*
X48825805Y-167611488D01*
X48864301Y-167572991D01*
X48925622Y-167539507D01*
X48995313Y-167544491D01*
X49039662Y-167572992D01*
X49093997Y-167627327D01*
X49202425Y-167689927D01*
X49323360Y-167722332D01*
X49323362Y-167722332D01*
X49448560Y-167722332D01*
X49448562Y-167722332D01*
X49569497Y-167689927D01*
X49677925Y-167627327D01*
X49718072Y-167587179D01*
X49779393Y-167553695D01*
X49849084Y-167558679D01*
X49893433Y-167587180D01*
X49926412Y-167620159D01*
X50034840Y-167682759D01*
X50155775Y-167715164D01*
X50155777Y-167715164D01*
X50280975Y-167715164D01*
X50280977Y-167715164D01*
X50401912Y-167682759D01*
X50510340Y-167620159D01*
X50598871Y-167531628D01*
X50653273Y-167437399D01*
X53274500Y-167437399D01*
X53274500Y-167562601D01*
X53306905Y-167683536D01*
X53369505Y-167791964D01*
X53458036Y-167880495D01*
X53566464Y-167943095D01*
X53687399Y-167975500D01*
X53687401Y-167975500D01*
X53812599Y-167975500D01*
X53812601Y-167975500D01*
X53933536Y-167943095D01*
X54041964Y-167880495D01*
X54130495Y-167791964D01*
X54193095Y-167683536D01*
X54225500Y-167562601D01*
X54225500Y-167437399D01*
X54193095Y-167316464D01*
X54130495Y-167208036D01*
X54041964Y-167119505D01*
X53933536Y-167056905D01*
X53933537Y-167056905D01*
X53893224Y-167046103D01*
X53812601Y-167024500D01*
X53687399Y-167024500D01*
X53606775Y-167046103D01*
X53566463Y-167056905D01*
X53458037Y-167119504D01*
X53458034Y-167119506D01*
X53369506Y-167208034D01*
X53369504Y-167208037D01*
X53306905Y-167316463D01*
X53306905Y-167316464D01*
X53274500Y-167437399D01*
X50653273Y-167437399D01*
X50661471Y-167423200D01*
X50693876Y-167302265D01*
X50693876Y-167177063D01*
X50661471Y-167056128D01*
X50598871Y-166947700D01*
X50510340Y-166859169D01*
X50401912Y-166796569D01*
X50401913Y-166796569D01*
X50361600Y-166785767D01*
X50280977Y-166764164D01*
X50155775Y-166764164D01*
X50075151Y-166785767D01*
X50034839Y-166796569D01*
X49926413Y-166859168D01*
X49926410Y-166859170D01*
X49886264Y-166899316D01*
X49824941Y-166932800D01*
X49755249Y-166927815D01*
X49710903Y-166899315D01*
X49677926Y-166866338D01*
X49677925Y-166866337D01*
X49569497Y-166803737D01*
X49569498Y-166803737D01*
X49510386Y-166787898D01*
X49448562Y-166771332D01*
X49323360Y-166771332D01*
X49261536Y-166787898D01*
X49202424Y-166803737D01*
X49093998Y-166866336D01*
X49093995Y-166866338D01*
X49055500Y-166904833D01*
X48994177Y-166938318D01*
X48924485Y-166933332D01*
X48880139Y-166904832D01*
X48825806Y-166850499D01*
X48825805Y-166850498D01*
X48717377Y-166787898D01*
X48717378Y-166787898D01*
X48658266Y-166772059D01*
X48596442Y-166755493D01*
X48471240Y-166755493D01*
X48409416Y-166772059D01*
X48350304Y-166787898D01*
X48241878Y-166850497D01*
X48241875Y-166850499D01*
X48182791Y-166909584D01*
X48121468Y-166943069D01*
X48051776Y-166938085D01*
X48007429Y-166909584D01*
X47932505Y-166834660D01*
X47932504Y-166834659D01*
X47824076Y-166772059D01*
X47824077Y-166772059D01*
X47783764Y-166761257D01*
X47703141Y-166739654D01*
X47577939Y-166739654D01*
X47497315Y-166761257D01*
X47457003Y-166772059D01*
X47348577Y-166834658D01*
X47348574Y-166834660D01*
X47260046Y-166923188D01*
X47260044Y-166923191D01*
X47197445Y-167031617D01*
X47190878Y-167056127D01*
X47165040Y-167152553D01*
X34050500Y-167152553D01*
X34050500Y-166630249D01*
X34050499Y-166630247D01*
X34038868Y-166571770D01*
X34038867Y-166571769D01*
X33994552Y-166505447D01*
X33928230Y-166461132D01*
X33928229Y-166461131D01*
X33869752Y-166449500D01*
X33869748Y-166449500D01*
X32130252Y-166449500D01*
X32130247Y-166449500D01*
X32071770Y-166461131D01*
X32071769Y-166461132D01*
X32005447Y-166505447D01*
X31961132Y-166571769D01*
X31961131Y-166571770D01*
X31949500Y-166630247D01*
X30750500Y-166630247D01*
X30750500Y-166187399D01*
X43524500Y-166187399D01*
X43524500Y-166312601D01*
X43556905Y-166433536D01*
X43619505Y-166541964D01*
X43708036Y-166630495D01*
X43816464Y-166693095D01*
X43937399Y-166725500D01*
X43937401Y-166725500D01*
X44062599Y-166725500D01*
X44062601Y-166725500D01*
X44183536Y-166693095D01*
X44291964Y-166630495D01*
X44380495Y-166541964D01*
X44443095Y-166433536D01*
X44475500Y-166312601D01*
X44475500Y-166187399D01*
X44443095Y-166066464D01*
X44380495Y-165958036D01*
X44291964Y-165869505D01*
X44183536Y-165806905D01*
X44183537Y-165806905D01*
X44143224Y-165796103D01*
X44062601Y-165774500D01*
X43937399Y-165774500D01*
X43856775Y-165796103D01*
X43816463Y-165806905D01*
X43708037Y-165869504D01*
X43708034Y-165869506D01*
X43619506Y-165958034D01*
X43619504Y-165958037D01*
X43556905Y-166066463D01*
X43556905Y-166066464D01*
X43524500Y-166187399D01*
X30750500Y-166187399D01*
X30750500Y-165187399D01*
X44524500Y-165187399D01*
X44524500Y-165312601D01*
X44556905Y-165433536D01*
X44619505Y-165541964D01*
X44708036Y-165630495D01*
X44816464Y-165693095D01*
X44937399Y-165725500D01*
X44937401Y-165725500D01*
X45062599Y-165725500D01*
X45062601Y-165725500D01*
X45183536Y-165693095D01*
X45291964Y-165630495D01*
X45380495Y-165541964D01*
X45443095Y-165433536D01*
X45451368Y-165402661D01*
X45483460Y-165347073D01*
X46433717Y-164396817D01*
X46495040Y-164363332D01*
X46521398Y-164360498D01*
X47776783Y-164360498D01*
X47838781Y-164377110D01*
X47862673Y-164390903D01*
X47866466Y-164393093D01*
X47987401Y-164425498D01*
X47987403Y-164425498D01*
X48112601Y-164425498D01*
X48112603Y-164425498D01*
X48233538Y-164393093D01*
X48341966Y-164330493D01*
X48412319Y-164260140D01*
X48420264Y-164255801D01*
X48425690Y-164248554D01*
X48450449Y-164239319D01*
X48473642Y-164226655D01*
X48482671Y-164227300D01*
X48491154Y-164224137D01*
X48516974Y-164229753D01*
X48543334Y-164231639D01*
X48552387Y-164237457D01*
X48559427Y-164238989D01*
X48587681Y-164260140D01*
X48637436Y-164309895D01*
X48670921Y-164371218D01*
X48665937Y-164440910D01*
X48637436Y-164485257D01*
X48568320Y-164554372D01*
X48568318Y-164554375D01*
X48505719Y-164662801D01*
X48505719Y-164662802D01*
X48473314Y-164783737D01*
X48473314Y-164908939D01*
X48505719Y-165029874D01*
X48568319Y-165138302D01*
X48656850Y-165226833D01*
X48765278Y-165289433D01*
X48886213Y-165321838D01*
X48886215Y-165321838D01*
X49011413Y-165321838D01*
X49011415Y-165321838D01*
X49132350Y-165289433D01*
X49240778Y-165226833D01*
X49329309Y-165138302D01*
X49391909Y-165029874D01*
X49424314Y-164908939D01*
X49424314Y-164783737D01*
X49391909Y-164662802D01*
X49329309Y-164554374D01*
X49329308Y-164554373D01*
X49325245Y-164547335D01*
X49328095Y-164545689D01*
X49308425Y-164494865D01*
X49322437Y-164426415D01*
X49371231Y-164376406D01*
X49431991Y-164360500D01*
X52978603Y-164360500D01*
X53045642Y-164380185D01*
X53066284Y-164396819D01*
X53266537Y-164597071D01*
X53298630Y-164652656D01*
X53301349Y-164662801D01*
X53306905Y-164683536D01*
X53369505Y-164791964D01*
X53458036Y-164880495D01*
X53566464Y-164943095D01*
X53687399Y-164975500D01*
X53687401Y-164975500D01*
X53812599Y-164975500D01*
X53812601Y-164975500D01*
X53933536Y-164943095D01*
X54041964Y-164880495D01*
X54130495Y-164791964D01*
X54193095Y-164683536D01*
X54225500Y-164562601D01*
X54225500Y-164437399D01*
X54193095Y-164316464D01*
X54130495Y-164208036D01*
X54041964Y-164119505D01*
X53933536Y-164056905D01*
X53933533Y-164056904D01*
X53902656Y-164048630D01*
X53847071Y-164016537D01*
X53452054Y-163621519D01*
X53452046Y-163621513D01*
X53358453Y-163567478D01*
X53358450Y-163567476D01*
X53358447Y-163567475D01*
X53254043Y-163539500D01*
X53254041Y-163539500D01*
X49534500Y-163539500D01*
X49525814Y-163536949D01*
X49516853Y-163538238D01*
X49492812Y-163527259D01*
X49467461Y-163519815D01*
X49461533Y-163512974D01*
X49453297Y-163509213D01*
X49439007Y-163486978D01*
X49421706Y-163467011D01*
X49419418Y-163456496D01*
X49415523Y-163450435D01*
X49410500Y-163415500D01*
X49410500Y-163384906D01*
X49414725Y-163352812D01*
X49425500Y-163312601D01*
X49425500Y-163187399D01*
X49414725Y-163147186D01*
X49410500Y-163115093D01*
X49410500Y-162937399D01*
X55274500Y-162937399D01*
X55274500Y-163062601D01*
X55306905Y-163183536D01*
X55369505Y-163291964D01*
X55369507Y-163291966D01*
X55374451Y-163298409D01*
X55371959Y-163300320D01*
X55398345Y-163348642D01*
X55393361Y-163418334D01*
X55372801Y-163450324D01*
X55374451Y-163451591D01*
X55369504Y-163458037D01*
X55306906Y-163566462D01*
X55306905Y-163566462D01*
X55292153Y-163621517D01*
X55274500Y-163687399D01*
X55274500Y-163812601D01*
X55306905Y-163933536D01*
X55369505Y-164041964D01*
X55458036Y-164130495D01*
X55566464Y-164193095D01*
X55687399Y-164225500D01*
X55687401Y-164225500D01*
X55812599Y-164225500D01*
X55812601Y-164225500D01*
X55933536Y-164193095D01*
X56041964Y-164130495D01*
X56130495Y-164041964D01*
X56142612Y-164020975D01*
X56193179Y-163972760D01*
X56261786Y-163959536D01*
X56326651Y-163985504D01*
X56357388Y-164020976D01*
X56369503Y-164041962D01*
X56369505Y-164041964D01*
X56458036Y-164130495D01*
X56566464Y-164193095D01*
X56687399Y-164225500D01*
X56687401Y-164225500D01*
X56812599Y-164225500D01*
X56812601Y-164225500D01*
X56933536Y-164193095D01*
X57041964Y-164130495D01*
X57130495Y-164041964D01*
X57142612Y-164020975D01*
X57193179Y-163972760D01*
X57261786Y-163959536D01*
X57326651Y-163985504D01*
X57357388Y-164020976D01*
X57369503Y-164041962D01*
X57369505Y-164041964D01*
X57458036Y-164130495D01*
X57566464Y-164193095D01*
X57687399Y-164225500D01*
X57687401Y-164225500D01*
X57812599Y-164225500D01*
X57812601Y-164225500D01*
X57933536Y-164193095D01*
X58041964Y-164130495D01*
X58130495Y-164041964D01*
X58142612Y-164020975D01*
X58193179Y-163972760D01*
X58261786Y-163959536D01*
X58326651Y-163985504D01*
X58357388Y-164020976D01*
X58369503Y-164041962D01*
X58369505Y-164041964D01*
X58458036Y-164130495D01*
X58566464Y-164193095D01*
X58687399Y-164225500D01*
X58687401Y-164225500D01*
X58812599Y-164225500D01*
X58812601Y-164225500D01*
X58933536Y-164193095D01*
X59041964Y-164130495D01*
X59130495Y-164041964D01*
X59142612Y-164020975D01*
X59193179Y-163972760D01*
X59261786Y-163959536D01*
X59326651Y-163985504D01*
X59357388Y-164020976D01*
X59369503Y-164041962D01*
X59369505Y-164041964D01*
X59458036Y-164130495D01*
X59566464Y-164193095D01*
X59687399Y-164225500D01*
X59687401Y-164225500D01*
X59812599Y-164225500D01*
X59812601Y-164225500D01*
X59933536Y-164193095D01*
X60041964Y-164130495D01*
X60130495Y-164041964D01*
X60142612Y-164020975D01*
X60193179Y-163972760D01*
X60261786Y-163959536D01*
X60326651Y-163985504D01*
X60357388Y-164020976D01*
X60369503Y-164041962D01*
X60369505Y-164041964D01*
X60458036Y-164130495D01*
X60566464Y-164193095D01*
X60687399Y-164225500D01*
X60687401Y-164225500D01*
X60812599Y-164225500D01*
X60812601Y-164225500D01*
X60933536Y-164193095D01*
X61041964Y-164130495D01*
X61130495Y-164041964D01*
X61193095Y-163933536D01*
X61225500Y-163812601D01*
X61225500Y-163687399D01*
X61193095Y-163566464D01*
X61130495Y-163458036D01*
X61130491Y-163458032D01*
X61125549Y-163451591D01*
X61128040Y-163449679D01*
X61101655Y-163401358D01*
X61106639Y-163331666D01*
X61127198Y-163299675D01*
X61125549Y-163298409D01*
X61130488Y-163291970D01*
X61130495Y-163291964D01*
X61193095Y-163183536D01*
X61225500Y-163062601D01*
X61225500Y-162937399D01*
X61193095Y-162816464D01*
X61130495Y-162708036D01*
X61130491Y-162708032D01*
X61125549Y-162701591D01*
X61128040Y-162699679D01*
X61101655Y-162651358D01*
X61106639Y-162581666D01*
X61127198Y-162549675D01*
X61125549Y-162548409D01*
X61130488Y-162541970D01*
X61130495Y-162541964D01*
X61193095Y-162433536D01*
X61225500Y-162312601D01*
X61225500Y-162187399D01*
X61193095Y-162066464D01*
X61130495Y-161958036D01*
X61041964Y-161869505D01*
X60933536Y-161806905D01*
X60933537Y-161806905D01*
X60893224Y-161796103D01*
X60812601Y-161774500D01*
X60687399Y-161774500D01*
X60606775Y-161796103D01*
X60566463Y-161806905D01*
X60458037Y-161869504D01*
X60458034Y-161869506D01*
X60369506Y-161958034D01*
X60369504Y-161958037D01*
X60306905Y-162066463D01*
X60306905Y-162066464D01*
X60274500Y-162187399D01*
X60274500Y-162312601D01*
X60306905Y-162433536D01*
X60369505Y-162541964D01*
X60369507Y-162541966D01*
X60374451Y-162548409D01*
X60371959Y-162550320D01*
X60398345Y-162598642D01*
X60393361Y-162668334D01*
X60381300Y-162692340D01*
X60374157Y-162703383D01*
X60369505Y-162708036D01*
X60355833Y-162731716D01*
X60354121Y-162734364D01*
X60329940Y-162755194D01*
X60306820Y-162777240D01*
X60303638Y-162777853D01*
X60301185Y-162779967D01*
X60269562Y-162784420D01*
X60238212Y-162790462D01*
X60235205Y-162789258D01*
X60231999Y-162789710D01*
X60202992Y-162776362D01*
X60173348Y-162764494D01*
X60170791Y-162761544D01*
X60168527Y-162760502D01*
X60164711Y-162754527D01*
X60142613Y-162729025D01*
X60130495Y-162708036D01*
X60041965Y-162619506D01*
X60041964Y-162619505D01*
X59933536Y-162556905D01*
X59933537Y-162556905D01*
X59877769Y-162541962D01*
X59812601Y-162524500D01*
X59687399Y-162524500D01*
X59622231Y-162541962D01*
X59566463Y-162556905D01*
X59458037Y-162619504D01*
X59458034Y-162619506D01*
X59369504Y-162708036D01*
X59357387Y-162729025D01*
X59306820Y-162777240D01*
X59238212Y-162790462D01*
X59173348Y-162764494D01*
X59142613Y-162729025D01*
X59130495Y-162708036D01*
X59041965Y-162619506D01*
X59041964Y-162619505D01*
X58933536Y-162556905D01*
X58933537Y-162556905D01*
X58877769Y-162541962D01*
X58812601Y-162524500D01*
X58687399Y-162524500D01*
X58622231Y-162541962D01*
X58566463Y-162556905D01*
X58458037Y-162619504D01*
X58458034Y-162619506D01*
X58369504Y-162708036D01*
X58357387Y-162729025D01*
X58306820Y-162777240D01*
X58238212Y-162790462D01*
X58173348Y-162764494D01*
X58142613Y-162729025D01*
X58130495Y-162708036D01*
X58041965Y-162619506D01*
X58041964Y-162619505D01*
X57933536Y-162556905D01*
X57933537Y-162556905D01*
X57877769Y-162541962D01*
X57812601Y-162524500D01*
X57687399Y-162524500D01*
X57622231Y-162541962D01*
X57566463Y-162556905D01*
X57458037Y-162619504D01*
X57458034Y-162619506D01*
X57369504Y-162708036D01*
X57357387Y-162729025D01*
X57306820Y-162777240D01*
X57238212Y-162790462D01*
X57173348Y-162764494D01*
X57142613Y-162729025D01*
X57130495Y-162708036D01*
X57041965Y-162619506D01*
X57041964Y-162619505D01*
X56933536Y-162556905D01*
X56933537Y-162556905D01*
X56877769Y-162541962D01*
X56812601Y-162524500D01*
X56687399Y-162524500D01*
X56622231Y-162541962D01*
X56566463Y-162556905D01*
X56458037Y-162619504D01*
X56458034Y-162619506D01*
X56369504Y-162708036D01*
X56357387Y-162729025D01*
X56306820Y-162777240D01*
X56238212Y-162790462D01*
X56173348Y-162764494D01*
X56142613Y-162729025D01*
X56130495Y-162708036D01*
X56041965Y-162619506D01*
X56041964Y-162619505D01*
X55933536Y-162556905D01*
X55933537Y-162556905D01*
X55877769Y-162541962D01*
X55812601Y-162524500D01*
X55687399Y-162524500D01*
X55622231Y-162541962D01*
X55566463Y-162556905D01*
X55458037Y-162619504D01*
X55458034Y-162619506D01*
X55369506Y-162708034D01*
X55369504Y-162708037D01*
X55306905Y-162816463D01*
X55306905Y-162816464D01*
X55274500Y-162937399D01*
X49410500Y-162937399D01*
X49410500Y-159792108D01*
X49430185Y-159725069D01*
X49446819Y-159704427D01*
X50454427Y-158696819D01*
X50515750Y-158663334D01*
X50542108Y-158660500D01*
X50565056Y-158660500D01*
X50629292Y-158647721D01*
X50692661Y-158635117D01*
X50812864Y-158585328D01*
X50921044Y-158513044D01*
X51013044Y-158421044D01*
X51085328Y-158312864D01*
X51135117Y-158192661D01*
X51160500Y-158065054D01*
X51160500Y-155184946D01*
X51160500Y-155184943D01*
X51135118Y-155057345D01*
X51135117Y-155057339D01*
X51085328Y-154937136D01*
X51013044Y-154828956D01*
X51013041Y-154828952D01*
X50921047Y-154736958D01*
X50921043Y-154736955D01*
X50812866Y-154664673D01*
X50812864Y-154664672D01*
X50692662Y-154614883D01*
X50692654Y-154614881D01*
X50565056Y-154589500D01*
X50565054Y-154589500D01*
X50434946Y-154589500D01*
X50434944Y-154589500D01*
X50307345Y-154614881D01*
X50307337Y-154614883D01*
X50187135Y-154664672D01*
X50187133Y-154664673D01*
X50078956Y-154736955D01*
X50078952Y-154736958D01*
X49986958Y-154828952D01*
X49986955Y-154828956D01*
X49914673Y-154937133D01*
X49914672Y-154937135D01*
X49864883Y-155057337D01*
X49864881Y-155057345D01*
X49839500Y-155184943D01*
X49839500Y-157957892D01*
X49819815Y-158024931D01*
X49803181Y-158045573D01*
X48587681Y-159261073D01*
X48579735Y-159265411D01*
X48574310Y-159272659D01*
X48549550Y-159281893D01*
X48526358Y-159294558D01*
X48517328Y-159293912D01*
X48508846Y-159297076D01*
X48483025Y-159291459D01*
X48456666Y-159289574D01*
X48447612Y-159283755D01*
X48440573Y-159282224D01*
X48412319Y-159261073D01*
X48332754Y-159181508D01*
X48278435Y-159127188D01*
X48278412Y-159127167D01*
X47196819Y-158045573D01*
X47163334Y-157984250D01*
X47160500Y-157957892D01*
X47160500Y-155184943D01*
X47135118Y-155057345D01*
X47135117Y-155057339D01*
X47085328Y-154937136D01*
X47013044Y-154828956D01*
X47013041Y-154828952D01*
X46921047Y-154736958D01*
X46921043Y-154736955D01*
X46812866Y-154664673D01*
X46812864Y-154664672D01*
X46692662Y-154614883D01*
X46692654Y-154614881D01*
X46565056Y-154589500D01*
X46565054Y-154589500D01*
X46434946Y-154589500D01*
X46434944Y-154589500D01*
X46307345Y-154614881D01*
X46307337Y-154614883D01*
X46187135Y-154664672D01*
X46187133Y-154664673D01*
X46078956Y-154736955D01*
X46078952Y-154736958D01*
X45986958Y-154828952D01*
X45986955Y-154828956D01*
X45914673Y-154937133D01*
X45914672Y-154937135D01*
X45864883Y-155057337D01*
X45864881Y-155057345D01*
X45839500Y-155184943D01*
X45839500Y-155184946D01*
X45839500Y-158065054D01*
X45839500Y-158065056D01*
X45839499Y-158065056D01*
X45864881Y-158192654D01*
X45864883Y-158192662D01*
X45914672Y-158312864D01*
X45914673Y-158312866D01*
X45986955Y-158421043D01*
X45986958Y-158421047D01*
X46078952Y-158513041D01*
X46078956Y-158513044D01*
X46187136Y-158585328D01*
X46307339Y-158635117D01*
X46338587Y-158641332D01*
X46434943Y-158660500D01*
X46434946Y-158660500D01*
X46457892Y-158660500D01*
X46524931Y-158680185D01*
X46545573Y-158696819D01*
X47553183Y-159704428D01*
X47586668Y-159765751D01*
X47589502Y-159792109D01*
X47589502Y-163115093D01*
X47585277Y-163147186D01*
X47574502Y-163187399D01*
X47574502Y-163312601D01*
X47585277Y-163352812D01*
X47589502Y-163384906D01*
X47589502Y-163415498D01*
X47569817Y-163482537D01*
X47517013Y-163528292D01*
X47465502Y-163539498D01*
X46245958Y-163539498D01*
X46145323Y-163566463D01*
X46145322Y-163566462D01*
X46141556Y-163567472D01*
X46141552Y-163567473D01*
X46047955Y-163621511D01*
X46047947Y-163621517D01*
X45971518Y-163697947D01*
X44902925Y-164766538D01*
X44847339Y-164798631D01*
X44816470Y-164806902D01*
X44816463Y-164806905D01*
X44708037Y-164869504D01*
X44708034Y-164869506D01*
X44619506Y-164958034D01*
X44619504Y-164958037D01*
X44556905Y-165066463D01*
X44556905Y-165066464D01*
X44524500Y-165187399D01*
X30750500Y-165187399D01*
X30750500Y-160437399D01*
X35524500Y-160437399D01*
X35524500Y-160562601D01*
X35556905Y-160683536D01*
X35619505Y-160791964D01*
X35708036Y-160880495D01*
X35816464Y-160943095D01*
X35937399Y-160975500D01*
X35937401Y-160975500D01*
X36062599Y-160975500D01*
X36062601Y-160975500D01*
X36183536Y-160943095D01*
X36291964Y-160880495D01*
X36380495Y-160791964D01*
X36443095Y-160683536D01*
X36475500Y-160562601D01*
X36475500Y-160437399D01*
X36443095Y-160316464D01*
X36380495Y-160208036D01*
X36291964Y-160119505D01*
X36183536Y-160056905D01*
X36183537Y-160056905D01*
X36143224Y-160046103D01*
X36062601Y-160024500D01*
X35937399Y-160024500D01*
X35856775Y-160046103D01*
X35816463Y-160056905D01*
X35708037Y-160119504D01*
X35708034Y-160119506D01*
X35619506Y-160208034D01*
X35619504Y-160208037D01*
X35556905Y-160316463D01*
X35556905Y-160316464D01*
X35524500Y-160437399D01*
X30750500Y-160437399D01*
X30750500Y-151178751D01*
X55447500Y-151178751D01*
X55447500Y-151421248D01*
X55447501Y-151421264D01*
X55479153Y-151661687D01*
X55541921Y-151895939D01*
X55634720Y-152119978D01*
X55634727Y-152119992D01*
X55755981Y-152330010D01*
X55824561Y-152419384D01*
X56543384Y-151700560D01*
X56544240Y-151702626D01*
X56637262Y-151841844D01*
X56755656Y-151960238D01*
X56894874Y-152053260D01*
X56896937Y-152054114D01*
X56178114Y-152772936D01*
X56178114Y-152772937D01*
X56267489Y-152841517D01*
X56267496Y-152841522D01*
X56477507Y-152962772D01*
X56477521Y-152962779D01*
X56701560Y-153055578D01*
X56935812Y-153118346D01*
X57176235Y-153149998D01*
X57176252Y-153150000D01*
X57418748Y-153150000D01*
X57418764Y-153149998D01*
X57659187Y-153118346D01*
X57893439Y-153055578D01*
X58117478Y-152962779D01*
X58117492Y-152962772D01*
X58327516Y-152841515D01*
X58416884Y-152772939D01*
X58416884Y-152772936D01*
X57698062Y-152054114D01*
X57700126Y-152053260D01*
X57839344Y-151960238D01*
X57957738Y-151841844D01*
X58050760Y-151702626D01*
X58051614Y-151700562D01*
X58770436Y-152419384D01*
X58770439Y-152419384D01*
X58839015Y-152330016D01*
X58960272Y-152119992D01*
X58960279Y-152119978D01*
X59053078Y-151895939D01*
X59115846Y-151661687D01*
X59147498Y-151421264D01*
X59147500Y-151421248D01*
X59147500Y-151178751D01*
X59147498Y-151178735D01*
X59115846Y-150938312D01*
X59053078Y-150704060D01*
X58960279Y-150480021D01*
X58960272Y-150480007D01*
X58839022Y-150269996D01*
X58839012Y-150269981D01*
X58799373Y-150218322D01*
X58799372Y-150218321D01*
X58770438Y-150180614D01*
X58770436Y-150180614D01*
X58051614Y-150899436D01*
X58050760Y-150897374D01*
X57957738Y-150758156D01*
X57839344Y-150639762D01*
X57700126Y-150546740D01*
X57698060Y-150545884D01*
X58098214Y-150145731D01*
X59707000Y-150145731D01*
X59707000Y-152454258D01*
X59709854Y-152484698D01*
X59709854Y-152484699D01*
X59754706Y-152612881D01*
X59754707Y-152612882D01*
X59835350Y-152722150D01*
X59944618Y-152802793D01*
X60072802Y-152847646D01*
X60072801Y-152847646D01*
X60076771Y-152848018D01*
X60103235Y-152850500D01*
X62411764Y-152850499D01*
X62442198Y-152847646D01*
X62570382Y-152802793D01*
X62679650Y-152722150D01*
X62760293Y-152612882D01*
X62805146Y-152484698D01*
X62808000Y-152454265D01*
X62807999Y-150145736D01*
X62805146Y-150115302D01*
X62760293Y-149987118D01*
X62679650Y-149877850D01*
X62570382Y-149797207D01*
X62570381Y-149797206D01*
X62442195Y-149752353D01*
X62442198Y-149752353D01*
X62411768Y-149749500D01*
X60103241Y-149749500D01*
X60072801Y-149752354D01*
X60072800Y-149752354D01*
X59944618Y-149797206D01*
X59835350Y-149877850D01*
X59754706Y-149987118D01*
X59709853Y-150115302D01*
X59707000Y-150145731D01*
X58098214Y-150145731D01*
X58416884Y-149827061D01*
X58327510Y-149758481D01*
X58117492Y-149637227D01*
X58117478Y-149637220D01*
X57893439Y-149544421D01*
X57659187Y-149481653D01*
X57418764Y-149450001D01*
X57418748Y-149450000D01*
X57176252Y-149450000D01*
X57176235Y-149450001D01*
X56935812Y-149481653D01*
X56701560Y-149544421D01*
X56477521Y-149637220D01*
X56477506Y-149637227D01*
X56267490Y-149758480D01*
X56178114Y-149827060D01*
X56178114Y-149827061D01*
X56896938Y-150545885D01*
X56894874Y-150546740D01*
X56755656Y-150639762D01*
X56637262Y-150758156D01*
X56544240Y-150897374D01*
X56543385Y-150899438D01*
X55824561Y-150180614D01*
X55824560Y-150180614D01*
X55755980Y-150269990D01*
X55634727Y-150480006D01*
X55634720Y-150480021D01*
X55541921Y-150704060D01*
X55479153Y-150938312D01*
X55447501Y-151178735D01*
X55447500Y-151178751D01*
X30750500Y-151178751D01*
X30750500Y-147506961D01*
X30751280Y-147493077D01*
X30761459Y-147402736D01*
X30767635Y-147375670D01*
X30795353Y-147296456D01*
X30807396Y-147271450D01*
X30852046Y-147200389D01*
X30869351Y-147178690D01*
X30928690Y-147119351D01*
X30950389Y-147102046D01*
X31021450Y-147057396D01*
X31046456Y-147045353D01*
X31125670Y-147017635D01*
X31152733Y-147011459D01*
X31215419Y-147004396D01*
X31243079Y-147001280D01*
X31256962Y-147000500D01*
X31342710Y-147000500D01*
X69670500Y-147000500D01*
X69737539Y-147020185D01*
G37*
%TD.AperFunction*%
%TD*%
M02*
