%TF.GenerationSoftware,KiCad,Pcbnew,9.0.6+1*%
%TF.CreationDate,Date%
%TF.ProjectId,solar_smart_station,736f6c61-725f-4736-9d61-72745f737461,+ (Unreleased)*%
%TF.SameCoordinates,Original*%
%TF.FileFunction,Legend,Bot*%
%TF.FilePolarity,Positive*%
%FSLAX46Y46*%
G04 Gerber Fmt 4.6, Leading zero omitted, Abs format (unit mm)*
G04 Created by KiCad*
%MOMM*%
%LPD*%
G01*
G04 APERTURE LIST*
G04 Aperture macros list*
%AMRoundRect*
0 Rectangle with rounded corners*
0 $1 Rounding radius*
0 $2 $3 $4 $5 $6 $7 $8 $9 X,Y pos of 4 corners*
0 Add a 4 corners polygon primitive as box body*
4,1,4,$2,$3,$4,$5,$6,$7,$8,$9,$2,$3,0*
0 Add four circle primitives for the rounded corners*
1,1,$1+$1,$2,$3*
1,1,$1+$1,$4,$5*
1,1,$1+$1,$6,$7*
1,1,$1+$1,$8,$9*
0 Add four rect primitives between the rounded corners*
20,1,$1+$1,$2,$3,$4,$5,0*
20,1,$1+$1,$4,$5,$6,$7,0*
20,1,$1+$1,$6,$7,$8,$9,0*
20,1,$1+$1,$8,$9,$2,$3,0*%
G04 Aperture macros list end*
%ADD10C,0.500000*%
%ADD11C,0.312500*%
%ADD12RoundRect,0.259260X-1.140740X-1.140740X1.140740X-1.140740X1.140740X1.140740X-1.140740X1.140740X0*%
%ADD13C,2.800000*%
%ADD14RoundRect,0.050000X-1.250000X-1.250000X1.250000X-1.250000X1.250000X1.250000X-1.250000X1.250000X0*%
%ADD15C,3.700000*%
%ADD16C,5.700000*%
%ADD17RoundRect,0.050000X-0.850000X-0.850000X0.850000X-0.850000X0.850000X0.850000X-0.850000X0.850000X0*%
%ADD18C,1.800000*%
%ADD19RoundRect,0.050000X-0.850000X0.850000X-0.850000X-0.850000X0.850000X-0.850000X0.850000X0.850000X0*%
%ADD20RoundRect,0.050000X0.850000X-0.850000X0.850000X0.850000X-0.850000X0.850000X-0.850000X-0.850000X0*%
%ADD21RoundRect,0.259260X1.140740X1.140740X-1.140740X1.140740X-1.140740X-1.140740X1.140740X-1.140740X0*%
G04 APERTURE END LIST*
D10*
X78742481Y-175358523D02*
X78385338Y-175477571D01*
X78385338Y-175477571D02*
X78266291Y-175596619D01*
X78266291Y-175596619D02*
X78147243Y-175834714D01*
X78147243Y-175834714D02*
X78147243Y-176191857D01*
X78147243Y-176191857D02*
X78266291Y-176429952D01*
X78266291Y-176429952D02*
X78385338Y-176549000D01*
X78385338Y-176549000D02*
X78623433Y-176668047D01*
X78623433Y-176668047D02*
X79575814Y-176668047D01*
X79575814Y-176668047D02*
X79575814Y-174168047D01*
X79575814Y-174168047D02*
X78742481Y-174168047D01*
X78742481Y-174168047D02*
X78504386Y-174287095D01*
X78504386Y-174287095D02*
X78385338Y-174406142D01*
X78385338Y-174406142D02*
X78266291Y-174644238D01*
X78266291Y-174644238D02*
X78266291Y-174882333D01*
X78266291Y-174882333D02*
X78385338Y-175120428D01*
X78385338Y-175120428D02*
X78504386Y-175239476D01*
X78504386Y-175239476D02*
X78742481Y-175358523D01*
X78742481Y-175358523D02*
X79575814Y-175358523D01*
X77194862Y-175953761D02*
X76004386Y-175953761D01*
X77432957Y-176668047D02*
X76599624Y-174168047D01*
X76599624Y-174168047D02*
X75766291Y-176668047D01*
X75290100Y-174168047D02*
X73861529Y-174168047D01*
X74575815Y-176668047D02*
X74575815Y-174168047D01*
X73028195Y-175715666D02*
X71123434Y-175715666D01*
X72075814Y-176668047D02*
X72075814Y-174763285D01*
X79932957Y-170168047D02*
X79099624Y-172668047D01*
X79099624Y-172668047D02*
X78266291Y-170168047D01*
X76004386Y-172429952D02*
X76123434Y-172549000D01*
X76123434Y-172549000D02*
X76480576Y-172668047D01*
X76480576Y-172668047D02*
X76718672Y-172668047D01*
X76718672Y-172668047D02*
X77075815Y-172549000D01*
X77075815Y-172549000D02*
X77313910Y-172310904D01*
X77313910Y-172310904D02*
X77432957Y-172072809D01*
X77432957Y-172072809D02*
X77552005Y-171596619D01*
X77552005Y-171596619D02*
X77552005Y-171239476D01*
X77552005Y-171239476D02*
X77432957Y-170763285D01*
X77432957Y-170763285D02*
X77313910Y-170525190D01*
X77313910Y-170525190D02*
X77075815Y-170287095D01*
X77075815Y-170287095D02*
X76718672Y-170168047D01*
X76718672Y-170168047D02*
X76480576Y-170168047D01*
X76480576Y-170168047D02*
X76123434Y-170287095D01*
X76123434Y-170287095D02*
X76004386Y-170406142D01*
X73861529Y-171001380D02*
X73861529Y-172668047D01*
X74456767Y-170049000D02*
X75052005Y-171834714D01*
X75052005Y-171834714D02*
X73504386Y-171834714D01*
D11*
X35261011Y-177068217D02*
X37261011Y-177068217D01*
X37261011Y-177068217D02*
X35832440Y-176401550D01*
X35832440Y-176401550D02*
X37261011Y-175734884D01*
X37261011Y-175734884D02*
X35261011Y-175734884D01*
X35261011Y-173925360D02*
X36308630Y-173925360D01*
X36308630Y-173925360D02*
X36499107Y-174020598D01*
X36499107Y-174020598D02*
X36594345Y-174211074D01*
X36594345Y-174211074D02*
X36594345Y-174592027D01*
X36594345Y-174592027D02*
X36499107Y-174782503D01*
X35356250Y-173925360D02*
X35261011Y-174115836D01*
X35261011Y-174115836D02*
X35261011Y-174592027D01*
X35261011Y-174592027D02*
X35356250Y-174782503D01*
X35356250Y-174782503D02*
X35546726Y-174877741D01*
X35546726Y-174877741D02*
X35737202Y-174877741D01*
X35737202Y-174877741D02*
X35927678Y-174782503D01*
X35927678Y-174782503D02*
X36022916Y-174592027D01*
X36022916Y-174592027D02*
X36022916Y-174115836D01*
X36022916Y-174115836D02*
X36118154Y-173925360D01*
X35261011Y-173163455D02*
X36594345Y-172115836D01*
X36594345Y-173163455D02*
X35261011Y-172115836D01*
X37070535Y-169925359D02*
X37165773Y-169830121D01*
X37165773Y-169830121D02*
X37261011Y-169639645D01*
X37261011Y-169639645D02*
X37261011Y-169163454D01*
X37261011Y-169163454D02*
X37165773Y-168972978D01*
X37165773Y-168972978D02*
X37070535Y-168877740D01*
X37070535Y-168877740D02*
X36880059Y-168782502D01*
X36880059Y-168782502D02*
X36689583Y-168782502D01*
X36689583Y-168782502D02*
X36403869Y-168877740D01*
X36403869Y-168877740D02*
X35261011Y-170020597D01*
X35261011Y-170020597D02*
X35261011Y-168782502D01*
X35261011Y-166877740D02*
X35261011Y-168020597D01*
X35261011Y-167449169D02*
X37261011Y-167449169D01*
X37261011Y-167449169D02*
X36975297Y-167639645D01*
X36975297Y-167639645D02*
X36784821Y-167830121D01*
X36784821Y-167830121D02*
X36689583Y-168020597D01*
X37261011Y-166306311D02*
X35261011Y-165639645D01*
X35261011Y-165639645D02*
X37261011Y-164972978D01*
D10*
X62418047Y-155364661D02*
X62418047Y-154174185D01*
X62418047Y-154174185D02*
X59918047Y-154174185D01*
X59918047Y-156674185D02*
X59918047Y-157150376D01*
X59918047Y-157150376D02*
X60037095Y-157388471D01*
X60037095Y-157388471D02*
X60275190Y-157626566D01*
X60275190Y-157626566D02*
X60751380Y-157745614D01*
X60751380Y-157745614D02*
X61584714Y-157745614D01*
X61584714Y-157745614D02*
X62060904Y-157626566D01*
X62060904Y-157626566D02*
X62299000Y-157388471D01*
X62299000Y-157388471D02*
X62418047Y-157150376D01*
X62418047Y-157150376D02*
X62418047Y-156674185D01*
X62418047Y-156674185D02*
X62299000Y-156436090D01*
X62299000Y-156436090D02*
X62060904Y-156197995D01*
X62060904Y-156197995D02*
X61584714Y-156078947D01*
X61584714Y-156078947D02*
X60751380Y-156078947D01*
X60751380Y-156078947D02*
X60275190Y-156197995D01*
X60275190Y-156197995D02*
X60037095Y-156436090D01*
X60037095Y-156436090D02*
X59918047Y-156674185D01*
X61703761Y-158697995D02*
X61703761Y-159888471D01*
X62418047Y-158459900D02*
X59918047Y-159293233D01*
X59918047Y-159293233D02*
X62418047Y-160126566D01*
X62418047Y-160959900D02*
X59918047Y-160959900D01*
X59918047Y-160959900D02*
X59918047Y-161555138D01*
X59918047Y-161555138D02*
X60037095Y-161912281D01*
X60037095Y-161912281D02*
X60275190Y-162150376D01*
X60275190Y-162150376D02*
X60513285Y-162269423D01*
X60513285Y-162269423D02*
X60989476Y-162388471D01*
X60989476Y-162388471D02*
X61346619Y-162388471D01*
X61346619Y-162388471D02*
X61822809Y-162269423D01*
X61822809Y-162269423D02*
X62060904Y-162150376D01*
X62060904Y-162150376D02*
X62299000Y-161912281D01*
X62299000Y-161912281D02*
X62418047Y-161555138D01*
X62418047Y-161555138D02*
X62418047Y-160959900D01*
X31331952Y-177075814D02*
X33831952Y-177075814D01*
X31331952Y-175885338D02*
X33831952Y-175885338D01*
X33831952Y-175885338D02*
X31331952Y-174456767D01*
X31331952Y-174456767D02*
X33831952Y-174456767D01*
X32284333Y-173266290D02*
X32284333Y-171361529D01*
X31331952Y-172313909D02*
X33236714Y-172313909D01*
X79932957Y-166168047D02*
X79099624Y-168668047D01*
X79099624Y-168668047D02*
X78266291Y-166168047D01*
X76004386Y-168429952D02*
X76123434Y-168549000D01*
X76123434Y-168549000D02*
X76480576Y-168668047D01*
X76480576Y-168668047D02*
X76718672Y-168668047D01*
X76718672Y-168668047D02*
X77075815Y-168549000D01*
X77075815Y-168549000D02*
X77313910Y-168310904D01*
X77313910Y-168310904D02*
X77432957Y-168072809D01*
X77432957Y-168072809D02*
X77552005Y-167596619D01*
X77552005Y-167596619D02*
X77552005Y-167239476D01*
X77552005Y-167239476D02*
X77432957Y-166763285D01*
X77432957Y-166763285D02*
X77313910Y-166525190D01*
X77313910Y-166525190D02*
X77075815Y-166287095D01*
X77075815Y-166287095D02*
X76718672Y-166168047D01*
X76718672Y-166168047D02*
X76480576Y-166168047D01*
X76480576Y-166168047D02*
X76123434Y-166287095D01*
X76123434Y-166287095D02*
X76004386Y-166406142D01*
X75171053Y-166168047D02*
X73623434Y-166168047D01*
X73623434Y-166168047D02*
X74456767Y-167120428D01*
X74456767Y-167120428D02*
X74099624Y-167120428D01*
X74099624Y-167120428D02*
X73861529Y-167239476D01*
X73861529Y-167239476D02*
X73742481Y-167358523D01*
X73742481Y-167358523D02*
X73623434Y-167596619D01*
X73623434Y-167596619D02*
X73623434Y-168191857D01*
X73623434Y-168191857D02*
X73742481Y-168429952D01*
X73742481Y-168429952D02*
X73861529Y-168549000D01*
X73861529Y-168549000D02*
X74099624Y-168668047D01*
X74099624Y-168668047D02*
X74813910Y-168668047D01*
X74813910Y-168668047D02*
X75052005Y-168549000D01*
X75052005Y-168549000D02*
X75171053Y-168429952D01*
X79932957Y-161918047D02*
X79099624Y-164418047D01*
X79099624Y-164418047D02*
X78266291Y-161918047D01*
X76004386Y-164179952D02*
X76123434Y-164299000D01*
X76123434Y-164299000D02*
X76480576Y-164418047D01*
X76480576Y-164418047D02*
X76718672Y-164418047D01*
X76718672Y-164418047D02*
X77075815Y-164299000D01*
X77075815Y-164299000D02*
X77313910Y-164060904D01*
X77313910Y-164060904D02*
X77432957Y-163822809D01*
X77432957Y-163822809D02*
X77552005Y-163346619D01*
X77552005Y-163346619D02*
X77552005Y-162989476D01*
X77552005Y-162989476D02*
X77432957Y-162513285D01*
X77432957Y-162513285D02*
X77313910Y-162275190D01*
X77313910Y-162275190D02*
X77075815Y-162037095D01*
X77075815Y-162037095D02*
X76718672Y-161918047D01*
X76718672Y-161918047D02*
X76480576Y-161918047D01*
X76480576Y-161918047D02*
X76123434Y-162037095D01*
X76123434Y-162037095D02*
X76004386Y-162156142D01*
X75052005Y-162156142D02*
X74932957Y-162037095D01*
X74932957Y-162037095D02*
X74694862Y-161918047D01*
X74694862Y-161918047D02*
X74099624Y-161918047D01*
X74099624Y-161918047D02*
X73861529Y-162037095D01*
X73861529Y-162037095D02*
X73742481Y-162156142D01*
X73742481Y-162156142D02*
X73623434Y-162394238D01*
X73623434Y-162394238D02*
X73623434Y-162632333D01*
X73623434Y-162632333D02*
X73742481Y-162989476D01*
X73742481Y-162989476D02*
X75171053Y-164418047D01*
X75171053Y-164418047D02*
X73623434Y-164418047D01*
X79932957Y-158168047D02*
X79099624Y-160668047D01*
X79099624Y-160668047D02*
X78266291Y-158168047D01*
X76004386Y-160429952D02*
X76123434Y-160549000D01*
X76123434Y-160549000D02*
X76480576Y-160668047D01*
X76480576Y-160668047D02*
X76718672Y-160668047D01*
X76718672Y-160668047D02*
X77075815Y-160549000D01*
X77075815Y-160549000D02*
X77313910Y-160310904D01*
X77313910Y-160310904D02*
X77432957Y-160072809D01*
X77432957Y-160072809D02*
X77552005Y-159596619D01*
X77552005Y-159596619D02*
X77552005Y-159239476D01*
X77552005Y-159239476D02*
X77432957Y-158763285D01*
X77432957Y-158763285D02*
X77313910Y-158525190D01*
X77313910Y-158525190D02*
X77075815Y-158287095D01*
X77075815Y-158287095D02*
X76718672Y-158168047D01*
X76718672Y-158168047D02*
X76480576Y-158168047D01*
X76480576Y-158168047D02*
X76123434Y-158287095D01*
X76123434Y-158287095D02*
X76004386Y-158406142D01*
X73623434Y-160668047D02*
X75052005Y-160668047D01*
X74337719Y-160668047D02*
X74337719Y-158168047D01*
X74337719Y-158168047D02*
X74575815Y-158525190D01*
X74575815Y-158525190D02*
X74813910Y-158763285D01*
X74813910Y-158763285D02*
X75052005Y-158882333D01*
X78742481Y-155108523D02*
X78385338Y-155227571D01*
X78385338Y-155227571D02*
X78266291Y-155346619D01*
X78266291Y-155346619D02*
X78147243Y-155584714D01*
X78147243Y-155584714D02*
X78147243Y-155941857D01*
X78147243Y-155941857D02*
X78266291Y-156179952D01*
X78266291Y-156179952D02*
X78385338Y-156299000D01*
X78385338Y-156299000D02*
X78623433Y-156418047D01*
X78623433Y-156418047D02*
X79575814Y-156418047D01*
X79575814Y-156418047D02*
X79575814Y-153918047D01*
X79575814Y-153918047D02*
X78742481Y-153918047D01*
X78742481Y-153918047D02*
X78504386Y-154037095D01*
X78504386Y-154037095D02*
X78385338Y-154156142D01*
X78385338Y-154156142D02*
X78266291Y-154394238D01*
X78266291Y-154394238D02*
X78266291Y-154632333D01*
X78266291Y-154632333D02*
X78385338Y-154870428D01*
X78385338Y-154870428D02*
X78504386Y-154989476D01*
X78504386Y-154989476D02*
X78742481Y-155108523D01*
X78742481Y-155108523D02*
X79575814Y-155108523D01*
X77194862Y-155703761D02*
X76004386Y-155703761D01*
X77432957Y-156418047D02*
X76599624Y-153918047D01*
X76599624Y-153918047D02*
X75766291Y-156418047D01*
X75290100Y-153918047D02*
X73861529Y-153918047D01*
X74575815Y-156418047D02*
X74575815Y-153918047D01*
X73028195Y-155465666D02*
X71123434Y-155465666D01*
%LPC*%
D12*
%TO.C,JST1*%
X32742500Y-179950000D03*
D13*
X36702500Y-179950000D03*
%TD*%
D14*
%TO.C,H4*%
X83000000Y-163500000D03*
%TD*%
D15*
%TO.C,H8*%
X83250000Y-150000000D03*
D16*
X83250000Y-150000000D03*
%TD*%
D14*
%TO.C,H2*%
X83000000Y-171500000D03*
%TD*%
%TO.C,H6*%
X83000000Y-155500000D03*
%TD*%
D17*
%TO.C,J2*%
X57000000Y-172475000D03*
D18*
X57000000Y-175015000D03*
%TD*%
D14*
%TO.C,H1*%
X83000000Y-175500000D03*
%TD*%
D19*
%TO.C,J3*%
X75080000Y-181000000D03*
D18*
X72540000Y-181000000D03*
X70000000Y-181000000D03*
X67460000Y-181000000D03*
X64920000Y-181000000D03*
%TD*%
D14*
%TO.C,H3*%
X83000000Y-167500000D03*
%TD*%
D20*
%TO.C,J5*%
X58225000Y-181000000D03*
D18*
X60765000Y-181000000D03*
%TD*%
D21*
%TO.C,JST2*%
X61257500Y-151300000D03*
D13*
X57297500Y-151300000D03*
%TD*%
D15*
%TO.C,H7*%
X34250000Y-150250000D03*
D16*
X34250000Y-150250000D03*
%TD*%
D14*
%TO.C,H5*%
X83000000Y-159500000D03*
%TD*%
D20*
%TO.C,J1*%
X44210000Y-181000000D03*
D18*
X46750000Y-181000000D03*
%TD*%
D15*
%TO.C,H9*%
X83250000Y-181250000D03*
D16*
X83250000Y-181250000D03*
%TD*%
D17*
%TO.C,TP1*%
X33000000Y-167500000D03*
%TD*%
D20*
%TO.C,J4*%
X51225000Y-181000000D03*
D18*
X53765000Y-181000000D03*
%TD*%
%LPD*%
M02*
