M48
; DRILL file {KiCad 9.0.6+1} date 2026-01-08T23:12:00+0000
; FORMAT={-:-/ absolute / metric / decimal}
; #@! TF.CreationDate,2026-01-08T23:12:00+00:00
; #@! TF.GenerationSoftware,Kicad,Pcbnew,9.0.6+1
; #@! TF.FileFunction,Plated,1,4,PTH
FMAT,2
METRIC
; #@! TA.AperFunction,Plated,PTH,ViaDrill
T1C0.300
; #@! TA.AperFunction,Plated,PTH,ComponentDrill
T2C1.000
; #@! TA.AperFunction,Plated,PTH,ComponentDrill
T3C1.200
; #@! TA.AperFunction,Plated,PTH,ComponentDrill
T4C1.700
; #@! TA.AperFunction,Plated,PTH,ComponentDrill
T5C3.200
%
G90
G05
T1
X36.0Y-160.5
X36.5Y-173.75
X39.0Y-155.75
X39.0Y-168.015
X41.5Y-155.75
X41.5Y-168.015
X42.75Y-176.0
X43.75Y-169.5
X44.0Y-155.75
X44.0Y-166.25
X45.0Y-165.25
X45.5Y-178.25
X46.5Y-155.75
X46.5Y-156.5
X46.5Y-157.25
X46.5Y-158.0
X46.5Y-170.5
X46.5Y-178.25
X47.641Y-167.215
X47.75Y-165.25
X48.05Y-163.25
X48.05Y-163.95
X48.499Y-172.0
X48.5Y-170.5
X48.534Y-167.231
X48.949Y-164.846
X48.95Y-163.25
X48.95Y-163.95
X49.25Y-175.0
X49.386Y-167.247
X50.218Y-167.24
X50.5Y-155.75
X50.5Y-156.5
X50.5Y-157.25
X50.5Y-158.0
X51.25Y-170.75
X53.0Y-155.75
X53.75Y-161.5
X53.75Y-163.5
X53.75Y-164.5
X53.75Y-167.5
X54.75Y-177.0
X54.75Y-177.75
X55.5Y-155.75
X55.75Y-163.0
X55.75Y-163.75
X56.75Y-163.0
X56.75Y-163.75
X56.75Y-166.25
X57.75Y-163.0
X57.75Y-163.75
X58.0Y-155.75
X58.75Y-163.0
X58.75Y-163.75
X59.25Y-166.25
X59.75Y-163.0
X59.75Y-163.75
X60.75Y-162.25
X60.75Y-163.0
X60.75Y-163.75
X64.75Y-155.5
X71.75Y-171.0
X74.0Y-179.0
X75.75Y-154.0
X75.75Y-156.0
X79.0Y-149.75
X79.5Y-161.0
T2
X33.0Y-167.5
X44.225Y-181.0
X46.765Y-181.0
X51.225Y-181.0
X53.765Y-181.0
X57.0Y-172.475
X57.0Y-175.015
X58.225Y-181.0
X60.765Y-181.0
X64.92Y-181.0
X67.46Y-181.0
X70.0Y-181.0
X72.54Y-181.0
X75.08Y-181.0
T3
X84.0Y-155.5
X84.0Y-159.5
X84.0Y-163.5
X84.0Y-167.5
X84.0Y-171.5
X84.0Y-175.5
T4
X32.742Y-179.95
X36.703Y-179.95
X57.297Y-151.3
X61.258Y-151.3
T5
X34.25Y-150.25
X83.25Y-150.0
X83.25Y-181.25
M30
