%TF.GenerationSoftware,KiCad,Pcbnew,9.0.6+1*%
%TF.CreationDate,Date%
%TF.ProjectId,solar_smart_station,736f6c61-725f-4736-9d61-72745f737461,+ (Unreleased)*%
%TF.SameCoordinates,Original*%
%TF.FileFunction,Soldermask,Top*%
%TF.FilePolarity,Negative*%
%FSLAX46Y46*%
G04 Gerber Fmt 4.6, Leading zero omitted, Abs format (unit mm)*
G04 Created by KiCad*
%MOMM*%
%LPD*%
G01*
G04 APERTURE LIST*
G04 Aperture macros list*
%AMRoundRect*
0 Rectangle with rounded corners*
0 $1 Rounding radius*
0 $2 $3 $4 $5 $6 $7 $8 $9 X,Y pos of 4 corners*
0 Add a 4 corners polygon primitive as box body*
4,1,4,$2,$3,$4,$5,$6,$7,$8,$9,$2,$3,0*
0 Add four circle primitives for the rounded corners*
1,1,$1+$1,$2,$3*
1,1,$1+$1,$4,$5*
1,1,$1+$1,$6,$7*
1,1,$1+$1,$8,$9*
0 Add four rect primitives between the rounded corners*
20,1,$1+$1,$2,$3,$4,$5,0*
20,1,$1+$1,$4,$5,$6,$7,0*
20,1,$1+$1,$6,$7,$8,$9,0*
20,1,$1+$1,$8,$9,$2,$3,0*%
%AMFreePoly0*
4,1,13,0.135355,0.385355,0.150000,0.350000,0.150000,-0.350000,0.135355,-0.385355,0.100000,-0.400000,-0.100000,-0.400000,-0.135355,-0.385355,-0.150000,-0.350000,-0.150000,0.350000,-0.135355,0.385355,-0.100000,0.400000,0.100000,0.400000,0.135355,0.385355,0.135355,0.385355,$1*%
%AMFreePoly1*
4,1,13,0.385355,0.135355,0.400000,0.100000,0.400000,-0.100000,0.385355,-0.135355,0.350000,-0.150000,-0.350000,-0.150000,-0.385355,-0.135355,-0.400000,-0.100000,-0.400000,0.100000,-0.385355,0.135355,-0.350000,0.150000,0.350000,0.150000,0.385355,0.135355,0.385355,0.135355,$1*%
%AMFreePoly2*
4,1,37,1.406355,1.260355,1.421000,1.225000,1.421000,0.720000,1.406355,0.684645,1.371000,0.670000,1.000000,0.670000,1.000000,0.630000,1.370000,0.630000,1.405355,0.615355,1.420000,0.580000,1.420000,0.080000,1.405355,0.044645,1.370000,0.030000,1.000000,0.030000,1.000000,-0.030000,1.370000,-0.030000,1.405355,-0.044645,1.420000,-0.080000,1.420000,-0.580000,1.405355,-0.615355,
1.370000,-0.630000,1.000000,-0.630000,1.000000,-0.670000,1.370000,-0.670000,1.405355,-0.684645,1.420000,-0.720000,1.420000,-1.225000,1.405355,-1.260355,1.370000,-1.275000,-0.950000,-1.275000,-0.985355,-1.260355,-1.000000,-1.225000,-1.000000,1.225000,-0.985355,1.260355,-0.950000,1.275000,1.371000,1.275000,1.406355,1.260355,1.406355,1.260355,$1*%
G04 Aperture macros list end*
%ADD10RoundRect,0.160000X-0.210000X0.160000X-0.210000X-0.160000X0.210000X-0.160000X0.210000X0.160000X0*%
%ADD11RoundRect,0.271739X-0.678261X0.353261X-0.678261X-0.353261X0.678261X-0.353261X0.678261X0.353261X0*%
%ADD12RoundRect,0.250000X-0.275000X0.250000X-0.275000X-0.250000X0.275000X-0.250000X0.275000X0.250000X0*%
%ADD13RoundRect,0.050000X-1.250000X-1.250000X1.250000X-1.250000X1.250000X1.250000X-1.250000X1.250000X0*%
%ADD14RoundRect,0.175000X-0.612500X-0.175000X0.612500X-0.175000X0.612500X0.175000X-0.612500X0.175000X0*%
%ADD15C,3.700000*%
%ADD16C,5.700000*%
%ADD17RoundRect,0.160000X-0.160000X-0.210000X0.160000X-0.210000X0.160000X0.210000X-0.160000X0.210000X0*%
%ADD18RoundRect,0.175000X0.612500X0.175000X-0.612500X0.175000X-0.612500X-0.175000X0.612500X-0.175000X0*%
%ADD19RoundRect,0.275000X0.275000X0.500000X-0.275000X0.500000X-0.275000X-0.500000X0.275000X-0.500000X0*%
%ADD20RoundRect,0.250000X-0.250000X-0.275000X0.250000X-0.275000X0.250000X0.275000X-0.250000X0.275000X0*%
%ADD21RoundRect,0.165000X0.165000X0.195000X-0.165000X0.195000X-0.165000X-0.195000X0.165000X-0.195000X0*%
%ADD22RoundRect,0.137500X-0.137500X0.575000X-0.137500X-0.575000X0.137500X-0.575000X0.137500X0.575000X0*%
%ADD23RoundRect,0.160000X0.210000X-0.160000X0.210000X0.160000X-0.210000X0.160000X-0.210000X-0.160000X0*%
%ADD24RoundRect,0.270409X-0.392091X-1.104591X0.392091X-1.104591X0.392091X1.104591X-0.392091X1.104591X0*%
%ADD25RoundRect,0.050000X-0.850000X-0.850000X0.850000X-0.850000X0.850000X0.850000X-0.850000X0.850000X0*%
%ADD26C,1.800000*%
%ADD27RoundRect,0.165000X-0.195000X0.165000X-0.195000X-0.165000X0.195000X-0.165000X0.195000X0.165000X0*%
%ADD28RoundRect,0.271739X0.678261X-0.353261X0.678261X0.353261X-0.678261X0.353261X-0.678261X-0.353261X0*%
%ADD29RoundRect,0.165000X-0.165000X-0.195000X0.165000X-0.195000X0.165000X0.195000X-0.165000X0.195000X0*%
%ADD30RoundRect,0.250000X0.250000X0.275000X-0.250000X0.275000X-0.250000X-0.275000X0.250000X-0.275000X0*%
%ADD31RoundRect,0.050000X-0.850000X0.850000X-0.850000X-0.850000X0.850000X-0.850000X0.850000X0.850000X0*%
%ADD32RoundRect,0.160000X0.160000X0.210000X-0.160000X0.210000X-0.160000X-0.210000X0.160000X-0.210000X0*%
%ADD33RoundRect,0.175000X0.175000X-0.537500X0.175000X0.537500X-0.175000X0.537500X-0.175000X-0.537500X0*%
%ADD34RoundRect,0.050000X0.850000X-0.850000X0.850000X0.850000X-0.850000X0.850000X-0.850000X-0.850000X0*%
%ADD35RoundRect,0.050000X-1.475000X-1.750000X1.475000X-1.750000X1.475000X1.750000X-1.475000X1.750000X0*%
%ADD36RoundRect,0.050000X-0.419100X0.228600X-0.419100X-0.228600X0.419100X-0.228600X0.419100X0.228600X0*%
%ADD37RoundRect,0.274390X0.288110X0.475610X-0.288110X0.475610X-0.288110X-0.475610X0.288110X-0.475610X0*%
%ADD38RoundRect,0.050000X0.736600X0.177800X-0.736600X0.177800X-0.736600X-0.177800X0.736600X-0.177800X0*%
%ADD39RoundRect,0.250000X0.275000X-0.250000X0.275000X0.250000X-0.275000X0.250000X-0.275000X-0.250000X0*%
%ADD40RoundRect,0.259260X1.140740X1.140740X-1.140740X1.140740X-1.140740X-1.140740X1.140740X-1.140740X0*%
%ADD41C,2.800000*%
%ADD42RoundRect,0.259260X-1.140740X-1.140740X1.140740X-1.140740X1.140740X1.140740X-1.140740X1.140740X0*%
%ADD43RoundRect,0.050000X0.400000X-0.100000X0.400000X0.100000X-0.400000X0.100000X-0.400000X-0.100000X0*%
%ADD44RoundRect,0.050000X-0.100000X-0.350000X0.100000X-0.350000X0.100000X0.350000X-0.100000X0.350000X0*%
%ADD45RoundRect,0.050000X-0.299999X-0.100000X0.299999X-0.100000X0.299999X0.100000X-0.299999X0.100000X0*%
%ADD46RoundRect,0.050000X-0.350000X-0.100000X0.350000X-0.100000X0.350000X0.100000X-0.350000X0.100000X0*%
%ADD47RoundRect,0.050000X0.100000X-0.350000X0.100000X0.350000X-0.100000X0.350000X-0.100000X-0.350000X0*%
%ADD48RoundRect,0.050000X0.100000X-0.299999X0.100000X0.299999X-0.100000X0.299999X-0.100000X-0.299999X0*%
%ADD49FreePoly0,0.000000*%
%ADD50FreePoly1,0.000000*%
%ADD51RoundRect,0.050000X-0.350000X-0.100000X0.350000X-0.100000X0.350000X0.100000X-0.350000X0.100000X0*%
%ADD52RoundRect,0.050000X-0.325000X-0.100000X0.325000X-0.100000X0.325000X0.100000X-0.325000X0.100000X0*%
%ADD53RoundRect,0.050000X-0.340000X-0.100000X0.340000X-0.100000X0.340000X0.100000X-0.340000X0.100000X0*%
%ADD54RoundRect,0.050000X-0.100000X-0.500000X0.100000X-0.500000X0.100000X0.500000X-0.100000X0.500000X0*%
%ADD55RoundRect,0.050000X-0.100000X-0.475000X0.100000X-0.475000X0.100000X0.475000X-0.100000X0.475000X0*%
%ADD56RoundRect,0.243750X0.243750X0.281250X-0.243750X0.281250X-0.243750X-0.281250X0.243750X-0.281250X0*%
%ADD57RoundRect,0.137500X-0.137500X0.227500X-0.137500X-0.227500X0.137500X-0.227500X0.137500X0.227500X0*%
%ADD58FreePoly2,270.000000*%
G04 APERTURE END LIST*
D10*
%TO.C,R28*%
X65000000Y-162490000D03*
X65000000Y-163510000D03*
%TD*%
D11*
%TO.C,C16*%
X55500000Y-157025000D03*
X55500000Y-159975000D03*
%TD*%
D10*
%TO.C,R30*%
X65000000Y-164490000D03*
X65000000Y-165510000D03*
%TD*%
D12*
%TO.C,C24*%
X78000000Y-170725000D03*
X78000000Y-172275000D03*
%TD*%
D13*
%TO.C,H4*%
X84000000Y-163500000D03*
%TD*%
D14*
%TO.C,Q2*%
X67422500Y-151050000D03*
X67422500Y-152950000D03*
X69297500Y-152000000D03*
%TD*%
D11*
%TO.C,C12*%
X44000000Y-157025000D03*
X44000000Y-159975000D03*
%TD*%
D15*
%TO.C,H8*%
X83250000Y-150000000D03*
D16*
X83250000Y-150000000D03*
%TD*%
D17*
%TO.C,R3*%
X49990000Y-168250000D03*
X51010000Y-168250000D03*
%TD*%
D18*
%TO.C,Q1*%
X73297500Y-152950000D03*
X73297500Y-151050000D03*
X71422500Y-152000000D03*
%TD*%
D13*
%TO.C,H2*%
X84000000Y-171500000D03*
%TD*%
D17*
%TO.C,R6*%
X51990000Y-165500000D03*
X53010000Y-165500000D03*
%TD*%
D11*
%TO.C,C15*%
X41500000Y-157025000D03*
X41500000Y-159975000D03*
%TD*%
D13*
%TO.C,H6*%
X84000000Y-155500000D03*
%TD*%
D12*
%TO.C,C26*%
X78000000Y-164725000D03*
X78000000Y-166275000D03*
%TD*%
D19*
%TO.C,C1*%
X39500000Y-173702500D03*
X37600000Y-173702500D03*
%TD*%
D10*
%TO.C,R17*%
X79500000Y-161990000D03*
X79500000Y-163010000D03*
%TD*%
D20*
%TO.C,C33*%
X78725000Y-155000000D03*
X80275000Y-155000000D03*
%TD*%
D10*
%TO.C,R29*%
X65000000Y-160490000D03*
X65000000Y-161510000D03*
%TD*%
D21*
%TO.C,C9*%
X47980000Y-160500000D03*
X47020000Y-160500000D03*
%TD*%
D22*
%TO.C,U3*%
X46975000Y-174362500D03*
X46325000Y-174362500D03*
X45675000Y-174362500D03*
X45025000Y-174362500D03*
X45025000Y-176637500D03*
X45675000Y-176637500D03*
X46325000Y-176637500D03*
X46975000Y-176637500D03*
%TD*%
D12*
%TO.C,C28*%
X78000000Y-158725000D03*
X78000000Y-160275000D03*
%TD*%
D11*
%TO.C,C13*%
X53000000Y-157025000D03*
X53000000Y-159975000D03*
%TD*%
D23*
%TO.C,R11*%
X48500000Y-177010000D03*
X48500000Y-175990000D03*
%TD*%
D24*
%TO.C,R1*%
X36237500Y-170702500D03*
X40862500Y-170702500D03*
%TD*%
D25*
%TO.C,J2*%
X57000000Y-172475000D03*
D26*
X57000000Y-175015000D03*
%TD*%
D12*
%TO.C,C25*%
X78000000Y-167725000D03*
X78000000Y-169275000D03*
%TD*%
D10*
%TO.C,R14*%
X79500000Y-170990000D03*
X79500000Y-172010000D03*
%TD*%
%TO.C,R24*%
X75000000Y-151490000D03*
X75000000Y-152510000D03*
%TD*%
D27*
%TO.C,C2*%
X45000000Y-161520000D03*
X45000000Y-162480000D03*
%TD*%
D28*
%TO.C,C11*%
X56750000Y-164975000D03*
X56750000Y-162025000D03*
%TD*%
D13*
%TO.C,H1*%
X84000000Y-175500000D03*
%TD*%
D29*
%TO.C,C10*%
X49020000Y-160500000D03*
X49980000Y-160500000D03*
%TD*%
D30*
%TO.C,C20*%
X53760000Y-170795000D03*
X52210000Y-170795000D03*
%TD*%
D10*
%TO.C,R13*%
X79500000Y-173990000D03*
X79500000Y-175010000D03*
%TD*%
D31*
%TO.C,J3*%
X75080000Y-181000000D03*
D26*
X72540000Y-181000000D03*
X70000000Y-181000000D03*
X67460000Y-181000000D03*
X64920000Y-181000000D03*
%TD*%
D13*
%TO.C,H3*%
X84000000Y-167500000D03*
%TD*%
D23*
%TO.C,R26*%
X65500000Y-152510000D03*
X65500000Y-151490000D03*
%TD*%
D12*
%TO.C,C23*%
X78000000Y-173725000D03*
X78000000Y-175275000D03*
%TD*%
D17*
%TO.C,R5*%
X51990000Y-163500000D03*
X53010000Y-163500000D03*
%TD*%
%TO.C,R4*%
X47990000Y-168250000D03*
X49010000Y-168250000D03*
%TD*%
D32*
%TO.C,R8*%
X53010000Y-166500000D03*
X51990000Y-166500000D03*
%TD*%
D33*
%TO.C,U2*%
X52050000Y-175137500D03*
X53000000Y-175137500D03*
X53950000Y-175137500D03*
X53950000Y-172862500D03*
X52050000Y-172862500D03*
%TD*%
D28*
%TO.C,C4*%
X39000000Y-166475000D03*
X39000000Y-163525000D03*
%TD*%
%TO.C,C3*%
X41500000Y-166475000D03*
X41500000Y-163525000D03*
%TD*%
D34*
%TO.C,J5*%
X58225000Y-181000000D03*
D26*
X60765000Y-181000000D03*
%TD*%
D35*
%TO.C,L1*%
X45775000Y-152000000D03*
X51225000Y-152000000D03*
%TD*%
D32*
%TO.C,R9*%
X47510000Y-172000000D03*
X46490000Y-172000000D03*
%TD*%
%TO.C,R2*%
X36010000Y-160500000D03*
X34990000Y-160500000D03*
%TD*%
D29*
%TO.C,C8*%
X52020000Y-161500000D03*
X52980000Y-161500000D03*
%TD*%
D15*
%TO.C,H7*%
X34250000Y-150250000D03*
D16*
X34250000Y-150250000D03*
%TD*%
D11*
%TO.C,C17*%
X39000000Y-157025000D03*
X39000000Y-159975000D03*
%TD*%
D10*
%TO.C,R16*%
X79500000Y-164990000D03*
X79500000Y-166010000D03*
%TD*%
%TO.C,R25*%
X69500000Y-155750000D03*
X69500000Y-156770000D03*
%TD*%
D20*
%TO.C,C30*%
X67725000Y-170000000D03*
X69275000Y-170000000D03*
%TD*%
D12*
%TO.C,C27*%
X78000000Y-161725000D03*
X78000000Y-163275000D03*
%TD*%
D13*
%TO.C,H5*%
X84000000Y-159500000D03*
%TD*%
D23*
%TO.C,R18*%
X79500000Y-160010000D03*
X79500000Y-158990000D03*
%TD*%
D36*
%TO.C,D2*%
X71500000Y-155679200D03*
X71500000Y-158320800D03*
%TD*%
D28*
%TO.C,C14*%
X59250000Y-164975000D03*
X59250000Y-162025000D03*
%TD*%
D30*
%TO.C,C21*%
X45275000Y-170500000D03*
X43725000Y-170500000D03*
%TD*%
D34*
%TO.C,J1*%
X44210000Y-181000000D03*
D26*
X46750000Y-181000000D03*
%TD*%
D37*
%TO.C,R21*%
X78912500Y-151000000D03*
X77087500Y-151000000D03*
%TD*%
D15*
%TO.C,H9*%
X83250000Y-181250000D03*
D16*
X83250000Y-181250000D03*
%TD*%
D30*
%TO.C,C22*%
X45275000Y-172000000D03*
X43725000Y-172000000D03*
%TD*%
D10*
%TO.C,R15*%
X79500000Y-167990000D03*
X79500000Y-169010000D03*
%TD*%
D23*
%TO.C,R12*%
X43500000Y-176010000D03*
X43500000Y-174990000D03*
%TD*%
D25*
%TO.C,TP1*%
X33000000Y-167500000D03*
%TD*%
D23*
%TO.C,R27*%
X65000000Y-167510000D03*
X65000000Y-166490000D03*
%TD*%
D34*
%TO.C,J4*%
X51225000Y-181000000D03*
D26*
X53765000Y-181000000D03*
%TD*%
D17*
%TO.C,R7*%
X51990000Y-167500000D03*
X53010000Y-167500000D03*
%TD*%
D30*
%TO.C,C19*%
X53760000Y-177295000D03*
X52210000Y-177295000D03*
%TD*%
D20*
%TO.C,C29*%
X71725000Y-170000000D03*
X73275000Y-170000000D03*
%TD*%
D10*
%TO.C,R23*%
X73500000Y-156990000D03*
X73500000Y-158010000D03*
%TD*%
D38*
%TO.C,U4*%
X73421000Y-168074999D03*
X73421000Y-167425000D03*
X73421000Y-166775002D03*
X73421000Y-166125001D03*
X73421000Y-165475002D03*
X73421000Y-164825001D03*
X73421000Y-164175002D03*
X73421000Y-163525001D03*
X73421000Y-162875002D03*
X73421000Y-162225001D03*
X73421000Y-161575002D03*
X73421000Y-160925001D03*
X67579000Y-160925001D03*
X67579000Y-161575000D03*
X67579000Y-162225001D03*
X67579000Y-162874999D03*
X67579000Y-163525001D03*
X67579000Y-164174999D03*
X67579000Y-164824998D03*
X67579000Y-165474999D03*
X67579000Y-166124998D03*
X67579000Y-166774999D03*
X67579000Y-167424998D03*
X67579000Y-168074999D03*
%TD*%
D10*
%TO.C,R10*%
X48500000Y-173990000D03*
X48500000Y-175010000D03*
%TD*%
D32*
%TO.C,R19*%
X79010000Y-177000000D03*
X77990000Y-177000000D03*
%TD*%
D39*
%TO.C,C6*%
X45000000Y-167775000D03*
X45000000Y-166225000D03*
%TD*%
D40*
%TO.C,JST2*%
X61257500Y-151300000D03*
D41*
X57297500Y-151300000D03*
%TD*%
D42*
%TO.C,JST1*%
X32742500Y-179950000D03*
D41*
X36702500Y-179950000D03*
%TD*%
D43*
%TO.C,U1*%
X46697745Y-162501514D03*
D44*
X47149431Y-162250200D03*
D45*
X46600002Y-162900001D03*
X46600002Y-163300000D03*
X46600002Y-163700002D03*
X46600002Y-164100001D03*
X46600002Y-164500000D03*
X46600002Y-164900002D03*
X46600002Y-165300001D03*
D46*
X46649068Y-165699257D03*
D47*
X47097609Y-165950180D03*
D48*
X47500000Y-166000000D03*
X47900002Y-166000000D03*
X48300001Y-166000000D03*
X48700001Y-166000000D03*
X49100000Y-166000000D03*
X49500002Y-166000000D03*
D49*
X49898885Y-165957363D03*
D50*
X50349509Y-165708006D03*
D51*
X50350000Y-165300001D03*
D52*
X50375001Y-164899999D03*
D53*
X50360000Y-164500000D03*
D45*
X50400000Y-164100001D03*
X50400000Y-163700002D03*
X50400000Y-163300000D03*
X50400000Y-162900001D03*
D44*
X49850961Y-162249822D03*
D43*
X50299251Y-162498872D03*
D54*
X49400002Y-162400002D03*
X48950000Y-162400002D03*
X48500001Y-162400002D03*
X48050002Y-162400002D03*
D55*
X47600000Y-162375001D03*
%TD*%
D20*
%TO.C,C31*%
X77225000Y-157000000D03*
X78775000Y-157000000D03*
%TD*%
D21*
%TO.C,C7*%
X52980000Y-164500000D03*
X52020000Y-164500000D03*
%TD*%
D56*
%TO.C,D1*%
X36287500Y-162000000D03*
X34712500Y-162000000D03*
%TD*%
D57*
%TO.C,U5*%
X67470000Y-155560000D03*
X66830000Y-155560000D03*
X66170000Y-155560000D03*
X65530000Y-155560000D03*
D58*
X66500000Y-157385000D03*
%TD*%
D11*
%TO.C,C18*%
X58000000Y-157025000D03*
X58000000Y-159975000D03*
%TD*%
D10*
%TO.C,R22*%
X77000000Y-152490000D03*
X77000000Y-153510000D03*
%TD*%
D27*
%TO.C,C5*%
X45000000Y-163520000D03*
X45000000Y-164480000D03*
%TD*%
D10*
%TO.C,R20*%
X79000000Y-152490000D03*
X79000000Y-153510000D03*
%TD*%
D30*
%TO.C,C32*%
X77275000Y-155000000D03*
X75725000Y-155000000D03*
%TD*%
M02*
