%TF.GenerationSoftware,KiCad,Pcbnew,9.0.6+1*%
%TF.CreationDate,Date%
%TF.ProjectId,solar_smart_station,736f6c61-725f-4736-9d61-72745f737461,+ (Unreleased)*%
%TF.SameCoordinates,Original*%
%TF.FileFunction,Copper,L4,Bot*%
%TF.FilePolarity,Positive*%
%FSLAX46Y46*%
G04 Gerber Fmt 4.6, Leading zero omitted, Abs format (unit mm)*
G04 Created by KiCad*
%MOMM*%
%LPD*%
G01*
G04 APERTURE LIST*
G04 Aperture macros list*
%AMRoundRect*
0 Rectangle with rounded corners*
0 $1 Rounding radius*
0 $2 $3 $4 $5 $6 $7 $8 $9 X,Y pos of 4 corners*
0 Add a 4 corners polygon primitive as box body*
4,1,4,$2,$3,$4,$5,$6,$7,$8,$9,$2,$3,0*
0 Add four circle primitives for the rounded corners*
1,1,$1+$1,$2,$3*
1,1,$1+$1,$4,$5*
1,1,$1+$1,$6,$7*
1,1,$1+$1,$8,$9*
0 Add four rect primitives between the rounded corners*
20,1,$1+$1,$2,$3,$4,$5,0*
20,1,$1+$1,$4,$5,$6,$7,0*
20,1,$1+$1,$6,$7,$8,$9,0*
20,1,$1+$1,$8,$9,$2,$3,0*%
G04 Aperture macros list end*
%TA.AperFunction,ComponentPad*%
%ADD10R,2.500000X2.500000*%
%TD*%
%TA.AperFunction,ComponentPad*%
%ADD11C,3.600000*%
%TD*%
%TA.AperFunction,ConnectorPad*%
%ADD12C,5.600000*%
%TD*%
%TA.AperFunction,ComponentPad*%
%ADD13R,1.700000X1.700000*%
%TD*%
%TA.AperFunction,ComponentPad*%
%ADD14C,1.700000*%
%TD*%
%TA.AperFunction,ComponentPad*%
%ADD15RoundRect,0.250001X1.099999X1.099999X-1.099999X1.099999X-1.099999X-1.099999X1.099999X-1.099999X0*%
%TD*%
%TA.AperFunction,ComponentPad*%
%ADD16C,2.700000*%
%TD*%
%TA.AperFunction,ComponentPad*%
%ADD17RoundRect,0.250001X-1.099999X-1.099999X1.099999X-1.099999X1.099999X1.099999X-1.099999X1.099999X0*%
%TD*%
%TA.AperFunction,ViaPad*%
%ADD18C,0.550000*%
%TD*%
%TA.AperFunction,Conductor*%
%ADD19C,0.160000*%
%TD*%
%TA.AperFunction,Conductor*%
%ADD20C,0.200000*%
%TD*%
G04 APERTURE END LIST*
D10*
%TO.P,H4,1,1*%
%TO.N,Net-(H4-Pad1)*%
X84000000Y-163500000D03*
%TD*%
D11*
%TO.P,H8,1,1*%
%TO.N,unconnected-(H8-Pad1)_2*%
X83250000Y-150000000D03*
D12*
%TO.N,unconnected-(H8-Pad1)_1*%
X83250000Y-150000000D03*
%TD*%
D10*
%TO.P,H2,1,1*%
%TO.N,Net-(H2-Pad1)*%
X84000000Y-171500000D03*
%TD*%
%TO.P,H6,1,1*%
%TO.N,-BATT*%
X84000000Y-155500000D03*
%TD*%
D13*
%TO.P,J2,1,Pin_1*%
%TO.N,REGN_5V*%
X57000000Y-172475000D03*
D14*
%TO.P,J2,2,Pin_2*%
%TO.N,LDO_IN*%
X57000000Y-175015000D03*
%TD*%
D10*
%TO.P,H1,1,1*%
%TO.N,BATTERY_PACK*%
X84000000Y-175500000D03*
%TD*%
D13*
%TO.P,J3,1,Pin_1*%
%TO.N,VCC*%
X75080000Y-181000000D03*
D14*
%TO.P,J3,2,Pin_2*%
%TO.N,SWDIO*%
X72540000Y-181000000D03*
%TO.P,J3,3,Pin_3*%
%TO.N,SWCLK*%
X70000000Y-181000000D03*
%TO.P,J3,4,Pin_4*%
%TO.N,RST*%
X67460000Y-181000000D03*
%TO.P,J3,5,Pin_5*%
%TO.N,GND*%
X64920000Y-181000000D03*
%TD*%
D10*
%TO.P,H3,1,1*%
%TO.N,Net-(H3-Pad1)*%
X84000000Y-167500000D03*
%TD*%
D13*
%TO.P,J8,1,Pin_1*%
%TO.N,THERMISTOR_2*%
X58225000Y-181000000D03*
D14*
%TO.P,J8,2,Pin_2*%
%TO.N,GND*%
X60765000Y-181000000D03*
%TD*%
D11*
%TO.P,H7,1,1*%
%TO.N,GND*%
X34250000Y-150250000D03*
D12*
X34250000Y-150250000D03*
%TD*%
D10*
%TO.P,H5,1,1*%
%TO.N,Net-(H5-Pad1)*%
X84000000Y-159500000D03*
%TD*%
D13*
%TO.P,J1,1,Pin_1*%
%TO.N,CE_N*%
X44210000Y-181000000D03*
D14*
%TO.P,J1,2,Pin_2*%
%TO.N,GND*%
X46750000Y-181000000D03*
%TD*%
D11*
%TO.P,H9,1,1*%
%TO.N,GND*%
X83250000Y-181250000D03*
D12*
X83250000Y-181250000D03*
%TD*%
D13*
%TO.P,TP1,1,1*%
%TO.N,/Project Architecture/SolarCharger/QON*%
X33000000Y-167500000D03*
%TD*%
%TO.P,J7,1,Pin_1*%
%TO.N,THERMISTOR*%
X51225000Y-181000000D03*
D14*
%TO.P,J7,2,Pin_2*%
%TO.N,GND*%
X53765000Y-181000000D03*
%TD*%
D15*
%TO.P,J5,1,Pin_1*%
%TO.N,SYSTEM_LOAD*%
X61257500Y-151300000D03*
D16*
%TO.P,J5,2,Pin_2*%
%TO.N,GND*%
X57297500Y-151300000D03*
%TD*%
D17*
%TO.P,J4,1,Pin_1*%
%TO.N,+21V*%
X32742500Y-179950000D03*
D16*
%TO.P,J4,2,Pin_2*%
%TO.N,GND*%
X36702500Y-179950000D03*
%TD*%
D18*
%TO.N,GND*%
X39000000Y-155750000D03*
X53750000Y-163500000D03*
X59250000Y-166250000D03*
X41500000Y-168015000D03*
X55500000Y-155750000D03*
X44000000Y-155750000D03*
X58000000Y-155750000D03*
X36500000Y-173750000D03*
X54750000Y-177750000D03*
X39000000Y-168015000D03*
X53000000Y-155750000D03*
X54750000Y-177000000D03*
X56750000Y-166250000D03*
X53750000Y-161500000D03*
X47750000Y-165250000D03*
X41500000Y-155750000D03*
%TO.N,Net-(U1-SW1)*%
X48050002Y-163250000D03*
X46500000Y-155750000D03*
X45000000Y-165250000D03*
X46500000Y-158000000D03*
X46500000Y-157250000D03*
X48050002Y-163949998D03*
X46500000Y-156500000D03*
%TO.N,Net-(U1-SW2)*%
X48950000Y-163250000D03*
X50500000Y-156500000D03*
X50500000Y-157250000D03*
X50500000Y-158000000D03*
X53750000Y-164500000D03*
X50500000Y-155750000D03*
X48950000Y-163950000D03*
%TO.N,BATTERY_PACK*%
X59750000Y-163000000D03*
X56750000Y-163750000D03*
X58750000Y-163750000D03*
X60750000Y-163750000D03*
X55750000Y-163750000D03*
X57750000Y-163000000D03*
X60750000Y-163000000D03*
X60750000Y-162250000D03*
X56750000Y-163000000D03*
X57750000Y-163750000D03*
X55750000Y-163000000D03*
X58750000Y-163000000D03*
X59750000Y-163750000D03*
%TO.N,+3V3*%
X48499000Y-172000000D03*
X74000000Y-179000000D03*
X43750000Y-169500000D03*
X51250000Y-170750000D03*
%TO.N,REGN_5V*%
X36000000Y-160500000D03*
X53750000Y-167500000D03*
X44000000Y-166250000D03*
%TO.N,/Project Architecture/SolarCharger/QON*%
X47640540Y-167215154D03*
%TO.N,-BATT*%
X79500000Y-161000000D03*
X75750000Y-156000000D03*
X79000000Y-149750000D03*
X64750000Y-155500000D03*
X71750000Y-171000000D03*
X75750000Y-154000000D03*
%TO.N,CE_N*%
X48533841Y-167230993D03*
%TO.N,RST*%
X48500000Y-170500000D03*
%TO.N,SWDIO*%
X45500000Y-178250000D03*
%TO.N,SWCLK*%
X46500000Y-178250000D03*
%TO.N,SCL*%
X49385961Y-167246832D03*
X46500000Y-170500000D03*
%TO.N,INT_N*%
X49250000Y-175000000D03*
X48948814Y-164846338D03*
%TO.N,SDA*%
X50218376Y-167239664D03*
X42750000Y-176000000D03*
%TD*%
D19*
%TO.N,/Project Architecture/SolarCharger/QON*%
X47355694Y-167500000D02*
X33000000Y-167500000D01*
X47640540Y-167215154D02*
X47355694Y-167500000D01*
%TO.N,CE_N*%
X42234000Y-179009000D02*
X44225000Y-181000000D01*
X48533841Y-167230993D02*
X42234000Y-173530834D01*
X42234000Y-173530834D02*
X42234000Y-179009000D01*
D20*
%TO.N,RST*%
X54126000Y-176126000D02*
X62586000Y-176126000D01*
X48500000Y-170500000D02*
X54126000Y-176126000D01*
X62586000Y-176126000D02*
X67460000Y-181000000D01*
D19*
%TO.N,SWDIO*%
X71128000Y-182412000D02*
X72540000Y-181000000D01*
X46016000Y-178766000D02*
X46355038Y-178766000D01*
X50001038Y-182412000D02*
X71128000Y-182412000D01*
X45500000Y-178250000D02*
X46016000Y-178766000D01*
X46355038Y-178766000D02*
X50001038Y-182412000D01*
%TO.N,SWCLK*%
X46500000Y-178250000D02*
X46500000Y-178457000D01*
X46500000Y-178457000D02*
X50134000Y-182091000D01*
X50134000Y-182091000D02*
X68909000Y-182091000D01*
X68909000Y-182091000D02*
X70000000Y-181000000D01*
D20*
%TO.N,SCL*%
X49385961Y-167614039D02*
X49385961Y-167246832D01*
X46500000Y-170500000D02*
X49385961Y-167614039D01*
D19*
%TO.N,INT_N*%
X47984000Y-170286265D02*
X47984000Y-173734000D01*
X50734376Y-166631900D02*
X50734376Y-167535889D01*
X47984000Y-173734000D02*
X49250000Y-175000000D01*
X50734376Y-167535889D02*
X47984000Y-170286265D01*
X48948814Y-164846338D02*
X50734376Y-166631900D01*
%TO.N,SDA*%
X50218376Y-167511359D02*
X42750000Y-174979735D01*
X42750000Y-174979735D02*
X42750000Y-176000000D01*
X50218376Y-167239664D02*
X50218376Y-167511359D01*
%TD*%
%TA.AperFunction,Conductor*%
%TO.N,BATTERY_PACK*%
G36*
X61443039Y-161519685D02*
G01*
X61488794Y-161572489D01*
X61500000Y-161624000D01*
X61500000Y-167750000D01*
X67500000Y-173250000D01*
X86375500Y-173250000D01*
X86442539Y-173269685D01*
X86488294Y-173322489D01*
X86499500Y-173374000D01*
X86499500Y-178876000D01*
X86479815Y-178943039D01*
X86427011Y-178988794D01*
X86375500Y-179000000D01*
X85220253Y-179000000D01*
X85153214Y-178980315D01*
X85142940Y-178972947D01*
X85131321Y-178963681D01*
X84965856Y-178831727D01*
X84684306Y-178654818D01*
X84684303Y-178654816D01*
X84384723Y-178510546D01*
X84070874Y-178400725D01*
X84070862Y-178400721D01*
X83820675Y-178343618D01*
X83746684Y-178326730D01*
X83746680Y-178326729D01*
X83746671Y-178326728D01*
X83416262Y-178289500D01*
X83416258Y-178289500D01*
X83083742Y-178289500D01*
X83083737Y-178289500D01*
X82753328Y-178326728D01*
X82753316Y-178326730D01*
X82429137Y-178400721D01*
X82429125Y-178400725D01*
X82115276Y-178510546D01*
X81815696Y-178654816D01*
X81534145Y-178831726D01*
X81357060Y-178972947D01*
X81292373Y-178999356D01*
X81279747Y-179000000D01*
X74546011Y-179000000D01*
X74478972Y-178980315D01*
X74433217Y-178927511D01*
X74426238Y-178908100D01*
X74405821Y-178831903D01*
X74405820Y-178831901D01*
X74405818Y-178831896D01*
X74348491Y-178732603D01*
X74348485Y-178732595D01*
X74267404Y-178651514D01*
X74267396Y-178651508D01*
X74168103Y-178594181D01*
X74168098Y-178594179D01*
X74140406Y-178586759D01*
X74057335Y-178564500D01*
X73942665Y-178564500D01*
X73876207Y-178582307D01*
X73831901Y-178594179D01*
X73831896Y-178594181D01*
X73732603Y-178651508D01*
X73732595Y-178651514D01*
X73651514Y-178732595D01*
X73651508Y-178732603D01*
X73594181Y-178831896D01*
X73594179Y-178831901D01*
X73589426Y-178849642D01*
X73573762Y-178908095D01*
X73537399Y-178967754D01*
X73474552Y-178998283D01*
X73453989Y-179000000D01*
X65879765Y-179000000D01*
X65812726Y-178980315D01*
X65792084Y-178963681D01*
X62733562Y-175905160D01*
X62733561Y-175905159D01*
X62637817Y-175865500D01*
X60480418Y-175865500D01*
X60452612Y-175857335D01*
X60424123Y-175851985D01*
X60416792Y-175846817D01*
X60413379Y-175845815D01*
X60395276Y-175831649D01*
X60349893Y-175788787D01*
X58761884Y-174289001D01*
X58669929Y-174202155D01*
X82250000Y-174202155D01*
X82250000Y-175250000D01*
X83451518Y-175250000D01*
X83440889Y-175268409D01*
X83400000Y-175421009D01*
X83400000Y-175578991D01*
X83440889Y-175731591D01*
X83451518Y-175750000D01*
X82250000Y-175750000D01*
X82250000Y-176797844D01*
X82256401Y-176857372D01*
X82256403Y-176857379D01*
X82306645Y-176992086D01*
X82306649Y-176992093D01*
X82392809Y-177107187D01*
X82392812Y-177107190D01*
X82507906Y-177193350D01*
X82507913Y-177193354D01*
X82642620Y-177243596D01*
X82642627Y-177243598D01*
X82702155Y-177249999D01*
X82702172Y-177250000D01*
X83750000Y-177250000D01*
X83750000Y-176048482D01*
X83768409Y-176059111D01*
X83921009Y-176100000D01*
X84078991Y-176100000D01*
X84231591Y-176059111D01*
X84250000Y-176048482D01*
X84250000Y-177250000D01*
X85297828Y-177250000D01*
X85297844Y-177249999D01*
X85357372Y-177243598D01*
X85357379Y-177243596D01*
X85492086Y-177193354D01*
X85492093Y-177193350D01*
X85607187Y-177107190D01*
X85607190Y-177107187D01*
X85693350Y-176992093D01*
X85693354Y-176992086D01*
X85743596Y-176857379D01*
X85743598Y-176857372D01*
X85749999Y-176797844D01*
X85750000Y-176797827D01*
X85750000Y-175750000D01*
X84548482Y-175750000D01*
X84559111Y-175731591D01*
X84600000Y-175578991D01*
X84600000Y-175421009D01*
X84559111Y-175268409D01*
X84548482Y-175250000D01*
X85750000Y-175250000D01*
X85750000Y-174202172D01*
X85749999Y-174202155D01*
X85743598Y-174142627D01*
X85743596Y-174142620D01*
X85693354Y-174007913D01*
X85693350Y-174007906D01*
X85607190Y-173892812D01*
X85607187Y-173892809D01*
X85492093Y-173806649D01*
X85492086Y-173806645D01*
X85357379Y-173756403D01*
X85357372Y-173756401D01*
X85297844Y-173750000D01*
X84250000Y-173750000D01*
X84250000Y-174951517D01*
X84231591Y-174940889D01*
X84078991Y-174900000D01*
X83921009Y-174900000D01*
X83768409Y-174940889D01*
X83750000Y-174951517D01*
X83750000Y-173750000D01*
X82702155Y-173750000D01*
X82642627Y-173756401D01*
X82642620Y-173756403D01*
X82507913Y-173806645D01*
X82507906Y-173806649D01*
X82392812Y-173892809D01*
X82392809Y-173892812D01*
X82306649Y-174007906D01*
X82306645Y-174007913D01*
X82256403Y-174142620D01*
X82256401Y-174142627D01*
X82250000Y-174202155D01*
X58669929Y-174202155D01*
X58002408Y-173571718D01*
X57967185Y-173511376D01*
X57970177Y-173441570D01*
X57984448Y-173412676D01*
X58001187Y-173387624D01*
X58010500Y-173340808D01*
X58010500Y-171609191D01*
X58001187Y-171562376D01*
X57997539Y-171556916D01*
X57965714Y-171509286D01*
X57912624Y-171473813D01*
X57912623Y-171473812D01*
X57865808Y-171464500D01*
X57865806Y-171464500D01*
X56134194Y-171464500D01*
X56134192Y-171464500D01*
X56087376Y-171473812D01*
X56034286Y-171509286D01*
X56032398Y-171512112D01*
X56026689Y-171516882D01*
X56025650Y-171517922D01*
X56025556Y-171517828D01*
X55978785Y-171556916D01*
X55909460Y-171565622D01*
X55846433Y-171535466D01*
X55844156Y-171533369D01*
X54788859Y-170536700D01*
X54753636Y-170476358D01*
X54750000Y-170446550D01*
X54750000Y-166192665D01*
X56314500Y-166192665D01*
X56314500Y-166307335D01*
X56336759Y-166390406D01*
X56344179Y-166418098D01*
X56344181Y-166418103D01*
X56401508Y-166517396D01*
X56401512Y-166517401D01*
X56401513Y-166517403D01*
X56482597Y-166598487D01*
X56482599Y-166598488D01*
X56482603Y-166598491D01*
X56581896Y-166655818D01*
X56581901Y-166655820D01*
X56581903Y-166655821D01*
X56692665Y-166685500D01*
X56692668Y-166685500D01*
X56807332Y-166685500D01*
X56807335Y-166685500D01*
X56918097Y-166655821D01*
X56918100Y-166655819D01*
X56918103Y-166655818D01*
X57017396Y-166598491D01*
X57017395Y-166598491D01*
X57017403Y-166598487D01*
X57098487Y-166517403D01*
X57155821Y-166418097D01*
X57185500Y-166307335D01*
X57185500Y-166192665D01*
X58814500Y-166192665D01*
X58814500Y-166307335D01*
X58836759Y-166390406D01*
X58844179Y-166418098D01*
X58844181Y-166418103D01*
X58901508Y-166517396D01*
X58901512Y-166517401D01*
X58901513Y-166517403D01*
X58982597Y-166598487D01*
X58982599Y-166598488D01*
X58982603Y-166598491D01*
X59081896Y-166655818D01*
X59081901Y-166655820D01*
X59081903Y-166655821D01*
X59192665Y-166685500D01*
X59192668Y-166685500D01*
X59307332Y-166685500D01*
X59307335Y-166685500D01*
X59418097Y-166655821D01*
X59418100Y-166655819D01*
X59418103Y-166655818D01*
X59517396Y-166598491D01*
X59517395Y-166598491D01*
X59517403Y-166598487D01*
X59598487Y-166517403D01*
X59655821Y-166418097D01*
X59685500Y-166307335D01*
X59685500Y-166192665D01*
X59655821Y-166081903D01*
X59655820Y-166081901D01*
X59655818Y-166081896D01*
X59598491Y-165982603D01*
X59598485Y-165982595D01*
X59517404Y-165901514D01*
X59517396Y-165901508D01*
X59418103Y-165844181D01*
X59418098Y-165844179D01*
X59390406Y-165836759D01*
X59307335Y-165814500D01*
X59192665Y-165814500D01*
X59126207Y-165832307D01*
X59081901Y-165844179D01*
X59081896Y-165844181D01*
X58982603Y-165901508D01*
X58982595Y-165901514D01*
X58901514Y-165982595D01*
X58901508Y-165982603D01*
X58844181Y-166081896D01*
X58844179Y-166081901D01*
X58842143Y-166089500D01*
X58814500Y-166192665D01*
X57185500Y-166192665D01*
X57155821Y-166081903D01*
X57155820Y-166081901D01*
X57155818Y-166081896D01*
X57098491Y-165982603D01*
X57098485Y-165982595D01*
X57017404Y-165901514D01*
X57017396Y-165901508D01*
X56918103Y-165844181D01*
X56918098Y-165844179D01*
X56890406Y-165836759D01*
X56807335Y-165814500D01*
X56692665Y-165814500D01*
X56626207Y-165832307D01*
X56581901Y-165844179D01*
X56581896Y-165844181D01*
X56482603Y-165901508D01*
X56482595Y-165901514D01*
X56401514Y-165982595D01*
X56401508Y-165982603D01*
X56344181Y-166081896D01*
X56344179Y-166081901D01*
X56342143Y-166089500D01*
X56314500Y-166192665D01*
X54750000Y-166192665D01*
X54750000Y-161624000D01*
X54769685Y-161556961D01*
X54822489Y-161511206D01*
X54874000Y-161500000D01*
X61376000Y-161500000D01*
X61443039Y-161519685D01*
G37*
%TD.AperFunction*%
%TD*%
M02*
