%TF.GenerationSoftware,KiCad,Pcbnew,9.0.6+1*%
%TF.CreationDate,Date%
%TF.ProjectId,solar_smart_station,736f6c61-725f-4736-9d61-72745f737461,+ (Unreleased)*%
%TF.SameCoordinates,Original*%
%TF.FileFunction,Legend,Top*%
%TF.FilePolarity,Positive*%
%FSLAX46Y46*%
G04 Gerber Fmt 4.6, Leading zero omitted, Abs format (unit mm)*
G04 Created by KiCad*
%MOMM*%
%LPD*%
G01*
G04 APERTURE LIST*
G04 Aperture macros list*
%AMRoundRect*
0 Rectangle with rounded corners*
0 $1 Rounding radius*
0 $2 $3 $4 $5 $6 $7 $8 $9 X,Y pos of 4 corners*
0 Add a 4 corners polygon primitive as box body*
4,1,4,$2,$3,$4,$5,$6,$7,$8,$9,$2,$3,0*
0 Add four circle primitives for the rounded corners*
1,1,$1+$1,$2,$3*
1,1,$1+$1,$4,$5*
1,1,$1+$1,$6,$7*
1,1,$1+$1,$8,$9*
0 Add four rect primitives between the rounded corners*
20,1,$1+$1,$2,$3,$4,$5,0*
20,1,$1+$1,$4,$5,$6,$7,0*
20,1,$1+$1,$6,$7,$8,$9,0*
20,1,$1+$1,$8,$9,$2,$3,0*%
%AMFreePoly0*
4,1,13,0.135355,0.385355,0.150000,0.350000,0.150000,-0.350000,0.135355,-0.385355,0.100000,-0.400000,-0.100000,-0.400000,-0.135355,-0.385355,-0.150000,-0.350000,-0.150000,0.350000,-0.135355,0.385355,-0.100000,0.400000,0.100000,0.400000,0.135355,0.385355,0.135355,0.385355,$1*%
%AMFreePoly1*
4,1,13,0.385355,0.135355,0.400000,0.100000,0.400000,-0.100000,0.385355,-0.135355,0.350000,-0.150000,-0.350000,-0.150000,-0.385355,-0.135355,-0.400000,-0.100000,-0.400000,0.100000,-0.385355,0.135355,-0.350000,0.150000,0.350000,0.150000,0.385355,0.135355,0.385355,0.135355,$1*%
%AMFreePoly2*
4,1,37,1.406355,1.260355,1.421000,1.225000,1.421000,0.720000,1.406355,0.684645,1.371000,0.670000,1.000000,0.670000,1.000000,0.630000,1.370000,0.630000,1.405355,0.615355,1.420000,0.580000,1.420000,0.080000,1.405355,0.044645,1.370000,0.030000,1.000000,0.030000,1.000000,-0.030000,1.370000,-0.030000,1.405355,-0.044645,1.420000,-0.080000,1.420000,-0.580000,1.405355,-0.615355,
1.370000,-0.630000,1.000000,-0.630000,1.000000,-0.670000,1.370000,-0.670000,1.405355,-0.684645,1.420000,-0.720000,1.420000,-1.225000,1.405355,-1.260355,1.370000,-1.275000,-0.950000,-1.275000,-0.985355,-1.260355,-1.000000,-1.225000,-1.000000,1.225000,-0.985355,1.260355,-0.950000,1.275000,1.371000,1.275000,1.406355,1.260355,1.406355,1.260355,$1*%
G04 Aperture macros list end*
%ADD10C,0.150000*%
%ADD11C,0.120000*%
%ADD12C,0.152400*%
%ADD13C,0.000000*%
%ADD14C,0.250000*%
%ADD15RoundRect,0.160000X-0.210000X0.160000X-0.210000X-0.160000X0.210000X-0.160000X0.210000X0.160000X0*%
%ADD16RoundRect,0.271739X-0.678261X0.353261X-0.678261X-0.353261X0.678261X-0.353261X0.678261X0.353261X0*%
%ADD17RoundRect,0.250000X-0.275000X0.250000X-0.275000X-0.250000X0.275000X-0.250000X0.275000X0.250000X0*%
%ADD18RoundRect,0.050000X-1.250000X-1.250000X1.250000X-1.250000X1.250000X1.250000X-1.250000X1.250000X0*%
%ADD19RoundRect,0.175000X-0.612500X-0.175000X0.612500X-0.175000X0.612500X0.175000X-0.612500X0.175000X0*%
%ADD20C,3.700000*%
%ADD21C,5.700000*%
%ADD22RoundRect,0.160000X-0.160000X-0.210000X0.160000X-0.210000X0.160000X0.210000X-0.160000X0.210000X0*%
%ADD23RoundRect,0.175000X0.612500X0.175000X-0.612500X0.175000X-0.612500X-0.175000X0.612500X-0.175000X0*%
%ADD24RoundRect,0.275000X0.275000X0.500000X-0.275000X0.500000X-0.275000X-0.500000X0.275000X-0.500000X0*%
%ADD25RoundRect,0.250000X-0.250000X-0.275000X0.250000X-0.275000X0.250000X0.275000X-0.250000X0.275000X0*%
%ADD26RoundRect,0.165000X0.165000X0.195000X-0.165000X0.195000X-0.165000X-0.195000X0.165000X-0.195000X0*%
%ADD27RoundRect,0.050000X0.850000X-0.850000X0.850000X0.850000X-0.850000X0.850000X-0.850000X-0.850000X0*%
%ADD28C,1.800000*%
%ADD29RoundRect,0.137500X-0.137500X0.575000X-0.137500X-0.575000X0.137500X-0.575000X0.137500X0.575000X0*%
%ADD30RoundRect,0.160000X0.210000X-0.160000X0.210000X0.160000X-0.210000X0.160000X-0.210000X-0.160000X0*%
%ADD31RoundRect,0.270409X-0.392091X-1.104591X0.392091X-1.104591X0.392091X1.104591X-0.392091X1.104591X0*%
%ADD32RoundRect,0.050000X-0.850000X-0.850000X0.850000X-0.850000X0.850000X0.850000X-0.850000X0.850000X0*%
%ADD33RoundRect,0.165000X-0.195000X0.165000X-0.195000X-0.165000X0.195000X-0.165000X0.195000X0.165000X0*%
%ADD34RoundRect,0.271739X0.678261X-0.353261X0.678261X0.353261X-0.678261X0.353261X-0.678261X-0.353261X0*%
%ADD35RoundRect,0.165000X-0.165000X-0.195000X0.165000X-0.195000X0.165000X0.195000X-0.165000X0.195000X0*%
%ADD36RoundRect,0.250000X0.250000X0.275000X-0.250000X0.275000X-0.250000X-0.275000X0.250000X-0.275000X0*%
%ADD37RoundRect,0.050000X-0.850000X0.850000X-0.850000X-0.850000X0.850000X-0.850000X0.850000X0.850000X0*%
%ADD38RoundRect,0.160000X0.160000X0.210000X-0.160000X0.210000X-0.160000X-0.210000X0.160000X-0.210000X0*%
%ADD39RoundRect,0.175000X0.175000X-0.537500X0.175000X0.537500X-0.175000X0.537500X-0.175000X-0.537500X0*%
%ADD40RoundRect,0.050000X-1.475000X-1.750000X1.475000X-1.750000X1.475000X1.750000X-1.475000X1.750000X0*%
%ADD41RoundRect,0.050000X-0.419100X0.228600X-0.419100X-0.228600X0.419100X-0.228600X0.419100X0.228600X0*%
%ADD42RoundRect,0.274390X0.288110X0.475610X-0.288110X0.475610X-0.288110X-0.475610X0.288110X-0.475610X0*%
%ADD43RoundRect,0.050000X0.736600X0.177800X-0.736600X0.177800X-0.736600X-0.177800X0.736600X-0.177800X0*%
%ADD44RoundRect,0.250000X0.275000X-0.250000X0.275000X0.250000X-0.275000X0.250000X-0.275000X-0.250000X0*%
%ADD45RoundRect,0.259260X1.140740X1.140740X-1.140740X1.140740X-1.140740X-1.140740X1.140740X-1.140740X0*%
%ADD46C,2.800000*%
%ADD47RoundRect,0.259260X-1.140740X-1.140740X1.140740X-1.140740X1.140740X1.140740X-1.140740X1.140740X0*%
%ADD48RoundRect,0.050000X0.400000X-0.100000X0.400000X0.100000X-0.400000X0.100000X-0.400000X-0.100000X0*%
%ADD49RoundRect,0.050000X-0.100000X-0.350000X0.100000X-0.350000X0.100000X0.350000X-0.100000X0.350000X0*%
%ADD50RoundRect,0.050000X-0.299999X-0.100000X0.299999X-0.100000X0.299999X0.100000X-0.299999X0.100000X0*%
%ADD51RoundRect,0.050000X-0.350000X-0.100000X0.350000X-0.100000X0.350000X0.100000X-0.350000X0.100000X0*%
%ADD52RoundRect,0.050000X0.100000X-0.350000X0.100000X0.350000X-0.100000X0.350000X-0.100000X-0.350000X0*%
%ADD53RoundRect,0.050000X0.100000X-0.299999X0.100000X0.299999X-0.100000X0.299999X-0.100000X-0.299999X0*%
%ADD54FreePoly0,0.000000*%
%ADD55FreePoly1,0.000000*%
%ADD56RoundRect,0.050000X-0.350000X-0.100000X0.350000X-0.100000X0.350000X0.100000X-0.350000X0.100000X0*%
%ADD57RoundRect,0.050000X-0.325000X-0.100000X0.325000X-0.100000X0.325000X0.100000X-0.325000X0.100000X0*%
%ADD58RoundRect,0.050000X-0.340000X-0.100000X0.340000X-0.100000X0.340000X0.100000X-0.340000X0.100000X0*%
%ADD59RoundRect,0.050000X-0.100000X-0.500000X0.100000X-0.500000X0.100000X0.500000X-0.100000X0.500000X0*%
%ADD60RoundRect,0.050000X-0.100000X-0.475000X0.100000X-0.475000X0.100000X0.475000X-0.100000X0.475000X0*%
%ADD61RoundRect,0.243750X0.243750X0.281250X-0.243750X0.281250X-0.243750X-0.281250X0.243750X-0.281250X0*%
%ADD62RoundRect,0.137500X-0.137500X0.227500X-0.137500X-0.227500X0.137500X-0.227500X0.137500X0.227500X0*%
%ADD63FreePoly2,270.000000*%
G04 APERTURE END LIST*
D10*
X73038200Y-178922744D02*
X73095342Y-178751316D01*
X73095342Y-178751316D02*
X73095342Y-178465601D01*
X73095342Y-178465601D02*
X73038200Y-178351316D01*
X73038200Y-178351316D02*
X72981057Y-178294173D01*
X72981057Y-178294173D02*
X72866771Y-178237030D01*
X72866771Y-178237030D02*
X72752485Y-178237030D01*
X72752485Y-178237030D02*
X72638200Y-178294173D01*
X72638200Y-178294173D02*
X72581057Y-178351316D01*
X72581057Y-178351316D02*
X72523914Y-178465601D01*
X72523914Y-178465601D02*
X72466771Y-178694173D01*
X72466771Y-178694173D02*
X72409628Y-178808458D01*
X72409628Y-178808458D02*
X72352485Y-178865601D01*
X72352485Y-178865601D02*
X72238200Y-178922744D01*
X72238200Y-178922744D02*
X72123914Y-178922744D01*
X72123914Y-178922744D02*
X72009628Y-178865601D01*
X72009628Y-178865601D02*
X71952485Y-178808458D01*
X71952485Y-178808458D02*
X71895342Y-178694173D01*
X71895342Y-178694173D02*
X71895342Y-178408458D01*
X71895342Y-178408458D02*
X71952485Y-178237030D01*
X71895342Y-177837030D02*
X73095342Y-177551316D01*
X73095342Y-177551316D02*
X72238200Y-177322744D01*
X72238200Y-177322744D02*
X73095342Y-177094173D01*
X73095342Y-177094173D02*
X71895342Y-176808459D01*
X73095342Y-176351315D02*
X71895342Y-176351315D01*
X71895342Y-176351315D02*
X71895342Y-176065601D01*
X71895342Y-176065601D02*
X71952485Y-175894172D01*
X71952485Y-175894172D02*
X72066771Y-175779887D01*
X72066771Y-175779887D02*
X72181057Y-175722744D01*
X72181057Y-175722744D02*
X72409628Y-175665601D01*
X72409628Y-175665601D02*
X72581057Y-175665601D01*
X72581057Y-175665601D02*
X72809628Y-175722744D01*
X72809628Y-175722744D02*
X72923914Y-175779887D01*
X72923914Y-175779887D02*
X73038200Y-175894172D01*
X73038200Y-175894172D02*
X73095342Y-176065601D01*
X73095342Y-176065601D02*
X73095342Y-176351315D01*
X73095342Y-175151315D02*
X71895342Y-175151315D01*
X71895342Y-174351315D02*
X71895342Y-174122743D01*
X71895342Y-174122743D02*
X71952485Y-174008458D01*
X71952485Y-174008458D02*
X72066771Y-173894172D01*
X72066771Y-173894172D02*
X72295342Y-173837029D01*
X72295342Y-173837029D02*
X72695342Y-173837029D01*
X72695342Y-173837029D02*
X72923914Y-173894172D01*
X72923914Y-173894172D02*
X73038200Y-174008458D01*
X73038200Y-174008458D02*
X73095342Y-174122743D01*
X73095342Y-174122743D02*
X73095342Y-174351315D01*
X73095342Y-174351315D02*
X73038200Y-174465601D01*
X73038200Y-174465601D02*
X72923914Y-174579886D01*
X72923914Y-174579886D02*
X72695342Y-174637029D01*
X72695342Y-174637029D02*
X72295342Y-174637029D01*
X72295342Y-174637029D02*
X72066771Y-174579886D01*
X72066771Y-174579886D02*
X71952485Y-174465601D01*
X71952485Y-174465601D02*
X71895342Y-174351315D01*
X65153445Y-184470200D02*
X65382017Y-184546390D01*
X65382017Y-184546390D02*
X65762969Y-184546390D01*
X65762969Y-184546390D02*
X65915350Y-184470200D01*
X65915350Y-184470200D02*
X65991541Y-184394009D01*
X65991541Y-184394009D02*
X66067731Y-184241628D01*
X66067731Y-184241628D02*
X66067731Y-184089247D01*
X66067731Y-184089247D02*
X65991541Y-183936866D01*
X65991541Y-183936866D02*
X65915350Y-183860676D01*
X65915350Y-183860676D02*
X65762969Y-183784485D01*
X65762969Y-183784485D02*
X65458207Y-183708295D01*
X65458207Y-183708295D02*
X65305826Y-183632104D01*
X65305826Y-183632104D02*
X65229636Y-183555914D01*
X65229636Y-183555914D02*
X65153445Y-183403533D01*
X65153445Y-183403533D02*
X65153445Y-183251152D01*
X65153445Y-183251152D02*
X65229636Y-183098771D01*
X65229636Y-183098771D02*
X65305826Y-183022580D01*
X65305826Y-183022580D02*
X65458207Y-182946390D01*
X65458207Y-182946390D02*
X65839160Y-182946390D01*
X65839160Y-182946390D02*
X66067731Y-183022580D01*
X66601065Y-182946390D02*
X66982017Y-184546390D01*
X66982017Y-184546390D02*
X67286779Y-183403533D01*
X67286779Y-183403533D02*
X67591541Y-184546390D01*
X67591541Y-184546390D02*
X67972494Y-182946390D01*
X68582017Y-184546390D02*
X68582017Y-182946390D01*
X68582017Y-182946390D02*
X68962969Y-182946390D01*
X68962969Y-182946390D02*
X69191541Y-183022580D01*
X69191541Y-183022580D02*
X69343922Y-183174961D01*
X69343922Y-183174961D02*
X69420112Y-183327342D01*
X69420112Y-183327342D02*
X69496303Y-183632104D01*
X69496303Y-183632104D02*
X69496303Y-183860676D01*
X69496303Y-183860676D02*
X69420112Y-184165438D01*
X69420112Y-184165438D02*
X69343922Y-184317819D01*
X69343922Y-184317819D02*
X69191541Y-184470200D01*
X69191541Y-184470200D02*
X68962969Y-184546390D01*
X68962969Y-184546390D02*
X68582017Y-184546390D01*
X71401065Y-184546390D02*
X71401065Y-182946390D01*
X71401065Y-182946390D02*
X72010589Y-182946390D01*
X72010589Y-182946390D02*
X72162970Y-183022580D01*
X72162970Y-183022580D02*
X72239160Y-183098771D01*
X72239160Y-183098771D02*
X72315351Y-183251152D01*
X72315351Y-183251152D02*
X72315351Y-183479723D01*
X72315351Y-183479723D02*
X72239160Y-183632104D01*
X72239160Y-183632104D02*
X72162970Y-183708295D01*
X72162970Y-183708295D02*
X72010589Y-183784485D01*
X72010589Y-183784485D02*
X71401065Y-183784485D01*
X73915351Y-184546390D02*
X73382017Y-183784485D01*
X73001065Y-184546390D02*
X73001065Y-182946390D01*
X73001065Y-182946390D02*
X73610589Y-182946390D01*
X73610589Y-182946390D02*
X73762970Y-183022580D01*
X73762970Y-183022580D02*
X73839160Y-183098771D01*
X73839160Y-183098771D02*
X73915351Y-183251152D01*
X73915351Y-183251152D02*
X73915351Y-183479723D01*
X73915351Y-183479723D02*
X73839160Y-183632104D01*
X73839160Y-183632104D02*
X73762970Y-183708295D01*
X73762970Y-183708295D02*
X73610589Y-183784485D01*
X73610589Y-183784485D02*
X73001065Y-183784485D01*
X75439160Y-183022580D02*
X75286779Y-182946390D01*
X75286779Y-182946390D02*
X75058208Y-182946390D01*
X75058208Y-182946390D02*
X74829636Y-183022580D01*
X74829636Y-183022580D02*
X74677255Y-183174961D01*
X74677255Y-183174961D02*
X74601065Y-183327342D01*
X74601065Y-183327342D02*
X74524874Y-183632104D01*
X74524874Y-183632104D02*
X74524874Y-183860676D01*
X74524874Y-183860676D02*
X74601065Y-184165438D01*
X74601065Y-184165438D02*
X74677255Y-184317819D01*
X74677255Y-184317819D02*
X74829636Y-184470200D01*
X74829636Y-184470200D02*
X75058208Y-184546390D01*
X75058208Y-184546390D02*
X75210589Y-184546390D01*
X75210589Y-184546390D02*
X75439160Y-184470200D01*
X75439160Y-184470200D02*
X75515351Y-184394009D01*
X75515351Y-184394009D02*
X75515351Y-183860676D01*
X75515351Y-183860676D02*
X75210589Y-183860676D01*
X49751064Y-182946390D02*
X50665350Y-182946390D01*
X50208207Y-184546390D02*
X50208207Y-182946390D01*
X51198684Y-184546390D02*
X51198684Y-182946390D01*
X51884398Y-184546390D02*
X51884398Y-183708295D01*
X51884398Y-183708295D02*
X51808208Y-183555914D01*
X51808208Y-183555914D02*
X51655827Y-183479723D01*
X51655827Y-183479723D02*
X51427255Y-183479723D01*
X51427255Y-183479723D02*
X51274874Y-183555914D01*
X51274874Y-183555914D02*
X51198684Y-183632104D01*
X53255827Y-184470200D02*
X53103446Y-184546390D01*
X53103446Y-184546390D02*
X52798684Y-184546390D01*
X52798684Y-184546390D02*
X52646303Y-184470200D01*
X52646303Y-184470200D02*
X52570112Y-184317819D01*
X52570112Y-184317819D02*
X52570112Y-183708295D01*
X52570112Y-183708295D02*
X52646303Y-183555914D01*
X52646303Y-183555914D02*
X52798684Y-183479723D01*
X52798684Y-183479723D02*
X53103446Y-183479723D01*
X53103446Y-183479723D02*
X53255827Y-183555914D01*
X53255827Y-183555914D02*
X53332017Y-183708295D01*
X53332017Y-183708295D02*
X53332017Y-183860676D01*
X53332017Y-183860676D02*
X52570112Y-184013057D01*
X54017732Y-184546390D02*
X54017732Y-183479723D01*
X54017732Y-183784485D02*
X54093922Y-183632104D01*
X54093922Y-183632104D02*
X54170113Y-183555914D01*
X54170113Y-183555914D02*
X54322494Y-183479723D01*
X54322494Y-183479723D02*
X54474875Y-183479723D01*
X55846303Y-184546390D02*
X54932017Y-184546390D01*
X55389160Y-184546390D02*
X55389160Y-182946390D01*
X55389160Y-182946390D02*
X55236779Y-183174961D01*
X55236779Y-183174961D02*
X55084398Y-183327342D01*
X55084398Y-183327342D02*
X54932017Y-183403533D01*
X74645342Y-178787030D02*
X75845342Y-178387030D01*
X75845342Y-178387030D02*
X74645342Y-177987030D01*
X75731057Y-176901316D02*
X75788200Y-176958459D01*
X75788200Y-176958459D02*
X75845342Y-177129887D01*
X75845342Y-177129887D02*
X75845342Y-177244173D01*
X75845342Y-177244173D02*
X75788200Y-177415602D01*
X75788200Y-177415602D02*
X75673914Y-177529887D01*
X75673914Y-177529887D02*
X75559628Y-177587030D01*
X75559628Y-177587030D02*
X75331057Y-177644173D01*
X75331057Y-177644173D02*
X75159628Y-177644173D01*
X75159628Y-177644173D02*
X74931057Y-177587030D01*
X74931057Y-177587030D02*
X74816771Y-177529887D01*
X74816771Y-177529887D02*
X74702485Y-177415602D01*
X74702485Y-177415602D02*
X74645342Y-177244173D01*
X74645342Y-177244173D02*
X74645342Y-177129887D01*
X74645342Y-177129887D02*
X74702485Y-176958459D01*
X74702485Y-176958459D02*
X74759628Y-176901316D01*
X75731057Y-175701316D02*
X75788200Y-175758459D01*
X75788200Y-175758459D02*
X75845342Y-175929887D01*
X75845342Y-175929887D02*
X75845342Y-176044173D01*
X75845342Y-176044173D02*
X75788200Y-176215602D01*
X75788200Y-176215602D02*
X75673914Y-176329887D01*
X75673914Y-176329887D02*
X75559628Y-176387030D01*
X75559628Y-176387030D02*
X75331057Y-176444173D01*
X75331057Y-176444173D02*
X75159628Y-176444173D01*
X75159628Y-176444173D02*
X74931057Y-176387030D01*
X74931057Y-176387030D02*
X74816771Y-176329887D01*
X74816771Y-176329887D02*
X74702485Y-176215602D01*
X74702485Y-176215602D02*
X74645342Y-176044173D01*
X74645342Y-176044173D02*
X74645342Y-175929887D01*
X74645342Y-175929887D02*
X74702485Y-175758459D01*
X74702485Y-175758459D02*
X74759628Y-175701316D01*
X68095342Y-178179887D02*
X67523914Y-178579887D01*
X68095342Y-178865601D02*
X66895342Y-178865601D01*
X66895342Y-178865601D02*
X66895342Y-178408458D01*
X66895342Y-178408458D02*
X66952485Y-178294173D01*
X66952485Y-178294173D02*
X67009628Y-178237030D01*
X67009628Y-178237030D02*
X67123914Y-178179887D01*
X67123914Y-178179887D02*
X67295342Y-178179887D01*
X67295342Y-178179887D02*
X67409628Y-178237030D01*
X67409628Y-178237030D02*
X67466771Y-178294173D01*
X67466771Y-178294173D02*
X67523914Y-178408458D01*
X67523914Y-178408458D02*
X67523914Y-178865601D01*
X68038200Y-177722744D02*
X68095342Y-177551316D01*
X68095342Y-177551316D02*
X68095342Y-177265601D01*
X68095342Y-177265601D02*
X68038200Y-177151316D01*
X68038200Y-177151316D02*
X67981057Y-177094173D01*
X67981057Y-177094173D02*
X67866771Y-177037030D01*
X67866771Y-177037030D02*
X67752485Y-177037030D01*
X67752485Y-177037030D02*
X67638200Y-177094173D01*
X67638200Y-177094173D02*
X67581057Y-177151316D01*
X67581057Y-177151316D02*
X67523914Y-177265601D01*
X67523914Y-177265601D02*
X67466771Y-177494173D01*
X67466771Y-177494173D02*
X67409628Y-177608458D01*
X67409628Y-177608458D02*
X67352485Y-177665601D01*
X67352485Y-177665601D02*
X67238200Y-177722744D01*
X67238200Y-177722744D02*
X67123914Y-177722744D01*
X67123914Y-177722744D02*
X67009628Y-177665601D01*
X67009628Y-177665601D02*
X66952485Y-177608458D01*
X66952485Y-177608458D02*
X66895342Y-177494173D01*
X66895342Y-177494173D02*
X66895342Y-177208458D01*
X66895342Y-177208458D02*
X66952485Y-177037030D01*
X66895342Y-176694173D02*
X66895342Y-176008459D01*
X68095342Y-176351316D02*
X66895342Y-176351316D01*
X64452485Y-178237030D02*
X64395342Y-178351316D01*
X64395342Y-178351316D02*
X64395342Y-178522744D01*
X64395342Y-178522744D02*
X64452485Y-178694173D01*
X64452485Y-178694173D02*
X64566771Y-178808458D01*
X64566771Y-178808458D02*
X64681057Y-178865601D01*
X64681057Y-178865601D02*
X64909628Y-178922744D01*
X64909628Y-178922744D02*
X65081057Y-178922744D01*
X65081057Y-178922744D02*
X65309628Y-178865601D01*
X65309628Y-178865601D02*
X65423914Y-178808458D01*
X65423914Y-178808458D02*
X65538200Y-178694173D01*
X65538200Y-178694173D02*
X65595342Y-178522744D01*
X65595342Y-178522744D02*
X65595342Y-178408458D01*
X65595342Y-178408458D02*
X65538200Y-178237030D01*
X65538200Y-178237030D02*
X65481057Y-178179887D01*
X65481057Y-178179887D02*
X65081057Y-178179887D01*
X65081057Y-178179887D02*
X65081057Y-178408458D01*
X65595342Y-177665601D02*
X64395342Y-177665601D01*
X64395342Y-177665601D02*
X65595342Y-176979887D01*
X65595342Y-176979887D02*
X64395342Y-176979887D01*
X65595342Y-176408458D02*
X64395342Y-176408458D01*
X64395342Y-176408458D02*
X64395342Y-176122744D01*
X64395342Y-176122744D02*
X64452485Y-175951315D01*
X64452485Y-175951315D02*
X64566771Y-175837030D01*
X64566771Y-175837030D02*
X64681057Y-175779887D01*
X64681057Y-175779887D02*
X64909628Y-175722744D01*
X64909628Y-175722744D02*
X65081057Y-175722744D01*
X65081057Y-175722744D02*
X65309628Y-175779887D01*
X65309628Y-175779887D02*
X65423914Y-175837030D01*
X65423914Y-175837030D02*
X65538200Y-175951315D01*
X65538200Y-175951315D02*
X65595342Y-176122744D01*
X65595342Y-176122744D02*
X65595342Y-176408458D01*
X56501064Y-182946390D02*
X57415350Y-182946390D01*
X56958207Y-184546390D02*
X56958207Y-182946390D01*
X57948684Y-184546390D02*
X57948684Y-182946390D01*
X58634398Y-184546390D02*
X58634398Y-183708295D01*
X58634398Y-183708295D02*
X58558208Y-183555914D01*
X58558208Y-183555914D02*
X58405827Y-183479723D01*
X58405827Y-183479723D02*
X58177255Y-183479723D01*
X58177255Y-183479723D02*
X58024874Y-183555914D01*
X58024874Y-183555914D02*
X57948684Y-183632104D01*
X60005827Y-184470200D02*
X59853446Y-184546390D01*
X59853446Y-184546390D02*
X59548684Y-184546390D01*
X59548684Y-184546390D02*
X59396303Y-184470200D01*
X59396303Y-184470200D02*
X59320112Y-184317819D01*
X59320112Y-184317819D02*
X59320112Y-183708295D01*
X59320112Y-183708295D02*
X59396303Y-183555914D01*
X59396303Y-183555914D02*
X59548684Y-183479723D01*
X59548684Y-183479723D02*
X59853446Y-183479723D01*
X59853446Y-183479723D02*
X60005827Y-183555914D01*
X60005827Y-183555914D02*
X60082017Y-183708295D01*
X60082017Y-183708295D02*
X60082017Y-183860676D01*
X60082017Y-183860676D02*
X59320112Y-184013057D01*
X60767732Y-184546390D02*
X60767732Y-183479723D01*
X60767732Y-183784485D02*
X60843922Y-183632104D01*
X60843922Y-183632104D02*
X60920113Y-183555914D01*
X60920113Y-183555914D02*
X61072494Y-183479723D01*
X61072494Y-183479723D02*
X61224875Y-183479723D01*
X61682017Y-183098771D02*
X61758208Y-183022580D01*
X61758208Y-183022580D02*
X61910589Y-182946390D01*
X61910589Y-182946390D02*
X62291541Y-182946390D01*
X62291541Y-182946390D02*
X62443922Y-183022580D01*
X62443922Y-183022580D02*
X62520113Y-183098771D01*
X62520113Y-183098771D02*
X62596303Y-183251152D01*
X62596303Y-183251152D02*
X62596303Y-183403533D01*
X62596303Y-183403533D02*
X62520113Y-183632104D01*
X62520113Y-183632104D02*
X61605827Y-184546390D01*
X61605827Y-184546390D02*
X62596303Y-184546390D01*
X70538200Y-178922744D02*
X70595342Y-178751316D01*
X70595342Y-178751316D02*
X70595342Y-178465601D01*
X70595342Y-178465601D02*
X70538200Y-178351316D01*
X70538200Y-178351316D02*
X70481057Y-178294173D01*
X70481057Y-178294173D02*
X70366771Y-178237030D01*
X70366771Y-178237030D02*
X70252485Y-178237030D01*
X70252485Y-178237030D02*
X70138200Y-178294173D01*
X70138200Y-178294173D02*
X70081057Y-178351316D01*
X70081057Y-178351316D02*
X70023914Y-178465601D01*
X70023914Y-178465601D02*
X69966771Y-178694173D01*
X69966771Y-178694173D02*
X69909628Y-178808458D01*
X69909628Y-178808458D02*
X69852485Y-178865601D01*
X69852485Y-178865601D02*
X69738200Y-178922744D01*
X69738200Y-178922744D02*
X69623914Y-178922744D01*
X69623914Y-178922744D02*
X69509628Y-178865601D01*
X69509628Y-178865601D02*
X69452485Y-178808458D01*
X69452485Y-178808458D02*
X69395342Y-178694173D01*
X69395342Y-178694173D02*
X69395342Y-178408458D01*
X69395342Y-178408458D02*
X69452485Y-178237030D01*
X69395342Y-177837030D02*
X70595342Y-177551316D01*
X70595342Y-177551316D02*
X69738200Y-177322744D01*
X69738200Y-177322744D02*
X70595342Y-177094173D01*
X70595342Y-177094173D02*
X69395342Y-176808459D01*
X70481057Y-175665601D02*
X70538200Y-175722744D01*
X70538200Y-175722744D02*
X70595342Y-175894172D01*
X70595342Y-175894172D02*
X70595342Y-176008458D01*
X70595342Y-176008458D02*
X70538200Y-176179887D01*
X70538200Y-176179887D02*
X70423914Y-176294172D01*
X70423914Y-176294172D02*
X70309628Y-176351315D01*
X70309628Y-176351315D02*
X70081057Y-176408458D01*
X70081057Y-176408458D02*
X69909628Y-176408458D01*
X69909628Y-176408458D02*
X69681057Y-176351315D01*
X69681057Y-176351315D02*
X69566771Y-176294172D01*
X69566771Y-176294172D02*
X69452485Y-176179887D01*
X69452485Y-176179887D02*
X69395342Y-176008458D01*
X69395342Y-176008458D02*
X69395342Y-175894172D01*
X69395342Y-175894172D02*
X69452485Y-175722744D01*
X69452485Y-175722744D02*
X69509628Y-175665601D01*
X70595342Y-174579887D02*
X70595342Y-175151315D01*
X70595342Y-175151315D02*
X69395342Y-175151315D01*
X70595342Y-174179886D02*
X69395342Y-174179886D01*
X70595342Y-173494172D02*
X69909628Y-174008458D01*
X69395342Y-173494172D02*
X70081057Y-174179886D01*
X45393922Y-184394009D02*
X45317731Y-184470200D01*
X45317731Y-184470200D02*
X45089160Y-184546390D01*
X45089160Y-184546390D02*
X44936779Y-184546390D01*
X44936779Y-184546390D02*
X44708207Y-184470200D01*
X44708207Y-184470200D02*
X44555826Y-184317819D01*
X44555826Y-184317819D02*
X44479636Y-184165438D01*
X44479636Y-184165438D02*
X44403445Y-183860676D01*
X44403445Y-183860676D02*
X44403445Y-183632104D01*
X44403445Y-183632104D02*
X44479636Y-183327342D01*
X44479636Y-183327342D02*
X44555826Y-183174961D01*
X44555826Y-183174961D02*
X44708207Y-183022580D01*
X44708207Y-183022580D02*
X44936779Y-182946390D01*
X44936779Y-182946390D02*
X45089160Y-182946390D01*
X45089160Y-182946390D02*
X45317731Y-183022580D01*
X45317731Y-183022580D02*
X45393922Y-183098771D01*
X46079636Y-183708295D02*
X46612969Y-183708295D01*
X46841541Y-184546390D02*
X46079636Y-184546390D01*
X46079636Y-184546390D02*
X46079636Y-182946390D01*
X46079636Y-182946390D02*
X46841541Y-182946390D01*
X68264761Y-150150057D02*
X68169523Y-150102438D01*
X68169523Y-150102438D02*
X68074285Y-150007200D01*
X68074285Y-150007200D02*
X67931428Y-149864342D01*
X67931428Y-149864342D02*
X67836190Y-149816723D01*
X67836190Y-149816723D02*
X67740952Y-149816723D01*
X67788571Y-150054819D02*
X67693333Y-150007200D01*
X67693333Y-150007200D02*
X67598095Y-149911961D01*
X67598095Y-149911961D02*
X67550476Y-149721485D01*
X67550476Y-149721485D02*
X67550476Y-149388152D01*
X67550476Y-149388152D02*
X67598095Y-149197676D01*
X67598095Y-149197676D02*
X67693333Y-149102438D01*
X67693333Y-149102438D02*
X67788571Y-149054819D01*
X67788571Y-149054819D02*
X67979047Y-149054819D01*
X67979047Y-149054819D02*
X68074285Y-149102438D01*
X68074285Y-149102438D02*
X68169523Y-149197676D01*
X68169523Y-149197676D02*
X68217142Y-149388152D01*
X68217142Y-149388152D02*
X68217142Y-149721485D01*
X68217142Y-149721485D02*
X68169523Y-149911961D01*
X68169523Y-149911961D02*
X68074285Y-150007200D01*
X68074285Y-150007200D02*
X67979047Y-150054819D01*
X67979047Y-150054819D02*
X67788571Y-150054819D01*
X68598095Y-149150057D02*
X68645714Y-149102438D01*
X68645714Y-149102438D02*
X68740952Y-149054819D01*
X68740952Y-149054819D02*
X68979047Y-149054819D01*
X68979047Y-149054819D02*
X69074285Y-149102438D01*
X69074285Y-149102438D02*
X69121904Y-149150057D01*
X69121904Y-149150057D02*
X69169523Y-149245295D01*
X69169523Y-149245295D02*
X69169523Y-149340533D01*
X69169523Y-149340533D02*
X69121904Y-149483390D01*
X69121904Y-149483390D02*
X68550476Y-150054819D01*
X68550476Y-150054819D02*
X69169523Y-150054819D01*
X72154761Y-150050057D02*
X72059523Y-150002438D01*
X72059523Y-150002438D02*
X71964285Y-149907200D01*
X71964285Y-149907200D02*
X71821428Y-149764342D01*
X71821428Y-149764342D02*
X71726190Y-149716723D01*
X71726190Y-149716723D02*
X71630952Y-149716723D01*
X71678571Y-149954819D02*
X71583333Y-149907200D01*
X71583333Y-149907200D02*
X71488095Y-149811961D01*
X71488095Y-149811961D02*
X71440476Y-149621485D01*
X71440476Y-149621485D02*
X71440476Y-149288152D01*
X71440476Y-149288152D02*
X71488095Y-149097676D01*
X71488095Y-149097676D02*
X71583333Y-149002438D01*
X71583333Y-149002438D02*
X71678571Y-148954819D01*
X71678571Y-148954819D02*
X71869047Y-148954819D01*
X71869047Y-148954819D02*
X71964285Y-149002438D01*
X71964285Y-149002438D02*
X72059523Y-149097676D01*
X72059523Y-149097676D02*
X72107142Y-149288152D01*
X72107142Y-149288152D02*
X72107142Y-149621485D01*
X72107142Y-149621485D02*
X72059523Y-149811961D01*
X72059523Y-149811961D02*
X71964285Y-149907200D01*
X71964285Y-149907200D02*
X71869047Y-149954819D01*
X71869047Y-149954819D02*
X71678571Y-149954819D01*
X73059523Y-149954819D02*
X72488095Y-149954819D01*
X72773809Y-149954819D02*
X72773809Y-148954819D01*
X72773809Y-148954819D02*
X72678571Y-149097676D01*
X72678571Y-149097676D02*
X72583333Y-149192914D01*
X72583333Y-149192914D02*
X72488095Y-149240533D01*
X41166666Y-180204819D02*
X41166666Y-180919104D01*
X41166666Y-180919104D02*
X41119047Y-181061961D01*
X41119047Y-181061961D02*
X41023809Y-181157200D01*
X41023809Y-181157200D02*
X40880952Y-181204819D01*
X40880952Y-181204819D02*
X40785714Y-181204819D01*
X42166666Y-181204819D02*
X41595238Y-181204819D01*
X41880952Y-181204819D02*
X41880952Y-180204819D01*
X41880952Y-180204819D02*
X41785714Y-180347676D01*
X41785714Y-180347676D02*
X41690476Y-180442914D01*
X41690476Y-180442914D02*
X41595238Y-180490533D01*
X42238095Y-177204819D02*
X42238095Y-178014342D01*
X42238095Y-178014342D02*
X42285714Y-178109580D01*
X42285714Y-178109580D02*
X42333333Y-178157200D01*
X42333333Y-178157200D02*
X42428571Y-178204819D01*
X42428571Y-178204819D02*
X42619047Y-178204819D01*
X42619047Y-178204819D02*
X42714285Y-178157200D01*
X42714285Y-178157200D02*
X42761904Y-178109580D01*
X42761904Y-178109580D02*
X42809523Y-178014342D01*
X42809523Y-178014342D02*
X42809523Y-177204819D01*
X43190476Y-177204819D02*
X43809523Y-177204819D01*
X43809523Y-177204819D02*
X43476190Y-177585771D01*
X43476190Y-177585771D02*
X43619047Y-177585771D01*
X43619047Y-177585771D02*
X43714285Y-177633390D01*
X43714285Y-177633390D02*
X43761904Y-177681009D01*
X43761904Y-177681009D02*
X43809523Y-177776247D01*
X43809523Y-177776247D02*
X43809523Y-178014342D01*
X43809523Y-178014342D02*
X43761904Y-178109580D01*
X43761904Y-178109580D02*
X43714285Y-178157200D01*
X43714285Y-178157200D02*
X43619047Y-178204819D01*
X43619047Y-178204819D02*
X43333333Y-178204819D01*
X43333333Y-178204819D02*
X43238095Y-178157200D01*
X43238095Y-178157200D02*
X43190476Y-178109580D01*
X56666666Y-169549819D02*
X56666666Y-170264104D01*
X56666666Y-170264104D02*
X56619047Y-170406961D01*
X56619047Y-170406961D02*
X56523809Y-170502200D01*
X56523809Y-170502200D02*
X56380952Y-170549819D01*
X56380952Y-170549819D02*
X56285714Y-170549819D01*
X57095238Y-169645057D02*
X57142857Y-169597438D01*
X57142857Y-169597438D02*
X57238095Y-169549819D01*
X57238095Y-169549819D02*
X57476190Y-169549819D01*
X57476190Y-169549819D02*
X57571428Y-169597438D01*
X57571428Y-169597438D02*
X57619047Y-169645057D01*
X57619047Y-169645057D02*
X57666666Y-169740295D01*
X57666666Y-169740295D02*
X57666666Y-169835533D01*
X57666666Y-169835533D02*
X57619047Y-169978390D01*
X57619047Y-169978390D02*
X57047619Y-170549819D01*
X57047619Y-170549819D02*
X57666666Y-170549819D01*
X77416666Y-180454819D02*
X77416666Y-181169104D01*
X77416666Y-181169104D02*
X77369047Y-181311961D01*
X77369047Y-181311961D02*
X77273809Y-181407200D01*
X77273809Y-181407200D02*
X77130952Y-181454819D01*
X77130952Y-181454819D02*
X77035714Y-181454819D01*
X77797619Y-180454819D02*
X78416666Y-180454819D01*
X78416666Y-180454819D02*
X78083333Y-180835771D01*
X78083333Y-180835771D02*
X78226190Y-180835771D01*
X78226190Y-180835771D02*
X78321428Y-180883390D01*
X78321428Y-180883390D02*
X78369047Y-180931009D01*
X78369047Y-180931009D02*
X78416666Y-181026247D01*
X78416666Y-181026247D02*
X78416666Y-181264342D01*
X78416666Y-181264342D02*
X78369047Y-181359580D01*
X78369047Y-181359580D02*
X78321428Y-181407200D01*
X78321428Y-181407200D02*
X78226190Y-181454819D01*
X78226190Y-181454819D02*
X77940476Y-181454819D01*
X77940476Y-181454819D02*
X77845238Y-181407200D01*
X77845238Y-181407200D02*
X77797619Y-181359580D01*
X49488095Y-172454819D02*
X49488095Y-173264342D01*
X49488095Y-173264342D02*
X49535714Y-173359580D01*
X49535714Y-173359580D02*
X49583333Y-173407200D01*
X49583333Y-173407200D02*
X49678571Y-173454819D01*
X49678571Y-173454819D02*
X49869047Y-173454819D01*
X49869047Y-173454819D02*
X49964285Y-173407200D01*
X49964285Y-173407200D02*
X50011904Y-173359580D01*
X50011904Y-173359580D02*
X50059523Y-173264342D01*
X50059523Y-173264342D02*
X50059523Y-172454819D01*
X50488095Y-172550057D02*
X50535714Y-172502438D01*
X50535714Y-172502438D02*
X50630952Y-172454819D01*
X50630952Y-172454819D02*
X50869047Y-172454819D01*
X50869047Y-172454819D02*
X50964285Y-172502438D01*
X50964285Y-172502438D02*
X51011904Y-172550057D01*
X51011904Y-172550057D02*
X51059523Y-172645295D01*
X51059523Y-172645295D02*
X51059523Y-172740533D01*
X51059523Y-172740533D02*
X51011904Y-172883390D01*
X51011904Y-172883390D02*
X50440476Y-173454819D01*
X50440476Y-173454819D02*
X51059523Y-173454819D01*
X59416666Y-177954819D02*
X59416666Y-178669104D01*
X59416666Y-178669104D02*
X59369047Y-178811961D01*
X59369047Y-178811961D02*
X59273809Y-178907200D01*
X59273809Y-178907200D02*
X59130952Y-178954819D01*
X59130952Y-178954819D02*
X59035714Y-178954819D01*
X60035714Y-178383390D02*
X59940476Y-178335771D01*
X59940476Y-178335771D02*
X59892857Y-178288152D01*
X59892857Y-178288152D02*
X59845238Y-178192914D01*
X59845238Y-178192914D02*
X59845238Y-178145295D01*
X59845238Y-178145295D02*
X59892857Y-178050057D01*
X59892857Y-178050057D02*
X59940476Y-178002438D01*
X59940476Y-178002438D02*
X60035714Y-177954819D01*
X60035714Y-177954819D02*
X60226190Y-177954819D01*
X60226190Y-177954819D02*
X60321428Y-178002438D01*
X60321428Y-178002438D02*
X60369047Y-178050057D01*
X60369047Y-178050057D02*
X60416666Y-178145295D01*
X60416666Y-178145295D02*
X60416666Y-178192914D01*
X60416666Y-178192914D02*
X60369047Y-178288152D01*
X60369047Y-178288152D02*
X60321428Y-178335771D01*
X60321428Y-178335771D02*
X60226190Y-178383390D01*
X60226190Y-178383390D02*
X60035714Y-178383390D01*
X60035714Y-178383390D02*
X59940476Y-178431009D01*
X59940476Y-178431009D02*
X59892857Y-178478628D01*
X59892857Y-178478628D02*
X59845238Y-178573866D01*
X59845238Y-178573866D02*
X59845238Y-178764342D01*
X59845238Y-178764342D02*
X59892857Y-178859580D01*
X59892857Y-178859580D02*
X59940476Y-178907200D01*
X59940476Y-178907200D02*
X60035714Y-178954819D01*
X60035714Y-178954819D02*
X60226190Y-178954819D01*
X60226190Y-178954819D02*
X60321428Y-178907200D01*
X60321428Y-178907200D02*
X60369047Y-178859580D01*
X60369047Y-178859580D02*
X60416666Y-178764342D01*
X60416666Y-178764342D02*
X60416666Y-178573866D01*
X60416666Y-178573866D02*
X60369047Y-178478628D01*
X60369047Y-178478628D02*
X60321428Y-178431009D01*
X60321428Y-178431009D02*
X60226190Y-178383390D01*
X48333333Y-148254819D02*
X47857143Y-148254819D01*
X47857143Y-148254819D02*
X47857143Y-147254819D01*
X49190476Y-148254819D02*
X48619048Y-148254819D01*
X48904762Y-148254819D02*
X48904762Y-147254819D01*
X48904762Y-147254819D02*
X48809524Y-147397676D01*
X48809524Y-147397676D02*
X48714286Y-147492914D01*
X48714286Y-147492914D02*
X48619048Y-147540533D01*
X72511905Y-155454819D02*
X72511905Y-154454819D01*
X72511905Y-154454819D02*
X72750000Y-154454819D01*
X72750000Y-154454819D02*
X72892857Y-154502438D01*
X72892857Y-154502438D02*
X72988095Y-154597676D01*
X72988095Y-154597676D02*
X73035714Y-154692914D01*
X73035714Y-154692914D02*
X73083333Y-154883390D01*
X73083333Y-154883390D02*
X73083333Y-155026247D01*
X73083333Y-155026247D02*
X73035714Y-155216723D01*
X73035714Y-155216723D02*
X72988095Y-155311961D01*
X72988095Y-155311961D02*
X72892857Y-155407200D01*
X72892857Y-155407200D02*
X72750000Y-155454819D01*
X72750000Y-155454819D02*
X72511905Y-155454819D01*
X73464286Y-154550057D02*
X73511905Y-154502438D01*
X73511905Y-154502438D02*
X73607143Y-154454819D01*
X73607143Y-154454819D02*
X73845238Y-154454819D01*
X73845238Y-154454819D02*
X73940476Y-154502438D01*
X73940476Y-154502438D02*
X73988095Y-154550057D01*
X73988095Y-154550057D02*
X74035714Y-154645295D01*
X74035714Y-154645295D02*
X74035714Y-154740533D01*
X74035714Y-154740533D02*
X73988095Y-154883390D01*
X73988095Y-154883390D02*
X73416667Y-155454819D01*
X73416667Y-155454819D02*
X74035714Y-155454819D01*
X70954819Y-155069599D02*
X71192914Y-155069599D01*
X71097676Y-155307694D02*
X71192914Y-155069599D01*
X71192914Y-155069599D02*
X71097676Y-154831504D01*
X71383390Y-155212456D02*
X71192914Y-155069599D01*
X71192914Y-155069599D02*
X71383390Y-154926742D01*
X72045180Y-155069600D02*
X71807085Y-155069600D01*
X71902323Y-154831505D02*
X71807085Y-155069600D01*
X71807085Y-155069600D02*
X71902323Y-155307695D01*
X71616609Y-154926743D02*
X71807085Y-155069600D01*
X71807085Y-155069600D02*
X71616609Y-155212457D01*
X51166666Y-178204819D02*
X51166666Y-178919104D01*
X51166666Y-178919104D02*
X51119047Y-179061961D01*
X51119047Y-179061961D02*
X51023809Y-179157200D01*
X51023809Y-179157200D02*
X50880952Y-179204819D01*
X50880952Y-179204819D02*
X50785714Y-179204819D01*
X51547619Y-178204819D02*
X52214285Y-178204819D01*
X52214285Y-178204819D02*
X51785714Y-179204819D01*
X69738095Y-158954819D02*
X69738095Y-159764342D01*
X69738095Y-159764342D02*
X69785714Y-159859580D01*
X69785714Y-159859580D02*
X69833333Y-159907200D01*
X69833333Y-159907200D02*
X69928571Y-159954819D01*
X69928571Y-159954819D02*
X70119047Y-159954819D01*
X70119047Y-159954819D02*
X70214285Y-159907200D01*
X70214285Y-159907200D02*
X70261904Y-159859580D01*
X70261904Y-159859580D02*
X70309523Y-159764342D01*
X70309523Y-159764342D02*
X70309523Y-158954819D01*
X71214285Y-159288152D02*
X71214285Y-159954819D01*
X70976190Y-158907200D02*
X70738095Y-159621485D01*
X70738095Y-159621485D02*
X71357142Y-159621485D01*
X74002244Y-169157827D02*
X74002244Y-168919732D01*
X74240339Y-169014970D02*
X74002244Y-168919732D01*
X74002244Y-168919732D02*
X73764149Y-169014970D01*
X74145101Y-168729256D02*
X74002244Y-168919732D01*
X74002244Y-168919732D02*
X73859387Y-168729256D01*
X74000000Y-168704819D02*
X74000000Y-168942914D01*
X73761905Y-168847676D02*
X74000000Y-168942914D01*
X74000000Y-168942914D02*
X74238095Y-168847676D01*
X73857143Y-169133390D02*
X74000000Y-168942914D01*
X74000000Y-168942914D02*
X74142857Y-169133390D01*
X53416666Y-147454819D02*
X53416666Y-148169104D01*
X53416666Y-148169104D02*
X53369047Y-148311961D01*
X53369047Y-148311961D02*
X53273809Y-148407200D01*
X53273809Y-148407200D02*
X53130952Y-148454819D01*
X53130952Y-148454819D02*
X53035714Y-148454819D01*
X54369047Y-147454819D02*
X53892857Y-147454819D01*
X53892857Y-147454819D02*
X53845238Y-147931009D01*
X53845238Y-147931009D02*
X53892857Y-147883390D01*
X53892857Y-147883390D02*
X53988095Y-147835771D01*
X53988095Y-147835771D02*
X54226190Y-147835771D01*
X54226190Y-147835771D02*
X54321428Y-147883390D01*
X54321428Y-147883390D02*
X54369047Y-147931009D01*
X54369047Y-147931009D02*
X54416666Y-148026247D01*
X54416666Y-148026247D02*
X54416666Y-148264342D01*
X54416666Y-148264342D02*
X54369047Y-148359580D01*
X54369047Y-148359580D02*
X54321428Y-148407200D01*
X54321428Y-148407200D02*
X54226190Y-148454819D01*
X54226190Y-148454819D02*
X53988095Y-148454819D01*
X53988095Y-148454819D02*
X53892857Y-148407200D01*
X53892857Y-148407200D02*
X53845238Y-148359580D01*
X34389166Y-174504819D02*
X34389166Y-175219104D01*
X34389166Y-175219104D02*
X34341547Y-175361961D01*
X34341547Y-175361961D02*
X34246309Y-175457200D01*
X34246309Y-175457200D02*
X34103452Y-175504819D01*
X34103452Y-175504819D02*
X34008214Y-175504819D01*
X35293928Y-174838152D02*
X35293928Y-175504819D01*
X35055833Y-174457200D02*
X34817738Y-175171485D01*
X34817738Y-175171485D02*
X35436785Y-175171485D01*
X45738095Y-166954819D02*
X45738095Y-167764342D01*
X45738095Y-167764342D02*
X45785714Y-167859580D01*
X45785714Y-167859580D02*
X45833333Y-167907200D01*
X45833333Y-167907200D02*
X45928571Y-167954819D01*
X45928571Y-167954819D02*
X46119047Y-167954819D01*
X46119047Y-167954819D02*
X46214285Y-167907200D01*
X46214285Y-167907200D02*
X46261904Y-167859580D01*
X46261904Y-167859580D02*
X46309523Y-167764342D01*
X46309523Y-167764342D02*
X46309523Y-166954819D01*
X47309523Y-167954819D02*
X46738095Y-167954819D01*
X47023809Y-167954819D02*
X47023809Y-166954819D01*
X47023809Y-166954819D02*
X46928571Y-167097676D01*
X46928571Y-167097676D02*
X46833333Y-167192914D01*
X46833333Y-167192914D02*
X46738095Y-167240533D01*
X32261905Y-162454819D02*
X32261905Y-161454819D01*
X32261905Y-161454819D02*
X32500000Y-161454819D01*
X32500000Y-161454819D02*
X32642857Y-161502438D01*
X32642857Y-161502438D02*
X32738095Y-161597676D01*
X32738095Y-161597676D02*
X32785714Y-161692914D01*
X32785714Y-161692914D02*
X32833333Y-161883390D01*
X32833333Y-161883390D02*
X32833333Y-162026247D01*
X32833333Y-162026247D02*
X32785714Y-162216723D01*
X32785714Y-162216723D02*
X32738095Y-162311961D01*
X32738095Y-162311961D02*
X32642857Y-162407200D01*
X32642857Y-162407200D02*
X32500000Y-162454819D01*
X32500000Y-162454819D02*
X32261905Y-162454819D01*
X33785714Y-162454819D02*
X33214286Y-162454819D01*
X33500000Y-162454819D02*
X33500000Y-161454819D01*
X33500000Y-161454819D02*
X33404762Y-161597676D01*
X33404762Y-161597676D02*
X33309524Y-161692914D01*
X33309524Y-161692914D02*
X33214286Y-161740533D01*
X62738095Y-156454819D02*
X62738095Y-157264342D01*
X62738095Y-157264342D02*
X62785714Y-157359580D01*
X62785714Y-157359580D02*
X62833333Y-157407200D01*
X62833333Y-157407200D02*
X62928571Y-157454819D01*
X62928571Y-157454819D02*
X63119047Y-157454819D01*
X63119047Y-157454819D02*
X63214285Y-157407200D01*
X63214285Y-157407200D02*
X63261904Y-157359580D01*
X63261904Y-157359580D02*
X63309523Y-157264342D01*
X63309523Y-157264342D02*
X63309523Y-156454819D01*
X64261904Y-156454819D02*
X63785714Y-156454819D01*
X63785714Y-156454819D02*
X63738095Y-156931009D01*
X63738095Y-156931009D02*
X63785714Y-156883390D01*
X63785714Y-156883390D02*
X63880952Y-156835771D01*
X63880952Y-156835771D02*
X64119047Y-156835771D01*
X64119047Y-156835771D02*
X64214285Y-156883390D01*
X64214285Y-156883390D02*
X64261904Y-156931009D01*
X64261904Y-156931009D02*
X64309523Y-157026247D01*
X64309523Y-157026247D02*
X64309523Y-157264342D01*
X64309523Y-157264342D02*
X64261904Y-157359580D01*
X64261904Y-157359580D02*
X64214285Y-157407200D01*
X64214285Y-157407200D02*
X64119047Y-157454819D01*
X64119047Y-157454819D02*
X63880952Y-157454819D01*
X63880952Y-157454819D02*
X63785714Y-157407200D01*
X63785714Y-157407200D02*
X63738095Y-157359580D01*
D11*
%TO.C,R28*%
X64620000Y-162846359D02*
X64620000Y-163153641D01*
X65380000Y-162846359D02*
X65380000Y-163153641D01*
%TO.C,C16*%
X54590000Y-157788748D02*
X54590000Y-159211252D01*
X56410000Y-157788748D02*
X56410000Y-159211252D01*
%TO.C,R30*%
X64620000Y-164846359D02*
X64620000Y-165153641D01*
X65380000Y-164846359D02*
X65380000Y-165153641D01*
%TO.C,C24*%
X77490000Y-171359420D02*
X77490000Y-171640580D01*
X78510000Y-171359420D02*
X78510000Y-171640580D01*
%TO.C,H4*%
X82550000Y-162050000D02*
X85450000Y-162050000D01*
X82550000Y-164950000D02*
X82550000Y-162050000D01*
X85450000Y-162050000D02*
X85450000Y-164950000D01*
X85450000Y-164950000D02*
X82550000Y-164950000D01*
%TO.C,Q2*%
X67600000Y-150440000D02*
X69120000Y-150440000D01*
X67600000Y-150490000D02*
X67600000Y-150440000D01*
X67600000Y-152390000D02*
X67600000Y-151610000D01*
X67600000Y-153560000D02*
X67600000Y-153510000D01*
X69120000Y-150440000D02*
X69120000Y-151440000D01*
X69120000Y-152560000D02*
X69120000Y-153560000D01*
X69120000Y-153560000D02*
X67600000Y-153560000D01*
X67300000Y-151950000D02*
X66820000Y-151950000D01*
X67060000Y-151620000D01*
X67300000Y-151950000D01*
G36*
X67300000Y-151950000D02*
G01*
X66820000Y-151950000D01*
X67060000Y-151620000D01*
X67300000Y-151950000D01*
G37*
%TO.C,C12*%
X43090000Y-157788748D02*
X43090000Y-159211252D01*
X44910000Y-157788748D02*
X44910000Y-159211252D01*
%TO.C,R3*%
X50346359Y-167870000D02*
X50653641Y-167870000D01*
X50346359Y-168630000D02*
X50653641Y-168630000D01*
%TO.C,Q1*%
X71600000Y-150440000D02*
X73120000Y-150440000D01*
X71600000Y-151440000D02*
X71600000Y-150440000D01*
X71600000Y-153560000D02*
X71600000Y-152560000D01*
X73120000Y-150440000D02*
X73120000Y-150490000D01*
X73120000Y-151610000D02*
X73120000Y-152390000D01*
X73120000Y-153510000D02*
X73120000Y-153560000D01*
X73120000Y-153560000D02*
X71600000Y-153560000D01*
X73660000Y-152380000D02*
X73420000Y-152050000D01*
X73900000Y-152050000D01*
X73660000Y-152380000D01*
G36*
X73660000Y-152380000D02*
G01*
X73420000Y-152050000D01*
X73900000Y-152050000D01*
X73660000Y-152380000D01*
G37*
%TO.C,H2*%
X82550000Y-170050000D02*
X85450000Y-170050000D01*
X82550000Y-172950000D02*
X82550000Y-170050000D01*
X85450000Y-170050000D02*
X85450000Y-172950000D01*
X85450000Y-172950000D02*
X82550000Y-172950000D01*
%TO.C,R6*%
X52346359Y-165120000D02*
X52653641Y-165120000D01*
X52346359Y-165880000D02*
X52653641Y-165880000D01*
%TO.C,C15*%
X40590000Y-157788748D02*
X40590000Y-159211252D01*
X42410000Y-157788748D02*
X42410000Y-159211252D01*
%TO.C,H6*%
X82550000Y-154050000D02*
X85450000Y-154050000D01*
X82550000Y-156950000D02*
X82550000Y-154050000D01*
X85450000Y-154050000D02*
X85450000Y-156950000D01*
X85450000Y-156950000D02*
X82550000Y-156950000D01*
%TO.C,C26*%
X77490000Y-165359420D02*
X77490000Y-165640580D01*
X78510000Y-165359420D02*
X78510000Y-165640580D01*
%TO.C,C1*%
X38811252Y-172967500D02*
X38288748Y-172967500D01*
X38811252Y-174437500D02*
X38288748Y-174437500D01*
%TO.C,R17*%
X79120000Y-162346359D02*
X79120000Y-162653641D01*
X79880000Y-162346359D02*
X79880000Y-162653641D01*
%TO.C,C33*%
X79359420Y-154490000D02*
X79640580Y-154490000D01*
X79359420Y-155510000D02*
X79640580Y-155510000D01*
%TO.C,R29*%
X64620000Y-160846359D02*
X64620000Y-161153641D01*
X65380000Y-160846359D02*
X65380000Y-161153641D01*
%TO.C,C9*%
X47607836Y-160140000D02*
X47392164Y-160140000D01*
X47607836Y-160860000D02*
X47392164Y-160860000D01*
%TO.C,J1*%
X42845000Y-182380000D02*
X42845000Y-181000000D01*
X44225000Y-182380000D02*
X42845000Y-182380000D01*
X45495000Y-179620000D02*
X48145000Y-179620000D01*
X45495000Y-182380000D02*
X45495000Y-179620000D01*
X45495000Y-182380000D02*
X48145000Y-182380000D01*
X48145000Y-182380000D02*
X48145000Y-179620000D01*
%TO.C,U3*%
X44440000Y-174590000D02*
X44515000Y-174590000D01*
X44440000Y-176410000D02*
X44440000Y-174590000D01*
X44515000Y-176410000D02*
X44440000Y-176410000D01*
X47485000Y-174590000D02*
X47560000Y-174590000D01*
X47560000Y-174590000D02*
X47560000Y-176410000D01*
X47560000Y-176410000D02*
X47485000Y-176410000D01*
X47820000Y-174290000D02*
X47490000Y-174050000D01*
X47820000Y-173810000D01*
X47820000Y-174290000D01*
G36*
X47820000Y-174290000D02*
G01*
X47490000Y-174050000D01*
X47820000Y-173810000D01*
X47820000Y-174290000D01*
G37*
%TO.C,C28*%
X77490000Y-159359420D02*
X77490000Y-159640580D01*
X78510000Y-159359420D02*
X78510000Y-159640580D01*
%TO.C,C13*%
X52090000Y-157788748D02*
X52090000Y-159211252D01*
X53910000Y-157788748D02*
X53910000Y-159211252D01*
%TO.C,R11*%
X48120000Y-176653641D02*
X48120000Y-176346359D01*
X48880000Y-176653641D02*
X48880000Y-176346359D01*
%TO.C,R1*%
X37022936Y-169342500D02*
X40077064Y-169342500D01*
X37022936Y-172062500D02*
X40077064Y-172062500D01*
%TO.C,J2*%
X55620000Y-171095000D02*
X57000000Y-171095000D01*
X55620000Y-172475000D02*
X55620000Y-171095000D01*
X55620000Y-173745000D02*
X55620000Y-176395000D01*
X55620000Y-173745000D02*
X58380000Y-173745000D01*
X55620000Y-176395000D02*
X58380000Y-176395000D01*
X58380000Y-173745000D02*
X58380000Y-176395000D01*
%TO.C,C25*%
X77490000Y-168359420D02*
X77490000Y-168640580D01*
X78510000Y-168359420D02*
X78510000Y-168640580D01*
%TO.C,R14*%
X79120000Y-171346359D02*
X79120000Y-171653641D01*
X79880000Y-171346359D02*
X79880000Y-171653641D01*
%TO.C,R24*%
X74620000Y-151846359D02*
X74620000Y-152153641D01*
X75380000Y-151846359D02*
X75380000Y-152153641D01*
%TO.C,C2*%
X44640000Y-161892164D02*
X44640000Y-162107836D01*
X45360000Y-161892164D02*
X45360000Y-162107836D01*
%TO.C,C11*%
X55840000Y-164211252D02*
X55840000Y-162788748D01*
X57660000Y-164211252D02*
X57660000Y-162788748D01*
%TO.C,H1*%
X82550000Y-174050000D02*
X85450000Y-174050000D01*
X82550000Y-176950000D02*
X82550000Y-174050000D01*
X85450000Y-174050000D02*
X85450000Y-176950000D01*
X85450000Y-176950000D02*
X82550000Y-176950000D01*
%TO.C,C10*%
X49392164Y-160140000D02*
X49607836Y-160140000D01*
X49392164Y-160860000D02*
X49607836Y-160860000D01*
%TO.C,C20*%
X53125580Y-170285000D02*
X52844420Y-170285000D01*
X53125580Y-171305000D02*
X52844420Y-171305000D01*
%TO.C,R13*%
X79120000Y-174346359D02*
X79120000Y-174653641D01*
X79880000Y-174346359D02*
X79880000Y-174653641D01*
%TO.C,J3*%
X63540000Y-179620000D02*
X63540000Y-182380000D01*
X73810000Y-179620000D02*
X63540000Y-179620000D01*
X73810000Y-179620000D02*
X73810000Y-182380000D01*
X73810000Y-182380000D02*
X63540000Y-182380000D01*
X75080000Y-179620000D02*
X76460000Y-179620000D01*
X76460000Y-179620000D02*
X76460000Y-181000000D01*
%TO.C,H3*%
X82550000Y-166050000D02*
X85450000Y-166050000D01*
X82550000Y-168950000D02*
X82550000Y-166050000D01*
X85450000Y-166050000D02*
X85450000Y-168950000D01*
X85450000Y-168950000D02*
X82550000Y-168950000D01*
%TO.C,R26*%
X65120000Y-152153641D02*
X65120000Y-151846359D01*
X65880000Y-152153641D02*
X65880000Y-151846359D01*
%TO.C,C23*%
X77490000Y-174359420D02*
X77490000Y-174640580D01*
X78510000Y-174359420D02*
X78510000Y-174640580D01*
%TO.C,R5*%
X52346359Y-163120000D02*
X52653641Y-163120000D01*
X52346359Y-163880000D02*
X52653641Y-163880000D01*
%TO.C,R4*%
X48346359Y-167870000D02*
X48653641Y-167870000D01*
X48346359Y-168630000D02*
X48653641Y-168630000D01*
%TO.C,R8*%
X52653641Y-166120000D02*
X52346359Y-166120000D01*
X52653641Y-166880000D02*
X52346359Y-166880000D01*
%TO.C,U2*%
X51440000Y-173090000D02*
X51490000Y-173090000D01*
X51440000Y-174910000D02*
X51440000Y-173090000D01*
X51490000Y-174910000D02*
X51440000Y-174910000D01*
X52610000Y-173090000D02*
X53390000Y-173090000D01*
X54510000Y-173090000D02*
X54560000Y-173090000D01*
X54560000Y-173090000D02*
X54560000Y-174910000D01*
X54560000Y-174910000D02*
X54510000Y-174910000D01*
X51490000Y-175450000D02*
X51160000Y-175690000D01*
X51160000Y-175210000D01*
X51490000Y-175450000D01*
G36*
X51490000Y-175450000D02*
G01*
X51160000Y-175690000D01*
X51160000Y-175210000D01*
X51490000Y-175450000D01*
G37*
%TO.C,C4*%
X38090000Y-165711252D02*
X38090000Y-164288748D01*
X39910000Y-165711252D02*
X39910000Y-164288748D01*
%TO.C,C3*%
X40590000Y-165711252D02*
X40590000Y-164288748D01*
X42410000Y-165711252D02*
X42410000Y-164288748D01*
%TO.C,J8*%
X56845000Y-182380000D02*
X56845000Y-181000000D01*
X58225000Y-182380000D02*
X56845000Y-182380000D01*
X59495000Y-179620000D02*
X62145000Y-179620000D01*
X59495000Y-182380000D02*
X59495000Y-179620000D01*
X59495000Y-182380000D02*
X62145000Y-182380000D01*
X62145000Y-182380000D02*
X62145000Y-179620000D01*
%TO.C,L1*%
X45040000Y-150050000D02*
X45040000Y-149200000D01*
X45040000Y-154750000D02*
X45040000Y-153950000D01*
X45650000Y-148590000D02*
X51350000Y-148590000D01*
X51350000Y-155410000D02*
X45700000Y-155410000D01*
X51960000Y-149200000D02*
X51960000Y-150050000D01*
X51960000Y-153950000D02*
X51960000Y-154800000D01*
X45040000Y-149200000D02*
G75*
G02*
X45650000Y-148590000I610000J0D01*
G01*
X45700000Y-155410000D02*
G75*
G02*
X45040000Y-154750000I2J660002D01*
G01*
X51350000Y-148590000D02*
G75*
G02*
X51960000Y-149200000I0J-610000D01*
G01*
X51960000Y-154800000D02*
G75*
G02*
X51350000Y-155410000I-610000J0D01*
G01*
%TO.C,R9*%
X47153641Y-171620000D02*
X46846359Y-171620000D01*
X47153641Y-172380000D02*
X46846359Y-172380000D01*
%TO.C,R2*%
X35653641Y-160120000D02*
X35346359Y-160120000D01*
X35653641Y-160880000D02*
X35346359Y-160880000D01*
%TO.C,C8*%
X52392164Y-161140000D02*
X52607836Y-161140000D01*
X52392164Y-161860000D02*
X52607836Y-161860000D01*
%TO.C,C17*%
X38090000Y-157788748D02*
X38090000Y-159211252D01*
X39910000Y-157788748D02*
X39910000Y-159211252D01*
%TO.C,R16*%
X79120000Y-165346359D02*
X79120000Y-165653641D01*
X79880000Y-165346359D02*
X79880000Y-165653641D01*
%TO.C,R25*%
X69120000Y-156106359D02*
X69120000Y-156413641D01*
X69880000Y-156106359D02*
X69880000Y-156413641D01*
%TO.C,C30*%
X68359420Y-169490000D02*
X68640580Y-169490000D01*
X68359420Y-170510000D02*
X68640580Y-170510000D01*
%TO.C,C27*%
X77490000Y-162359420D02*
X77490000Y-162640580D01*
X78510000Y-162359420D02*
X78510000Y-162640580D01*
%TO.C,H5*%
X82550000Y-158050000D02*
X85450000Y-158050000D01*
X82550000Y-160950000D02*
X82550000Y-158050000D01*
X85450000Y-158050000D02*
X85450000Y-160950000D01*
X85450000Y-160950000D02*
X82550000Y-160950000D01*
%TO.C,R18*%
X79120000Y-159653641D02*
X79120000Y-159346359D01*
X79880000Y-159653641D02*
X79880000Y-159346359D01*
D12*
%TO.C,D2*%
X70674500Y-155869700D02*
X70674500Y-158130300D01*
X72325500Y-158130300D02*
X72325500Y-155869700D01*
D11*
%TO.C,C14*%
X58340000Y-164211252D02*
X58340000Y-162788748D01*
X60160000Y-164211252D02*
X60160000Y-162788748D01*
%TO.C,C21*%
X44640580Y-169990000D02*
X44359420Y-169990000D01*
X44640580Y-171010000D02*
X44359420Y-171010000D01*
%TO.C,R21*%
X78227064Y-150265000D02*
X77772936Y-150265000D01*
X78227064Y-151735000D02*
X77772936Y-151735000D01*
%TO.C,C22*%
X44640580Y-171490000D02*
X44359420Y-171490000D01*
X44640580Y-172510000D02*
X44359420Y-172510000D01*
%TO.C,R15*%
X79120000Y-168346359D02*
X79120000Y-168653641D01*
X79880000Y-168346359D02*
X79880000Y-168653641D01*
%TO.C,R12*%
X43120000Y-175653641D02*
X43120000Y-175346359D01*
X43880000Y-175653641D02*
X43880000Y-175346359D01*
%TO.C,TP1*%
X31620000Y-166120000D02*
X33000000Y-166120000D01*
X31620000Y-167500000D02*
X31620000Y-166120000D01*
X31620000Y-168770000D02*
X31620000Y-168880000D01*
X31620000Y-168770000D02*
X34380000Y-168770000D01*
X31620000Y-168880000D02*
X34380000Y-168880000D01*
X34380000Y-168770000D02*
X34380000Y-168880000D01*
%TO.C,R27*%
X64620000Y-167153641D02*
X64620000Y-166846359D01*
X65380000Y-167153641D02*
X65380000Y-166846359D01*
%TO.C,J7*%
X49845000Y-182380000D02*
X49845000Y-181000000D01*
X51225000Y-182380000D02*
X49845000Y-182380000D01*
X52495000Y-179620000D02*
X55145000Y-179620000D01*
X52495000Y-182380000D02*
X52495000Y-179620000D01*
X52495000Y-182380000D02*
X55145000Y-182380000D01*
X55145000Y-182380000D02*
X55145000Y-179620000D01*
%TO.C,R7*%
X52346359Y-167120000D02*
X52653641Y-167120000D01*
X52346359Y-167880000D02*
X52653641Y-167880000D01*
%TO.C,C19*%
X53125580Y-176785000D02*
X52844420Y-176785000D01*
X53125580Y-177805000D02*
X52844420Y-177805000D01*
%TO.C,C29*%
X72359420Y-169490000D02*
X72640580Y-169490000D01*
X72359420Y-170510000D02*
X72640580Y-170510000D01*
%TO.C,R23*%
X73120000Y-157346359D02*
X73120000Y-157653641D01*
X73880000Y-157346359D02*
X73880000Y-157653641D01*
D12*
%TO.C,U4*%
X68391785Y-168576700D02*
X72608215Y-168576700D01*
X72608215Y-160423300D02*
X68391785Y-160423300D01*
D13*
G36*
X66588400Y-165665499D02*
G01*
X66334400Y-165665499D01*
X66334400Y-165284499D01*
X66588400Y-165284499D01*
X66588400Y-165665499D01*
G37*
G36*
X74665600Y-162415501D02*
G01*
X74411600Y-162415501D01*
X74411600Y-162034501D01*
X74665600Y-162034501D01*
X74665600Y-162415501D01*
G37*
D11*
%TO.C,R10*%
X48120000Y-174346359D02*
X48120000Y-174653641D01*
X48880000Y-174346359D02*
X48880000Y-174653641D01*
%TO.C,R19*%
X78653641Y-176620000D02*
X78346359Y-176620000D01*
X78653641Y-177380000D02*
X78346359Y-177380000D01*
%TO.C,C6*%
X44490000Y-167140580D02*
X44490000Y-166859420D01*
X45510000Y-167140580D02*
X45510000Y-166859420D01*
%TO.C,J5*%
X55237500Y-146390000D02*
X63317500Y-146390000D01*
X55237500Y-153410000D02*
X55237500Y-146390000D01*
X56437500Y-153410000D02*
X55237500Y-153410000D01*
X56437500Y-155110000D02*
X56437500Y-153410000D01*
X62117500Y-153410000D02*
X62117500Y-155110000D01*
X62117500Y-155110000D02*
X56437500Y-155110000D01*
X63317500Y-146390000D02*
X63317500Y-153410000D01*
X63317500Y-153410000D02*
X62117500Y-153410000D01*
X63517500Y-151300000D02*
X64117500Y-151000000D01*
X64117500Y-151000000D02*
X64117500Y-151600000D01*
X64117500Y-151600000D02*
X63517500Y-151300000D01*
%TO.C,J4*%
X29882500Y-179650000D02*
X30482500Y-179950000D01*
X29882500Y-180250000D02*
X29882500Y-179650000D01*
X30482500Y-179950000D02*
X29882500Y-180250000D01*
X30682500Y-177840000D02*
X31882500Y-177840000D01*
X30682500Y-184860000D02*
X30682500Y-177840000D01*
X31882500Y-176140000D02*
X37562500Y-176140000D01*
X31882500Y-177840000D02*
X31882500Y-176140000D01*
X37562500Y-176140000D02*
X37562500Y-177840000D01*
X37562500Y-177840000D02*
X38762500Y-177840000D01*
X38762500Y-177840000D02*
X38762500Y-184860000D01*
X38762500Y-184860000D02*
X30682500Y-184860000D01*
D10*
%TO.C,U1*%
X46200001Y-161800001D02*
X46450003Y-161800001D01*
X46200001Y-162050003D02*
X46200001Y-161800001D01*
X46200001Y-166400001D02*
X46200001Y-166149999D01*
X46200001Y-166400001D02*
X46450003Y-166400001D01*
X50549999Y-161800001D02*
X50800001Y-161800001D01*
X50549999Y-166400001D02*
X50800001Y-166400001D01*
X50800001Y-162050003D02*
X50800001Y-161800001D01*
X50800001Y-166400001D02*
X50800001Y-166149999D01*
D14*
X45875002Y-162500002D02*
G75*
G02*
X45625000Y-162500002I-125001J0D01*
G01*
X45625000Y-162500002D02*
G75*
G02*
X45875002Y-162500002I125001J0D01*
G01*
D11*
%TO.C,C31*%
X77859420Y-156490000D02*
X78140580Y-156490000D01*
X77859420Y-157510000D02*
X78140580Y-157510000D01*
%TO.C,C7*%
X52607836Y-164140000D02*
X52392164Y-164140000D01*
X52607836Y-164860000D02*
X52392164Y-164860000D01*
%TO.C,D1*%
X34700000Y-162735000D02*
X36985000Y-162735000D01*
X36985000Y-161265000D02*
X34700000Y-161265000D01*
X36985000Y-162735000D02*
X36985000Y-161265000D01*
%TO.C,U5*%
X64740000Y-155250000D02*
X64740000Y-158750000D01*
X65000000Y-155250000D02*
X64740000Y-155250000D01*
X65000000Y-158750000D02*
X64740000Y-158750000D01*
X68240000Y-155570000D02*
X68240000Y-158750000D01*
X68240000Y-158750000D02*
X67980000Y-158750000D01*
X68460000Y-155250000D02*
X67980000Y-155250000D01*
X67980000Y-154770000D01*
X68460000Y-155250000D01*
G36*
X68460000Y-155250000D02*
G01*
X67980000Y-155250000D01*
X67980000Y-154770000D01*
X68460000Y-155250000D01*
G37*
%TO.C,C18*%
X57090000Y-157788748D02*
X57090000Y-159211252D01*
X58910000Y-157788748D02*
X58910000Y-159211252D01*
%TO.C,R22*%
X76620000Y-152846359D02*
X76620000Y-153153641D01*
X77380000Y-152846359D02*
X77380000Y-153153641D01*
%TO.C,C5*%
X44640000Y-163892164D02*
X44640000Y-164107836D01*
X45360000Y-163892164D02*
X45360000Y-164107836D01*
%TO.C,R20*%
X78620000Y-152846359D02*
X78620000Y-153153641D01*
X79380000Y-152846359D02*
X79380000Y-153153641D01*
%TO.C,C32*%
X76640580Y-154490000D02*
X76359420Y-154490000D01*
X76640580Y-155510000D02*
X76359420Y-155510000D01*
%TD*%
%LPC*%
D15*
%TO.C,R28*%
X65000000Y-162490000D03*
X65000000Y-163510000D03*
%TD*%
D16*
%TO.C,C16*%
X55500000Y-157025000D03*
X55500000Y-159975000D03*
%TD*%
D15*
%TO.C,R30*%
X65000000Y-164490000D03*
X65000000Y-165510000D03*
%TD*%
D17*
%TO.C,C24*%
X78000000Y-170725000D03*
X78000000Y-172275000D03*
%TD*%
D18*
%TO.C,H4*%
X84000000Y-163500000D03*
%TD*%
D19*
%TO.C,Q2*%
X67422500Y-151050000D03*
X67422500Y-152950000D03*
X69297500Y-152000000D03*
%TD*%
D16*
%TO.C,C12*%
X44000000Y-157025000D03*
X44000000Y-159975000D03*
%TD*%
D20*
%TO.C,H8*%
X83250000Y-150000000D03*
D21*
X83250000Y-150000000D03*
%TD*%
D22*
%TO.C,R3*%
X49990000Y-168250000D03*
X51010000Y-168250000D03*
%TD*%
D23*
%TO.C,Q1*%
X73297500Y-152950000D03*
X73297500Y-151050000D03*
X71422500Y-152000000D03*
%TD*%
D18*
%TO.C,H2*%
X84000000Y-171500000D03*
%TD*%
D22*
%TO.C,R6*%
X51990000Y-165500000D03*
X53010000Y-165500000D03*
%TD*%
D16*
%TO.C,C15*%
X41500000Y-157025000D03*
X41500000Y-159975000D03*
%TD*%
D18*
%TO.C,H6*%
X84000000Y-155500000D03*
%TD*%
D17*
%TO.C,C26*%
X78000000Y-164725000D03*
X78000000Y-166275000D03*
%TD*%
D24*
%TO.C,C1*%
X39500000Y-173702500D03*
X37600000Y-173702500D03*
%TD*%
D15*
%TO.C,R17*%
X79500000Y-161990000D03*
X79500000Y-163010000D03*
%TD*%
D25*
%TO.C,C33*%
X78725000Y-155000000D03*
X80275000Y-155000000D03*
%TD*%
D15*
%TO.C,R29*%
X65000000Y-160490000D03*
X65000000Y-161510000D03*
%TD*%
D26*
%TO.C,C9*%
X47980000Y-160500000D03*
X47020000Y-160500000D03*
%TD*%
D27*
%TO.C,J1*%
X44225000Y-181000000D03*
D28*
X46765000Y-181000000D03*
%TD*%
D29*
%TO.C,U3*%
X46975000Y-174362500D03*
X46325000Y-174362500D03*
X45675000Y-174362500D03*
X45025000Y-174362500D03*
X45025000Y-176637500D03*
X45675000Y-176637500D03*
X46325000Y-176637500D03*
X46975000Y-176637500D03*
%TD*%
D17*
%TO.C,C28*%
X78000000Y-158725000D03*
X78000000Y-160275000D03*
%TD*%
D16*
%TO.C,C13*%
X53000000Y-157025000D03*
X53000000Y-159975000D03*
%TD*%
D30*
%TO.C,R11*%
X48500000Y-177010000D03*
X48500000Y-175990000D03*
%TD*%
D31*
%TO.C,R1*%
X36237500Y-170702500D03*
X40862500Y-170702500D03*
%TD*%
D32*
%TO.C,J2*%
X57000000Y-172475000D03*
D28*
X57000000Y-175015000D03*
%TD*%
D17*
%TO.C,C25*%
X78000000Y-167725000D03*
X78000000Y-169275000D03*
%TD*%
D15*
%TO.C,R14*%
X79500000Y-170990000D03*
X79500000Y-172010000D03*
%TD*%
%TO.C,R24*%
X75000000Y-151490000D03*
X75000000Y-152510000D03*
%TD*%
D33*
%TO.C,C2*%
X45000000Y-161520000D03*
X45000000Y-162480000D03*
%TD*%
D34*
%TO.C,C11*%
X56750000Y-164975000D03*
X56750000Y-162025000D03*
%TD*%
D18*
%TO.C,H1*%
X84000000Y-175500000D03*
%TD*%
D35*
%TO.C,C10*%
X49020000Y-160500000D03*
X49980000Y-160500000D03*
%TD*%
D36*
%TO.C,C20*%
X53760000Y-170795000D03*
X52210000Y-170795000D03*
%TD*%
D15*
%TO.C,R13*%
X79500000Y-173990000D03*
X79500000Y-175010000D03*
%TD*%
D37*
%TO.C,J3*%
X75080000Y-181000000D03*
D28*
X72540000Y-181000000D03*
X70000000Y-181000000D03*
X67460000Y-181000000D03*
X64920000Y-181000000D03*
%TD*%
D18*
%TO.C,H3*%
X84000000Y-167500000D03*
%TD*%
D30*
%TO.C,R26*%
X65500000Y-152510000D03*
X65500000Y-151490000D03*
%TD*%
D17*
%TO.C,C23*%
X78000000Y-173725000D03*
X78000000Y-175275000D03*
%TD*%
D22*
%TO.C,R5*%
X51990000Y-163500000D03*
X53010000Y-163500000D03*
%TD*%
%TO.C,R4*%
X47990000Y-168250000D03*
X49010000Y-168250000D03*
%TD*%
D38*
%TO.C,R8*%
X53010000Y-166500000D03*
X51990000Y-166500000D03*
%TD*%
D39*
%TO.C,U2*%
X52050000Y-175137500D03*
X53000000Y-175137500D03*
X53950000Y-175137500D03*
X53950000Y-172862500D03*
X52050000Y-172862500D03*
%TD*%
D34*
%TO.C,C4*%
X39000000Y-166475000D03*
X39000000Y-163525000D03*
%TD*%
%TO.C,C3*%
X41500000Y-166475000D03*
X41500000Y-163525000D03*
%TD*%
D27*
%TO.C,J8*%
X58225000Y-181000000D03*
D28*
X60765000Y-181000000D03*
%TD*%
D40*
%TO.C,L1*%
X45775000Y-152000000D03*
X51225000Y-152000000D03*
%TD*%
D38*
%TO.C,R9*%
X47510000Y-172000000D03*
X46490000Y-172000000D03*
%TD*%
%TO.C,R2*%
X36010000Y-160500000D03*
X34990000Y-160500000D03*
%TD*%
D35*
%TO.C,C8*%
X52020000Y-161500000D03*
X52980000Y-161500000D03*
%TD*%
D20*
%TO.C,H7*%
X34250000Y-150250000D03*
D21*
X34250000Y-150250000D03*
%TD*%
D16*
%TO.C,C17*%
X39000000Y-157025000D03*
X39000000Y-159975000D03*
%TD*%
D15*
%TO.C,R16*%
X79500000Y-164990000D03*
X79500000Y-166010000D03*
%TD*%
%TO.C,R25*%
X69500000Y-155750000D03*
X69500000Y-156770000D03*
%TD*%
D25*
%TO.C,C30*%
X67725000Y-170000000D03*
X69275000Y-170000000D03*
%TD*%
D17*
%TO.C,C27*%
X78000000Y-161725000D03*
X78000000Y-163275000D03*
%TD*%
D18*
%TO.C,H5*%
X84000000Y-159500000D03*
%TD*%
D30*
%TO.C,R18*%
X79500000Y-160010000D03*
X79500000Y-158990000D03*
%TD*%
D41*
%TO.C,D2*%
X71500000Y-155679200D03*
X71500000Y-158320800D03*
%TD*%
D34*
%TO.C,C14*%
X59250000Y-164975000D03*
X59250000Y-162025000D03*
%TD*%
D36*
%TO.C,C21*%
X45275000Y-170500000D03*
X43725000Y-170500000D03*
%TD*%
D42*
%TO.C,R21*%
X78912500Y-151000000D03*
X77087500Y-151000000D03*
%TD*%
D20*
%TO.C,H9*%
X83250000Y-181250000D03*
D21*
X83250000Y-181250000D03*
%TD*%
D36*
%TO.C,C22*%
X45275000Y-172000000D03*
X43725000Y-172000000D03*
%TD*%
D15*
%TO.C,R15*%
X79500000Y-167990000D03*
X79500000Y-169010000D03*
%TD*%
D30*
%TO.C,R12*%
X43500000Y-176010000D03*
X43500000Y-174990000D03*
%TD*%
D32*
%TO.C,TP1*%
X33000000Y-167500000D03*
%TD*%
D30*
%TO.C,R27*%
X65000000Y-167510000D03*
X65000000Y-166490000D03*
%TD*%
D27*
%TO.C,J7*%
X51225000Y-181000000D03*
D28*
X53765000Y-181000000D03*
%TD*%
D22*
%TO.C,R7*%
X51990000Y-167500000D03*
X53010000Y-167500000D03*
%TD*%
D36*
%TO.C,C19*%
X53760000Y-177295000D03*
X52210000Y-177295000D03*
%TD*%
D25*
%TO.C,C29*%
X71725000Y-170000000D03*
X73275000Y-170000000D03*
%TD*%
D15*
%TO.C,R23*%
X73500000Y-156990000D03*
X73500000Y-158010000D03*
%TD*%
D43*
%TO.C,U4*%
X73421000Y-168074999D03*
X73421000Y-167425000D03*
X73421000Y-166775002D03*
X73421000Y-166125001D03*
X73421000Y-165475002D03*
X73421000Y-164825001D03*
X73421000Y-164175002D03*
X73421000Y-163525001D03*
X73421000Y-162875002D03*
X73421000Y-162225001D03*
X73421000Y-161575002D03*
X73421000Y-160925001D03*
X67579000Y-160925001D03*
X67579000Y-161575000D03*
X67579000Y-162225001D03*
X67579000Y-162874999D03*
X67579000Y-163525001D03*
X67579000Y-164174999D03*
X67579000Y-164824998D03*
X67579000Y-165474999D03*
X67579000Y-166124998D03*
X67579000Y-166774999D03*
X67579000Y-167424998D03*
X67579000Y-168074999D03*
%TD*%
D15*
%TO.C,R10*%
X48500000Y-173990000D03*
X48500000Y-175010000D03*
%TD*%
D38*
%TO.C,R19*%
X79010000Y-177000000D03*
X77990000Y-177000000D03*
%TD*%
D44*
%TO.C,C6*%
X45000000Y-167775000D03*
X45000000Y-166225000D03*
%TD*%
D45*
%TO.C,J5*%
X61257500Y-151300000D03*
D46*
X57297500Y-151300000D03*
%TD*%
D47*
%TO.C,J4*%
X32742500Y-179950000D03*
D46*
X36702500Y-179950000D03*
%TD*%
D48*
%TO.C,U1*%
X46697745Y-162501514D03*
D49*
X47149431Y-162250200D03*
D50*
X46600002Y-162900001D03*
X46600002Y-163300000D03*
X46600002Y-163700002D03*
X46600002Y-164100001D03*
X46600002Y-164500000D03*
X46600002Y-164900002D03*
X46600002Y-165300001D03*
D51*
X46649068Y-165699257D03*
D52*
X47097609Y-165950180D03*
D53*
X47500000Y-166000000D03*
X47900002Y-166000000D03*
X48300001Y-166000000D03*
X48700001Y-166000000D03*
X49100000Y-166000000D03*
X49500002Y-166000000D03*
D54*
X49898885Y-165957363D03*
D55*
X50349509Y-165708006D03*
D56*
X50350000Y-165300001D03*
D57*
X50375001Y-164899999D03*
D58*
X50360000Y-164500000D03*
D50*
X50400000Y-164100001D03*
X50400000Y-163700002D03*
X50400000Y-163300000D03*
X50400000Y-162900001D03*
D49*
X49850961Y-162249822D03*
D48*
X50299251Y-162498872D03*
D59*
X49400002Y-162400002D03*
X48950000Y-162400002D03*
X48500001Y-162400002D03*
X48050002Y-162400002D03*
D60*
X47600000Y-162375001D03*
%TD*%
D25*
%TO.C,C31*%
X77225000Y-157000000D03*
X78775000Y-157000000D03*
%TD*%
D26*
%TO.C,C7*%
X52980000Y-164500000D03*
X52020000Y-164500000D03*
%TD*%
D61*
%TO.C,D1*%
X36287500Y-162000000D03*
X34712500Y-162000000D03*
%TD*%
D62*
%TO.C,U5*%
X67470000Y-155560000D03*
X66830000Y-155560000D03*
X66170000Y-155560000D03*
X65530000Y-155560000D03*
D63*
X66500000Y-157385000D03*
%TD*%
D16*
%TO.C,C18*%
X58000000Y-157025000D03*
X58000000Y-159975000D03*
%TD*%
D15*
%TO.C,R22*%
X77000000Y-152490000D03*
X77000000Y-153510000D03*
%TD*%
D33*
%TO.C,C5*%
X45000000Y-163520000D03*
X45000000Y-164480000D03*
%TD*%
D15*
%TO.C,R20*%
X79000000Y-152490000D03*
X79000000Y-153510000D03*
%TD*%
D36*
%TO.C,C32*%
X77275000Y-155000000D03*
X75725000Y-155000000D03*
%TD*%
%LPD*%
M02*
